{"glyphs":{"0":{"ha":940,"x_min":44,"x_max":896,"o":"m 469 -24 q 153 103 263 -24 q 44 471 44 231 q 153 841 44 714 q 469 968 263 968 q 787 841 678 968 q 896 471 896 714 q 787 103 896 229 q 469 -24 678 -24 m 469 199 q 583 264 547 199 q 619 471 619 329 q 583 680 619 614 q 469 746 547 746 q 356 681 392 746 q 321 471 321 615 q 356 263 321 328 q 469 199 392 199 z "},"1":{"ha":646,"x_min":39,"x_max":528,"o":"m 239 544 l 39 544 l 39 765 q 191 785 138 765 q 265 844 244 806 q 286 944 286 882 l 528 944 l 528 0 l 239 0 l 239 544 z "},"2":{"ha":901,"x_min":46,"x_max":849,"o":"m 46 0 q 106 294 46 185 q 301 471 165 404 l 467 551 q 535 605 514 575 q 557 675 557 635 q 532 736 557 713 q 468 760 507 760 q 388 727 415 760 q 360 632 360 694 l 69 632 q 119 808 69 732 q 258 926 168 885 q 467 968 347 968 q 748 893 647 968 q 849 683 849 818 q 657 394 849 489 l 514 325 q 447 279 469 301 q 413 224 425 257 l 833 224 l 833 0 l 46 0 z "},"3":{"ha":879,"x_min":31,"x_max":832,"o":"m 425 -24 q 131 61 231 -24 q 31 308 31 146 l 321 308 q 351 223 321 253 q 436 193 382 193 q 511 218 483 193 q 539 286 539 243 q 508 360 539 335 q 419 385 478 385 l 297 385 l 297 589 l 419 589 q 535 682 535 589 q 509 744 535 721 q 440 767 483 767 q 364 740 392 767 q 336 665 336 713 l 47 665 q 95 824 47 756 q 234 931 143 893 q 450 968 325 968 q 723 899 621 968 q 825 706 825 829 q 777 567 825 625 q 636 489 729 510 q 781 412 729 471 q 832 265 832 353 q 783 114 832 179 q 643 13 735 49 q 425 -24 551 -24 z "},"4":{"ha":903,"x_min":69,"x_max":857,"o":"m 857 246 l 765 246 l 765 0 l 481 0 l 481 246 l 69 246 l 69 944 l 354 944 l 354 481 l 481 481 l 481 708 l 765 708 l 765 481 l 857 481 l 857 246 z "},"5":{"ha":892,"x_min":56,"x_max":853,"o":"m 451 -24 q 167 55 268 -24 q 56 278 65 133 l 332 278 q 367 216 336 238 q 447 194 399 194 q 541 232 507 194 q 575 333 575 269 q 542 425 575 389 q 456 461 510 461 q 332 386 363 461 l 82 386 l 82 944 l 807 944 l 807 738 l 343 738 l 343 582 q 539 647 408 647 q 703 608 632 647 q 814 497 775 568 q 853 335 853 426 q 803 147 853 228 q 663 22 754 67 q 451 -24 572 -24 z "},"6":{"ha":868,"x_min":32,"x_max":836,"o":"m 521 708 q 751 587 667 685 q 836 344 836 489 q 787 153 836 236 q 647 23 738 69 q 435 -24 556 -24 q 223 23 314 -24 q 82 153 132 69 q 32 344 32 236 q 93 556 32 464 l 368 944 l 692 944 l 521 708 m 435 200 q 528 240 493 200 q 564 344 564 281 q 528 449 564 408 q 435 490 493 490 q 340 450 375 490 q 306 344 306 410 q 340 240 306 281 q 435 200 375 200 z "},"7":{"ha":839,"x_min":31,"x_max":839,"o":"m 425 708 l 31 708 l 31 944 l 839 944 l 390 0 l 67 0 l 425 708 z "},"8":{"ha":896,"x_min":46,"x_max":849,"o":"m 447 -24 q 154 51 263 -24 q 46 260 46 125 q 89 405 46 346 q 211 486 132 464 q 108 568 149 510 q 68 703 68 626 q 171 899 68 829 q 447 968 274 968 q 724 899 621 968 q 826 703 826 829 q 786 568 826 626 q 683 486 746 510 q 806 405 763 464 q 849 260 849 346 q 740 51 849 125 q 447 -24 632 -24 m 447 582 q 531 609 499 582 q 563 679 563 636 q 531 750 563 724 q 447 776 499 776 q 364 749 396 776 q 332 679 332 722 q 365 609 332 636 q 447 582 397 582 m 447 174 q 538 203 503 174 q 572 278 572 232 q 538 354 572 325 q 447 383 504 383 q 358 354 393 383 q 322 278 322 325 q 357 203 322 232 q 447 174 392 174 z "},"9":{"ha":867,"x_min":31,"x_max":835,"o":"m 835 600 q 774 389 835 481 l 499 0 l 175 0 l 346 236 q 115 358 200 260 q 31 600 31 456 q 80 792 31 708 q 220 922 129 875 q 432 968 311 968 q 644 922 553 968 q 785 792 735 875 q 835 600 835 708 m 303 600 q 338 495 303 536 q 432 454 374 454 q 526 494 492 454 q 561 600 561 535 q 526 704 561 664 q 432 744 492 744 q 338 704 374 744 q 303 600 303 664 z "},"\r":{"ha":347,"x_min":0,"x_max":0,"o":""}," ":{"ha":329,"x_min":0,"x_max":0,"o":""},"A":{"ha":989,"x_min":7,"x_max":982,"o":"m 651 113 l 338 113 l 307 0 l 7 0 l 339 972 l 651 972 l 982 0 l 682 0 l 651 113 m 596 322 l 494 700 l 393 322 l 596 322 z "},"B":{"ha":918,"x_min":86,"x_max":886,"o":"m 683 494 q 831 424 775 483 q 886 268 886 364 q 801 73 886 146 q 572 0 717 0 l 86 0 l 86 972 l 561 972 q 788 904 704 972 q 871 721 871 836 q 820 569 871 629 q 683 494 769 510 m 375 786 l 375 581 l 467 581 q 551 608 519 581 q 582 685 582 636 q 551 759 582 732 q 467 786 521 786 l 375 786 m 474 201 q 560 231 529 201 q 592 308 592 260 q 560 384 592 356 q 475 413 528 413 l 375 413 l 375 201 l 474 201 z "},"C":{"ha":1107,"x_min":25,"x_max":1088,"o":"m 564 -31 q 284 35 407 -31 q 93 219 161 101 q 25 486 25 338 q 93 753 25 635 q 284 937 161 871 q 564 1003 407 1003 q 931 896 792 1003 q 1088 599 1069 789 l 782 599 q 710 706 767 667 q 565 746 653 746 q 390 676 453 746 q 326 486 326 607 q 390 296 326 365 q 565 226 453 226 q 710 266 653 226 q 782 374 767 306 l 1088 374 q 931 76 1069 183 q 564 -31 792 -31 z "},"D":{"ha":1014,"x_min":86,"x_max":992,"o":"m 86 972 l 488 972 q 751 908 636 972 q 928 733 865 844 q 992 486 992 622 q 929 239 992 350 q 752 64 867 128 q 488 0 638 0 l 86 0 l 86 972 m 463 236 q 585 269 533 236 q 665 360 638 303 q 692 486 692 417 q 665 613 692 556 q 585 703 638 669 q 463 736 533 736 l 375 736 l 375 236 l 463 236 z "},"E":{"ha":788,"x_min":86,"x_max":711,"o":"m 86 972 l 711 972 l 711 756 l 375 756 l 375 586 l 711 586 l 711 379 l 375 379 l 375 217 l 711 217 l 711 0 l 86 0 l 86 972 z "},"F":{"ha":767,"x_min":86,"x_max":711,"o":"m 86 972 l 711 972 l 711 736 l 375 736 l 375 521 l 711 521 l 711 293 l 375 293 l 375 0 l 86 0 l 86 972 z "},"G":{"ha":1156,"x_min":25,"x_max":1142,"o":"m 1142 339 l 1065 339 q 894 65 1025 161 q 553 -31 763 -31 q 277 35 397 -31 q 91 218 157 101 q 25 483 25 335 q 92 751 26 633 q 281 936 158 869 q 567 1003 403 1003 q 817 960 707 1003 q 990 840 926 917 q 1061 663 1054 763 l 747 663 q 688 741 736 711 q 568 771 640 771 q 390 695 453 771 q 326 493 326 619 q 392 292 326 369 q 565 215 457 215 q 768 339 726 215 l 608 339 l 608 535 l 1142 535 l 1142 339 z "},"H":{"ha":1021,"x_min":86,"x_max":935,"o":"m 86 972 l 375 972 l 375 603 l 646 603 l 646 972 l 935 972 l 935 0 l 646 0 l 646 363 l 375 363 l 375 0 l 86 0 l 86 972 z "},"I":{"ha":461,"x_min":86,"x_max":375,"o":"m 86 972 l 375 972 l 375 0 l 86 0 l 86 972 z "},"J":{"ha":861,"x_min":14,"x_max":801,"o":"m 407 -26 q 188 23 276 -26 q 57 158 100 72 q 14 354 14 243 l 303 354 q 329 252 303 289 q 407 215 356 215 q 485 250 460 215 q 511 344 511 285 l 511 972 l 801 972 l 801 372 q 698 72 801 171 q 407 -26 594 -26 z "},"K":{"ha":994,"x_min":86,"x_max":985,"o":"m 639 489 l 985 0 l 653 0 l 375 422 l 375 0 l 86 0 l 86 972 l 375 972 l 375 550 l 653 972 l 985 972 l 639 489 z "},"L":{"ha":757,"x_min":86,"x_max":706,"o":"m 86 972 l 375 972 l 375 249 l 706 249 l 706 0 l 86 0 l 86 972 z "},"M":{"ha":1310,"x_min":86,"x_max":1224,"o":"m 86 972 l 453 972 l 660 338 l 865 972 l 1224 972 l 1224 0 l 946 0 l 946 617 l 768 0 l 554 0 l 364 619 l 364 0 l 86 0 l 86 972 z "},"N":{"ha":1031,"x_min":86,"x_max":944,"o":"m 86 972 l 378 972 l 667 419 l 667 972 l 944 972 l 944 0 l 653 0 l 364 553 l 364 0 l 86 0 l 86 972 z "},"O":{"ha":1124,"x_min":25,"x_max":1097,"o":"m 561 -31 q 276 40 397 -31 q 90 228 154 110 q 25 486 25 346 q 90 744 25 626 q 276 933 154 863 q 561 1003 397 1003 q 847 933 725 1003 q 1033 744 968 863 q 1097 486 1097 626 q 1033 228 1097 346 q 847 40 968 110 q 561 -31 725 -31 m 561 228 q 734 301 672 228 q 796 482 796 374 q 735 669 796 594 q 561 744 675 744 q 388 670 450 744 q 326 486 326 596 q 388 302 326 376 q 561 228 450 228 z "},"P":{"ha":926,"x_min":86,"x_max":917,"o":"m 556 972 q 741 925 658 972 q 870 795 824 878 q 917 610 917 713 q 870 424 917 507 q 741 295 824 342 q 556 249 658 249 l 375 249 l 375 0 l 86 0 l 86 972 l 556 972 m 494 472 q 587 511 550 472 q 624 610 624 550 q 587 708 624 669 q 496 747 550 747 l 375 747 l 375 472 l 494 472 z "},"Q":{"ha":1124,"x_min":25,"x_max":1097,"o":"m 1097 486 q 1034 232 1097 349 q 857 46 971 115 l 950 -74 l 694 -203 l 565 -31 l 561 -31 q 276 40 397 -31 q 90 228 154 110 q 25 486 25 346 q 90 744 25 626 q 276 933 154 863 q 561 1003 397 1003 q 847 933 725 1003 q 1033 744 968 863 q 1097 486 1097 626 m 326 486 q 388 302 326 376 q 561 228 450 228 q 734 301 672 228 q 796 482 796 374 q 735 669 796 594 q 561 744 675 744 q 388 670 450 744 q 326 486 326 596 z "},"R":{"ha":961,"x_min":86,"x_max":917,"o":"m 917 610 q 874 433 917 513 q 757 306 832 353 l 913 0 l 581 0 l 456 249 l 375 249 l 375 0 l 86 0 l 86 972 l 556 972 q 741 925 658 972 q 870 795 824 878 q 917 610 917 713 m 375 472 l 494 472 q 587 511 550 472 q 624 610 624 550 q 587 708 624 669 q 496 747 550 747 l 375 747 l 375 472 z "},"S":{"ha":849,"x_min":24,"x_max":822,"o":"m 432 -31 q 133 62 242 -31 q 24 318 24 154 l 313 318 q 345 219 313 256 q 436 183 378 183 q 508 204 483 183 q 533 264 533 225 q 513 317 533 297 q 442 357 492 338 l 249 428 q 40 703 40 506 q 86 860 40 793 q 218 965 132 928 q 421 1003 304 1003 q 627 965 539 1003 q 763 858 715 928 q 811 692 811 788 l 522 692 q 495 776 522 746 q 418 806 468 806 q 354 786 378 806 q 331 732 331 767 q 354 681 331 703 q 438 638 378 660 l 615 569 q 772 458 722 528 q 822 289 822 389 q 774 119 822 192 q 638 8 726 47 q 432 -31 550 -31 z "},"T":{"ha":804,"x_min":7,"x_max":797,"o":"m 257 724 l 7 724 l 7 972 l 797 972 l 797 724 l 547 724 l 547 0 l 257 0 l 257 724 z "},"U":{"ha":968,"x_min":60,"x_max":908,"o":"m 485 -26 q 260 17 356 -26 q 112 143 164 61 q 60 338 60 225 l 60 972 l 350 972 l 350 356 q 387 255 350 292 q 485 218 424 218 q 583 256 546 218 q 619 356 619 293 l 619 972 l 908 972 l 908 338 q 856 143 908 225 q 709 17 804 61 q 485 -26 614 -26 z "},"V":{"ha":958,"x_min":-10,"x_max":968,"o":"m -10 972 l 300 972 l 479 321 l 658 972 l 968 972 l 638 0 l 321 0 l -10 972 z "},"W":{"ha":1510,"x_min":-10,"x_max":1519,"o":"m -10 972 l 297 972 l 472 386 l 640 972 l 869 972 l 1038 386 l 1213 972 l 1519 972 l 1169 0 l 917 0 l 756 529 l 593 0 l 340 0 l -10 972 z "},"X":{"ha":972,"x_min":11,"x_max":961,"o":"m 319 486 l 11 972 l 328 972 l 486 692 l 644 972 l 961 972 l 653 486 l 961 0 l 644 0 l 486 281 l 328 0 l 11 0 l 319 486 z "},"Y":{"ha":921,"x_min":-17,"x_max":949,"o":"m 949 972 l 467 0 l 143 0 l 310 342 l -17 972 l 324 972 l 478 625 l 626 972 l 949 972 z "},"Z":{"ha":915,"x_min":10,"x_max":899,"o":"m 450 736 l 69 736 l 69 972 l 899 972 l 461 236 l 868 236 l 868 0 l 10 0 l 450 736 z "},"Á":{"ha":989,"x_min":7,"x_max":982,"o":"m 368 1010 l 314 1129 l 628 1249 l 682 1129 l 368 1010 m 651 113 l 338 113 l 307 0 l 7 0 l 339 972 l 651 972 l 982 0 l 682 0 l 651 113 m 596 322 l 494 700 l 393 322 l 596 322 z "},"Ă":{"ha":989,"x_min":7,"x_max":982,"o":"m 496 1024 q 317 1080 389 1024 q 239 1224 244 1136 l 379 1224 q 417 1159 385 1181 q 496 1138 450 1138 q 574 1159 542 1138 q 613 1224 607 1181 l 753 1224 q 675 1080 747 1136 q 496 1024 603 1024 m 651 113 l 338 113 l 307 0 l 7 0 l 339 972 l 651 972 l 982 0 l 682 0 l 651 113 m 596 322 l 494 700 l 393 322 l 596 322 z "},"Â":{"ha":989,"x_min":7,"x_max":982,"o":"m 388 1013 l 296 1099 l 494 1243 l 692 1099 l 600 1013 l 494 1096 l 388 1013 m 651 113 l 338 113 l 307 0 l 7 0 l 339 972 l 651 972 l 982 0 l 682 0 l 651 113 m 596 322 l 494 700 l 393 322 l 596 322 z "},"Ä":{"ha":989,"x_min":7,"x_max":982,"o":"m 333 1013 q 248 1047 283 1013 q 213 1128 213 1081 q 247 1211 213 1176 q 333 1246 282 1246 q 419 1212 385 1246 q 454 1128 454 1178 q 419 1047 454 1081 q 333 1013 385 1013 m 657 1013 q 573 1047 607 1013 q 539 1128 539 1081 q 573 1212 539 1178 q 657 1246 607 1246 q 744 1211 708 1246 q 779 1128 779 1176 q 744 1047 779 1081 q 657 1013 708 1013 m 651 113 l 338 113 l 307 0 l 7 0 l 339 972 l 651 972 l 982 0 l 682 0 l 651 113 m 596 322 l 494 700 l 393 322 l 596 322 z "},"Æ":{"ha":1300,"x_min":4,"x_max":1224,"o":"m 906 756 l 906 586 l 1224 586 l 1224 379 l 906 379 l 906 217 l 1224 217 l 1224 0 l 621 0 l 621 115 l 353 115 l 306 0 l 4 0 l 485 972 l 1224 972 l 1224 756 l 906 756 m 621 322 l 621 760 l 439 322 l 621 322 z "},"Ǽ":{"ha":1300,"x_min":4,"x_max":1224,"o":"m 756 1010 l 701 1129 l 1015 1249 l 1069 1129 l 756 1010 m 906 756 l 906 586 l 1224 586 l 1224 379 l 906 379 l 906 217 l 1224 217 l 1224 0 l 621 0 l 621 115 l 353 115 l 306 0 l 4 0 l 485 972 l 1224 972 l 1224 756 l 906 756 m 621 322 l 621 760 l 439 322 l 621 322 z "},"À":{"ha":989,"x_min":7,"x_max":982,"o":"m 624 1010 l 310 1129 l 364 1249 l 678 1129 l 624 1010 m 651 113 l 338 113 l 307 0 l 7 0 l 339 972 l 651 972 l 982 0 l 682 0 l 651 113 m 596 322 l 494 700 l 393 322 l 596 322 z "},"Ā":{"ha":989,"x_min":7,"x_max":982,"o":"m 776 1051 l 215 1051 l 215 1190 l 776 1190 l 776 1051 m 651 113 l 338 113 l 307 0 l 7 0 l 339 972 l 651 972 l 982 0 l 682 0 l 651 113 m 596 322 l 494 700 l 393 322 l 596 322 z "},"Ą":{"ha":989,"x_min":7,"x_max":982,"o":"m 651 113 l 338 113 l 307 0 l 7 0 l 339 972 l 651 972 l 982 0 l 682 0 l 651 113 m 596 322 l 494 700 l 393 322 l 596 322 m 825 -279 q 678 -240 731 -279 q 626 -142 626 -201 q 718 0 626 -51 l 982 0 q 874 -28 906 -3 q 843 -86 843 -53 q 862 -130 843 -112 q 911 -147 881 -147 q 978 -131 946 -147 l 978 -253 q 907 -274 940 -268 q 825 -279 874 -279 z "},"Å":{"ha":989,"x_min":7,"x_max":982,"o":"m 651 113 l 338 113 l 307 0 l 7 0 l 331 946 q 292 1057 292 996 q 319 1154 292 1110 q 393 1224 346 1199 q 496 1250 440 1250 q 600 1224 553 1250 q 674 1153 647 1197 q 701 1057 701 1108 q 661 943 701 994 l 982 0 l 682 0 l 651 113 m 496 1139 q 438 1116 461 1139 q 414 1057 414 1093 q 438 1000 414 1022 q 496 978 461 978 q 555 1000 532 978 q 578 1058 578 1022 q 555 1117 578 1094 q 496 1139 532 1139 m 596 322 l 494 700 l 393 322 l 596 322 z "},"Ã":{"ha":989,"x_min":7,"x_max":982,"o":"m 383 1093 q 328 1078 351 1093 q 272 1029 304 1064 l 199 1122 q 289 1210 249 1188 q 364 1232 329 1232 q 424 1221 393 1232 q 496 1189 454 1210 q 555 1163 532 1171 q 597 1154 578 1154 q 653 1165 629 1154 q 724 1215 678 1176 l 792 1117 q 701 1036 749 1056 q 613 1017 653 1017 q 552 1028 582 1017 q 478 1060 522 1039 q 424 1085 446 1076 q 383 1093 403 1093 m 651 113 l 338 113 l 307 0 l 7 0 l 339 972 l 651 972 l 982 0 l 682 0 l 651 113 m 596 322 l 494 700 l 393 322 l 596 322 z "},"Ć":{"ha":1107,"x_min":25,"x_max":1088,"o":"m 383 1129 l 697 1249 l 751 1129 l 438 1010 l 383 1129 m 564 -31 q 284 35 407 -31 q 93 219 161 101 q 25 486 25 338 q 93 753 25 635 q 284 937 161 871 q 564 1003 407 1003 q 931 896 792 1003 q 1088 599 1069 789 l 782 599 q 710 706 767 667 q 565 746 653 746 q 390 676 453 746 q 326 486 326 607 q 390 296 326 365 q 565 226 453 226 q 710 266 653 226 q 782 374 767 306 l 1088 374 q 931 76 1069 183 q 564 -31 792 -31 z "},"Č":{"ha":1107,"x_min":25,"x_max":1088,"o":"m 368 1164 l 460 1250 l 565 1167 l 672 1250 l 764 1164 l 565 1019 l 368 1164 m 564 -31 q 284 35 407 -31 q 93 219 161 101 q 25 486 25 338 q 93 753 25 635 q 284 937 161 871 q 564 1003 407 1003 q 931 896 792 1003 q 1088 599 1069 789 l 782 599 q 710 706 767 667 q 565 746 653 746 q 390 676 453 746 q 326 486 326 607 q 390 296 326 365 q 565 226 453 226 q 710 266 653 226 q 782 374 767 306 l 1088 374 q 931 76 1069 183 q 564 -31 792 -31 z "},"Ç":{"ha":1107,"x_min":25,"x_max":1088,"o":"m 565 226 q 710 266 653 226 q 782 374 767 306 l 1088 374 q 947 89 1071 194 q 615 -29 822 -17 l 615 -82 q 675 -65 635 -65 q 753 -96 724 -65 q 783 -172 783 -126 q 746 -253 783 -219 q 643 -287 708 -287 q 544 -260 583 -287 q 501 -189 506 -233 l 601 -189 q 614 -208 603 -200 q 640 -215 625 -215 q 671 -203 660 -215 q 682 -168 682 -190 q 672 -137 682 -147 q 643 -126 661 -126 q 607 -144 617 -126 l 515 -144 l 515 -29 q 259 49 371 -19 q 86 231 147 118 q 25 486 25 344 q 93 753 25 635 q 284 937 161 871 q 564 1003 407 1003 q 931 896 792 1003 q 1088 599 1069 789 l 782 599 q 710 706 767 667 q 565 746 653 746 q 390 676 453 746 q 326 486 326 607 q 390 296 326 365 q 565 226 453 226 z "},"Ĉ":{"ha":1107,"x_min":25,"x_max":1088,"o":"m 761 1099 l 669 1013 l 564 1096 l 457 1013 l 365 1099 l 564 1243 l 761 1099 m 564 -31 q 284 35 407 -31 q 93 219 161 101 q 25 486 25 338 q 93 753 25 635 q 284 937 161 871 q 564 1003 407 1003 q 931 896 792 1003 q 1088 599 1069 789 l 782 599 q 710 706 767 667 q 565 746 653 746 q 390 676 453 746 q 326 486 326 607 q 390 296 326 365 q 565 226 453 226 q 710 266 653 226 q 782 374 767 306 l 1088 374 q 931 76 1069 183 q 564 -31 792 -31 z "},"Ċ":{"ha":1107,"x_min":25,"x_max":1088,"o":"m 565 1024 q 486 1056 517 1024 q 456 1133 456 1088 q 486 1213 456 1181 q 565 1244 517 1244 q 645 1213 614 1244 q 676 1133 676 1181 q 645 1056 676 1088 q 565 1024 614 1024 m 564 -31 q 284 35 407 -31 q 93 219 161 101 q 25 486 25 338 q 93 753 25 635 q 284 937 161 871 q 564 1003 407 1003 q 931 896 792 1003 q 1088 599 1069 789 l 782 599 q 710 706 767 667 q 565 746 653 746 q 390 676 453 746 q 326 486 326 607 q 390 296 326 365 q 565 226 453 226 q 710 266 653 226 q 782 374 767 306 l 1088 374 q 931 76 1069 183 q 564 -31 792 -31 z "},"Ď":{"ha":1014,"x_min":86,"x_max":992,"o":"m 268 1164 l 360 1250 l 465 1167 l 572 1250 l 664 1164 l 465 1019 l 268 1164 m 86 972 l 488 972 q 751 908 636 972 q 928 733 865 844 q 992 486 992 622 q 929 239 992 350 q 752 64 867 128 q 488 0 638 0 l 86 0 l 86 972 m 463 236 q 585 269 533 236 q 665 360 638 303 q 692 486 692 417 q 665 613 692 556 q 585 703 638 669 q 463 736 533 736 l 375 736 l 375 236 l 463 236 z "},"Đ":{"ha":1014,"x_min":13,"x_max":992,"o":"m 488 972 q 751 908 636 972 q 928 733 865 844 q 992 486 992 622 q 929 239 992 350 q 752 64 867 128 q 488 0 638 0 l 86 0 l 86 415 l 13 415 l 13 556 l 86 556 l 86 972 l 488 972 m 463 236 q 585 269 533 236 q 665 360 638 303 q 692 486 692 417 q 665 613 692 556 q 585 703 638 669 q 463 736 533 736 l 375 736 l 375 556 l 494 556 l 494 415 l 375 415 l 375 236 l 463 236 z "},"É":{"ha":788,"x_min":86,"x_max":711,"o":"m 229 1129 l 543 1249 l 597 1129 l 283 1010 l 229 1129 m 86 972 l 711 972 l 711 756 l 375 756 l 375 586 l 711 586 l 711 379 l 375 379 l 375 217 l 711 217 l 711 0 l 86 0 l 86 972 z "},"Ĕ":{"ha":788,"x_min":86,"x_max":711,"o":"m 411 1024 q 232 1080 304 1024 q 154 1224 160 1136 l 294 1224 q 333 1159 300 1181 q 411 1138 365 1138 q 490 1159 457 1138 q 528 1224 522 1181 l 668 1224 q 590 1080 663 1136 q 411 1024 518 1024 m 86 972 l 711 972 l 711 756 l 375 756 l 375 586 l 711 586 l 711 379 l 375 379 l 375 217 l 711 217 l 711 0 l 86 0 l 86 972 z "},"Ě":{"ha":788,"x_min":86,"x_max":711,"o":"m 214 1164 l 306 1250 l 411 1167 l 518 1250 l 610 1164 l 411 1019 l 214 1164 m 86 972 l 711 972 l 711 756 l 375 756 l 375 586 l 711 586 l 711 379 l 375 379 l 375 217 l 711 217 l 711 0 l 86 0 l 86 972 z "},"Ê":{"ha":788,"x_min":86,"x_max":711,"o":"m 607 1099 l 515 1013 l 410 1096 l 303 1013 l 211 1099 l 410 1243 l 607 1099 m 86 972 l 711 972 l 711 756 l 375 756 l 375 586 l 711 586 l 711 379 l 375 379 l 375 217 l 711 217 l 711 0 l 86 0 l 86 972 z "},"Ë":{"ha":788,"x_min":86,"x_max":711,"o":"m 249 1013 q 163 1047 199 1013 q 128 1128 128 1081 q 163 1211 128 1176 q 249 1246 197 1246 q 335 1212 300 1246 q 369 1128 369 1178 q 335 1047 369 1081 q 249 1013 300 1013 m 572 1013 q 488 1047 522 1013 q 454 1128 454 1081 q 488 1212 454 1178 q 572 1246 522 1246 q 659 1211 624 1246 q 694 1128 694 1176 q 659 1047 694 1081 q 572 1013 624 1013 m 86 972 l 711 972 l 711 756 l 375 756 l 375 586 l 711 586 l 711 379 l 375 379 l 375 217 l 711 217 l 711 0 l 86 0 l 86 972 z "},"Ė":{"ha":788,"x_min":86,"x_max":711,"o":"m 411 1024 q 332 1056 363 1024 q 301 1133 301 1088 q 332 1213 301 1181 q 411 1244 363 1244 q 491 1213 460 1244 q 522 1133 522 1181 q 491 1056 522 1088 q 411 1024 460 1024 m 86 972 l 711 972 l 711 756 l 375 756 l 375 586 l 711 586 l 711 379 l 375 379 l 375 217 l 711 217 l 711 0 l 86 0 l 86 972 z "},"È":{"ha":788,"x_min":86,"x_max":711,"o":"m 225 1129 l 279 1249 l 593 1129 l 539 1010 l 225 1129 m 86 972 l 711 972 l 711 756 l 375 756 l 375 586 l 711 586 l 711 379 l 375 379 l 375 217 l 711 217 l 711 0 l 86 0 l 86 972 z "},"Ē":{"ha":788,"x_min":86,"x_max":711,"o":"m 131 1190 l 692 1190 l 692 1051 l 131 1051 l 131 1190 m 86 972 l 711 972 l 711 756 l 375 756 l 375 586 l 711 586 l 711 379 l 375 379 l 375 217 l 711 217 l 711 0 l 86 0 l 86 972 z "},"Ę":{"ha":788,"x_min":86,"x_max":711,"o":"m 86 972 l 711 972 l 711 756 l 375 756 l 375 586 l 711 586 l 711 379 l 375 379 l 375 217 l 711 217 l 711 0 l 86 0 l 86 972 m 554 -279 q 408 -240 460 -279 q 356 -142 356 -201 q 447 0 356 -51 l 711 0 q 603 -28 635 -3 q 572 -86 572 -53 q 591 -130 572 -112 q 640 -147 610 -147 q 707 -131 675 -147 l 707 -253 q 636 -274 669 -268 q 554 -279 603 -279 z "},"Ð":{"ha":1014,"x_min":13,"x_max":992,"o":"m 488 972 q 751 908 636 972 q 928 733 865 844 q 992 486 992 622 q 929 239 992 350 q 752 64 867 128 q 488 0 638 0 l 86 0 l 86 415 l 13 415 l 13 556 l 86 556 l 86 972 l 488 972 m 463 236 q 585 269 533 236 q 665 360 638 303 q 692 486 692 417 q 665 613 692 556 q 585 703 638 669 q 463 736 533 736 l 375 736 l 375 556 l 494 556 l 494 415 l 375 415 l 375 236 l 463 236 z "},"Ğ":{"ha":1156,"x_min":25,"x_max":1142,"o":"m 564 1024 q 385 1080 457 1024 q 307 1224 313 1136 l 447 1224 q 485 1159 453 1181 q 564 1138 518 1138 q 642 1159 610 1138 q 681 1224 675 1181 l 821 1224 q 743 1080 815 1136 q 564 1024 671 1024 m 1142 339 l 1065 339 q 894 65 1025 161 q 553 -31 763 -31 q 277 35 397 -31 q 91 218 157 101 q 25 483 25 335 q 92 751 26 633 q 281 936 158 869 q 567 1003 403 1003 q 817 960 707 1003 q 990 840 926 917 q 1061 663 1054 763 l 747 663 q 688 741 736 711 q 568 771 640 771 q 390 695 453 771 q 326 493 326 619 q 392 292 326 369 q 565 215 457 215 q 768 339 726 215 l 608 339 l 608 535 l 1142 535 l 1142 339 z "},"Ĝ":{"ha":1156,"x_min":25,"x_max":1142,"o":"m 456 1013 l 364 1099 l 563 1243 l 760 1099 l 668 1013 l 563 1096 l 456 1013 m 1142 339 l 1065 339 q 894 65 1025 161 q 553 -31 763 -31 q 277 35 397 -31 q 91 218 157 101 q 25 483 25 335 q 92 751 26 633 q 281 936 158 869 q 567 1003 403 1003 q 817 960 707 1003 q 990 840 926 917 q 1061 663 1054 763 l 747 663 q 688 741 736 711 q 568 771 640 771 q 390 695 453 771 q 326 493 326 619 q 392 292 326 369 q 565 215 457 215 q 768 339 726 215 l 608 339 l 608 535 l 1142 535 l 1142 339 z "},"Ģ":{"ha":1156,"x_min":25,"x_max":1142,"o":"m 1142 339 l 1065 339 q 894 65 1025 161 q 553 -31 763 -31 q 277 35 397 -31 q 91 218 157 101 q 25 483 25 335 q 92 751 26 633 q 281 936 158 869 q 567 1003 403 1003 q 817 960 707 1003 q 990 840 926 917 q 1061 663 1054 763 l 747 663 q 688 741 736 711 q 568 771 640 771 q 390 695 453 771 q 326 493 326 619 q 392 292 326 369 q 565 215 457 215 q 768 339 726 215 l 608 339 l 608 535 l 1142 535 l 1142 339 m 503 -244 q 576 -229 556 -244 q 594 -210 589 -221 q 601 -182 599 -200 q 556 -201 589 -201 q 497 -180 518 -201 q 475 -124 475 -158 q 499 -65 475 -87 q 563 -43 524 -43 q 642 -72 611 -43 q 672 -151 672 -100 q 629 -263 672 -225 q 503 -303 586 -301 l 503 -244 z "},"Ġ":{"ha":1156,"x_min":25,"x_max":1142,"o":"m 564 1024 q 485 1056 515 1024 q 454 1133 454 1088 q 485 1213 454 1181 q 564 1244 515 1244 q 644 1213 613 1244 q 675 1133 675 1181 q 644 1056 675 1088 q 564 1024 613 1024 m 1142 339 l 1065 339 q 894 65 1025 161 q 553 -31 763 -31 q 277 35 397 -31 q 91 218 157 101 q 25 483 25 335 q 92 751 26 633 q 281 936 158 869 q 567 1003 403 1003 q 817 960 707 1003 q 990 840 926 917 q 1061 663 1054 763 l 747 663 q 688 741 736 711 q 568 771 640 771 q 390 695 453 771 q 326 493 326 619 q 392 292 326 369 q 565 215 457 215 q 768 339 726 215 l 608 339 l 608 535 l 1142 535 l 1142 339 z "},"Ħ":{"ha":1021,"x_min":38,"x_max":983,"o":"m 983 721 l 935 721 l 935 0 l 646 0 l 646 363 l 375 363 l 375 0 l 86 0 l 86 721 l 38 721 l 38 831 l 86 831 l 86 972 l 375 972 l 375 831 l 646 831 l 646 972 l 935 972 l 935 831 l 983 831 l 983 721 m 646 721 l 375 721 l 375 603 l 646 603 l 646 721 z "},"Ĥ":{"ha":1021,"x_min":86,"x_max":935,"o":"m 707 1099 l 615 1013 l 510 1096 l 403 1013 l 311 1099 l 510 1243 l 707 1099 m 86 972 l 375 972 l 375 603 l 646 603 l 646 972 l 935 972 l 935 0 l 646 0 l 646 363 l 375 363 l 375 0 l 86 0 l 86 972 z "},"Í":{"ha":461,"x_min":51,"x_max":410,"o":"m 51 1126 l 349 1253 l 410 1136 l 111 1010 l 51 1126 m 86 972 l 375 972 l 375 0 l 86 0 l 86 972 z "},"Ĭ":{"ha":461,"x_min":28,"x_max":433,"o":"m 231 1017 q 85 1067 143 1017 q 28 1228 28 1117 l 160 1228 q 179 1153 161 1178 q 231 1128 197 1128 q 281 1153 263 1128 q 301 1228 300 1178 l 433 1228 q 376 1067 433 1117 q 231 1017 318 1017 m 86 972 l 375 972 l 375 0 l 86 0 l 86 972 z "},"Î":{"ha":461,"x_min":40,"x_max":426,"o":"m 233 1096 l 117 1001 l 40 1085 l 233 1243 l 426 1085 l 342 1001 l 233 1096 m 86 972 l 375 972 l 375 0 l 86 0 l 86 972 z "},"Ï":{"ha":461,"x_min":-4,"x_max":467,"o":"m 107 1017 q 28 1048 61 1017 q -4 1122 -4 1079 q 28 1199 -4 1168 q 107 1229 61 1229 q 187 1199 156 1229 q 218 1122 218 1168 q 187 1047 218 1078 q 107 1017 156 1017 m 354 1017 q 277 1047 308 1017 q 246 1122 246 1078 q 276 1199 246 1168 q 354 1229 307 1229 q 434 1199 401 1229 q 467 1122 467 1168 q 434 1047 467 1078 q 354 1017 401 1017 m 86 972 l 375 972 l 375 0 l 86 0 l 86 972 z "},"İ":{"ha":461,"x_min":86,"x_max":375,"o":"m 231 1024 q 151 1056 182 1024 q 121 1133 121 1088 q 151 1213 121 1181 q 231 1244 182 1244 q 310 1213 279 1244 q 342 1133 342 1181 q 310 1056 342 1088 q 231 1024 279 1024 m 86 972 l 375 972 l 375 0 l 86 0 l 86 972 z "},"Ì":{"ha":461,"x_min":54,"x_max":406,"o":"m 54 1129 l 114 1249 l 406 1129 l 346 1010 l 54 1129 m 86 972 l 375 972 l 375 0 l 86 0 l 86 972 z "},"Ĳ":{"ha":1322,"x_min":86,"x_max":1263,"o":"m 86 972 l 375 972 l 375 0 l 86 0 l 86 972 m 868 -26 q 649 23 738 -26 q 518 158 561 72 q 475 354 475 243 l 764 354 q 790 252 764 289 q 868 215 817 215 q 947 250 921 215 q 972 344 972 285 l 972 972 l 1263 972 l 1263 372 q 1159 72 1263 171 q 868 -26 1056 -26 z "},"Ī":{"ha":461,"x_min":60,"x_max":401,"o":"m 60 1204 l 401 1204 l 401 1061 l 60 1061 l 60 1204 m 86 972 l 375 972 l 375 0 l 86 0 l 86 972 z "},"Į":{"ha":461,"x_min":19,"x_max":375,"o":"m 86 972 l 375 972 l 375 0 l 86 0 l 86 972 m 218 -279 q 72 -240 124 -279 q 19 -142 19 -201 q 111 0 19 -51 l 375 0 q 267 -28 299 -3 q 236 -86 236 -53 q 255 -130 236 -112 q 304 -147 274 -147 q 371 -131 339 -147 l 371 -253 q 300 -274 333 -268 q 218 -279 267 -279 z "},"Ĩ":{"ha":461,"x_min":35,"x_max":426,"o":"m 308 1029 q 267 1038 285 1029 q 222 1064 249 1047 q 188 1085 203 1078 q 158 1093 174 1093 q 83 1038 121 1093 l 35 1133 q 94 1208 67 1189 q 147 1226 121 1226 q 188 1217 169 1226 q 232 1192 206 1208 q 268 1169 253 1176 q 299 1163 283 1163 q 334 1172 318 1163 q 381 1213 350 1181 l 426 1114 q 367 1047 399 1065 q 308 1029 336 1029 m 86 972 l 375 972 l 375 0 l 86 0 l 86 972 z "},"Ĵ":{"ha":861,"x_min":14,"x_max":853,"o":"m 660 1096 l 543 1001 l 467 1085 l 660 1243 l 853 1085 l 768 1001 l 660 1096 m 407 -26 q 188 23 276 -26 q 57 158 100 72 q 14 354 14 243 l 303 354 q 329 252 303 289 q 407 215 356 215 q 485 250 460 215 q 511 344 511 285 l 511 972 l 801 972 l 801 372 q 698 72 801 171 q 407 -26 594 -26 z "},"Ķ":{"ha":994,"x_min":86,"x_max":985,"o":"m 639 489 l 985 0 l 653 0 l 375 422 l 375 0 l 86 0 l 86 972 l 375 972 l 375 550 l 653 972 l 985 972 l 639 489 m 429 -244 q 503 -229 482 -244 q 520 -210 515 -221 q 528 -182 525 -200 q 482 -201 515 -201 q 423 -180 444 -201 q 401 -124 401 -158 q 426 -65 401 -87 q 489 -43 450 -43 q 568 -72 538 -43 q 599 -151 599 -100 q 556 -263 599 -225 q 429 -303 513 -301 l 429 -244 z "},"Ĺ":{"ha":757,"x_min":51,"x_max":706,"o":"m 51 1126 l 349 1253 l 410 1136 l 111 1010 l 51 1126 m 86 972 l 375 972 l 375 249 l 706 249 l 706 0 l 86 0 l 86 972 z "},"Ľ":{"ha":757,"x_min":86,"x_max":706,"o":"m 86 972 l 375 972 l 375 249 l 706 249 l 706 0 l 86 0 l 86 972 m 513 706 q 485 707 494 706 l 485 765 q 508 764 494 764 q 575 789 554 764 q 589 844 589 808 q 567 831 582 836 q 535 825 553 825 q 480 849 501 825 q 458 910 458 872 q 483 972 458 949 q 550 996 508 996 q 632 963 601 996 q 663 867 663 929 q 623 749 663 792 q 513 706 583 706 z "},"Ļ":{"ha":757,"x_min":86,"x_max":706,"o":"m 86 972 l 375 972 l 375 249 l 706 249 l 706 0 l 86 0 l 86 972 m 339 -244 q 413 -229 392 -244 q 430 -210 425 -221 q 438 -182 435 -200 q 392 -201 425 -201 q 333 -180 354 -201 q 311 -124 311 -158 q 335 -65 311 -87 q 399 -43 360 -43 q 478 -72 447 -43 q 508 -151 508 -100 q 465 -263 508 -225 q 339 -303 422 -301 l 339 -244 z "},"Ŀ":{"ha":757,"x_min":86,"x_max":775,"o":"m 86 972 l 375 972 l 375 249 l 706 249 l 706 0 l 86 0 l 86 972 m 601 403 q 479 453 529 403 q 429 574 429 503 q 479 694 429 644 q 601 743 529 743 q 725 694 675 743 q 775 574 775 644 q 725 453 775 503 q 601 403 675 403 z "},"Ł":{"ha":735,"x_min":26,"x_max":706,"o":"m 706 249 l 706 0 l 86 0 l 86 351 l 26 321 l 26 463 l 86 493 l 86 972 l 375 972 l 375 638 l 538 718 l 538 576 l 375 496 l 375 249 l 706 249 z "},"Ń":{"ha":1031,"x_min":86,"x_max":944,"o":"m 351 1129 l 665 1249 l 719 1129 l 406 1010 l 351 1129 m 86 972 l 378 972 l 667 419 l 667 972 l 944 972 l 944 0 l 653 0 l 364 553 l 364 0 l 86 0 l 86 972 z "},"Ň":{"ha":1031,"x_min":86,"x_max":944,"o":"m 336 1164 l 428 1250 l 533 1167 l 640 1250 l 732 1164 l 533 1019 l 336 1164 m 86 972 l 378 972 l 667 419 l 667 972 l 944 972 l 944 0 l 653 0 l 364 553 l 364 0 l 86 0 l 86 972 z "},"Ņ":{"ha":1031,"x_min":86,"x_max":944,"o":"m 86 972 l 378 972 l 667 419 l 667 972 l 944 972 l 944 0 l 653 0 l 364 553 l 364 0 l 86 0 l 86 972 m 472 -244 q 546 -229 525 -244 q 563 -210 558 -221 q 571 -182 568 -200 q 525 -201 558 -201 q 466 -180 488 -201 q 444 -124 444 -158 q 469 -65 444 -87 q 532 -43 493 -43 q 611 -72 581 -43 q 642 -151 642 -100 q 599 -263 642 -225 q 472 -303 556 -301 l 472 -244 z "},"Ñ":{"ha":1031,"x_min":86,"x_max":944,"o":"m 650 1017 q 590 1028 619 1017 q 515 1060 560 1039 q 462 1085 483 1076 q 421 1093 440 1093 q 365 1078 389 1093 q 310 1029 342 1064 l 236 1122 q 326 1210 286 1188 q 401 1232 367 1232 q 461 1221 431 1232 q 533 1189 492 1210 q 592 1163 569 1171 q 635 1154 615 1154 q 691 1165 667 1154 q 761 1215 715 1176 l 829 1117 q 738 1036 786 1056 q 650 1017 690 1017 m 86 972 l 378 972 l 667 419 l 667 972 l 944 972 l 944 0 l 653 0 l 364 553 l 364 0 l 86 0 l 86 972 z "},"Ŋ":{"ha":1031,"x_min":86,"x_max":944,"o":"m 944 972 l 944 -35 q 872 -215 944 -158 q 657 -272 799 -272 q 533 -254 588 -272 l 533 -74 q 594 -78 567 -78 q 640 -65 625 -78 q 656 -18 656 -51 l 656 0 l 653 0 l 364 553 l 364 0 l 86 0 l 86 972 l 378 972 l 667 419 l 667 972 l 944 972 z "},"Ó":{"ha":1124,"x_min":25,"x_max":1097,"o":"m 379 1129 l 693 1249 l 747 1129 l 433 1010 l 379 1129 m 561 -31 q 276 40 397 -31 q 90 228 154 110 q 25 486 25 346 q 90 744 25 626 q 276 933 154 863 q 561 1003 397 1003 q 847 933 725 1003 q 1033 744 968 863 q 1097 486 1097 626 q 1033 228 1097 346 q 847 40 968 110 q 561 -31 725 -31 m 561 228 q 734 301 672 228 q 796 482 796 374 q 735 669 796 594 q 561 744 675 744 q 388 670 450 744 q 326 486 326 596 q 388 302 326 376 q 561 228 450 228 z "},"Ŏ":{"ha":1124,"x_min":25,"x_max":1097,"o":"m 561 1024 q 382 1080 454 1024 q 304 1224 310 1136 l 444 1224 q 483 1159 450 1181 q 561 1138 515 1138 q 640 1159 607 1138 q 678 1224 672 1181 l 818 1224 q 740 1080 813 1136 q 561 1024 668 1024 m 561 -31 q 276 40 397 -31 q 90 228 154 110 q 25 486 25 346 q 90 744 25 626 q 276 933 154 863 q 561 1003 397 1003 q 847 933 725 1003 q 1033 744 968 863 q 1097 486 1097 626 q 1033 228 1097 346 q 847 40 968 110 q 561 -31 725 -31 m 561 228 q 734 301 672 228 q 796 482 796 374 q 735 669 796 594 q 561 744 675 744 q 388 670 450 744 q 326 486 326 596 q 388 302 326 376 q 561 228 450 228 z "},"Ô":{"ha":1124,"x_min":25,"x_max":1097,"o":"m 757 1099 l 665 1013 l 560 1096 l 453 1013 l 361 1099 l 560 1243 l 757 1099 m 561 -31 q 276 40 397 -31 q 90 228 154 110 q 25 486 25 346 q 90 744 25 626 q 276 933 154 863 q 561 1003 397 1003 q 847 933 725 1003 q 1033 744 968 863 q 1097 486 1097 626 q 1033 228 1097 346 q 847 40 968 110 q 561 -31 725 -31 m 561 228 q 734 301 672 228 q 796 482 796 374 q 735 669 796 594 q 561 744 675 744 q 388 670 450 744 q 326 486 326 596 q 388 302 326 376 q 561 228 450 228 z "},"Ö":{"ha":1124,"x_min":25,"x_max":1097,"o":"m 399 1013 q 313 1047 349 1013 q 278 1128 278 1081 q 313 1211 278 1176 q 399 1246 347 1246 q 485 1212 450 1246 q 519 1128 519 1178 q 485 1047 519 1081 q 399 1013 450 1013 m 722 1013 q 638 1047 672 1013 q 604 1128 604 1081 q 638 1212 604 1178 q 722 1246 672 1246 q 809 1211 774 1246 q 844 1128 844 1176 q 809 1047 844 1081 q 722 1013 774 1013 m 561 -31 q 276 40 397 -31 q 90 228 154 110 q 25 486 25 346 q 90 744 25 626 q 276 933 154 863 q 561 1003 397 1003 q 847 933 725 1003 q 1033 744 968 863 q 1097 486 1097 626 q 1033 228 1097 346 q 847 40 968 110 q 561 -31 725 -31 m 561 228 q 734 301 672 228 q 796 482 796 374 q 735 669 796 594 q 561 744 675 744 q 388 670 450 744 q 326 486 326 596 q 388 302 326 376 q 561 228 450 228 z "},"Œ":{"ha":1268,"x_min":25,"x_max":1192,"o":"m 914 756 l 914 586 l 1192 586 l 1192 379 l 914 379 l 914 217 l 1192 217 l 1192 0 l 525 0 q 260 66 374 0 q 85 243 146 132 q 25 486 25 354 q 85 729 25 618 q 260 906 146 840 q 525 972 374 972 l 1192 972 l 1192 756 l 914 756 m 624 239 l 624 733 l 553 733 q 386 663 446 733 q 326 486 326 592 q 386 310 326 381 q 553 239 446 239 l 624 239 z "},"Ò":{"ha":1124,"x_min":25,"x_max":1097,"o":"m 375 1129 l 429 1249 l 743 1129 l 689 1010 l 375 1129 m 561 -31 q 276 40 397 -31 q 90 228 154 110 q 25 486 25 346 q 90 744 25 626 q 276 933 154 863 q 561 1003 397 1003 q 847 933 725 1003 q 1033 744 968 863 q 1097 486 1097 626 q 1033 228 1097 346 q 847 40 968 110 q 561 -31 725 -31 m 561 228 q 734 301 672 228 q 796 482 796 374 q 735 669 796 594 q 561 744 675 744 q 388 670 450 744 q 326 486 326 596 q 388 302 326 376 q 561 228 450 228 z "},"Ő":{"ha":1124,"x_min":25,"x_max":1097,"o":"m 353 1064 l 550 1246 l 701 1190 l 446 1026 l 353 1064 m 621 1064 l 817 1246 l 967 1186 l 713 1025 l 621 1064 m 561 -31 q 276 40 397 -31 q 90 228 154 110 q 25 486 25 346 q 90 744 25 626 q 276 933 154 863 q 561 1003 397 1003 q 847 933 725 1003 q 1033 744 968 863 q 1097 486 1097 626 q 1033 228 1097 346 q 847 40 968 110 q 561 -31 725 -31 m 561 228 q 734 301 672 228 q 796 482 796 374 q 735 669 796 594 q 561 744 675 744 q 388 670 450 744 q 326 486 326 596 q 388 302 326 376 q 561 228 450 228 z "},"Ō":{"ha":1124,"x_min":25,"x_max":1097,"o":"m 281 1190 l 842 1190 l 842 1051 l 281 1051 l 281 1190 m 561 -31 q 276 40 397 -31 q 90 228 154 110 q 25 486 25 346 q 90 744 25 626 q 276 933 154 863 q 561 1003 397 1003 q 847 933 725 1003 q 1033 744 968 863 q 1097 486 1097 626 q 1033 228 1097 346 q 847 40 968 110 q 561 -31 725 -31 m 561 228 q 734 301 672 228 q 796 482 796 374 q 735 669 796 594 q 561 744 675 744 q 388 670 450 744 q 326 486 326 596 q 388 302 326 376 q 561 228 450 228 z "},"Ø":{"ha":1124,"x_min":25,"x_max":1097,"o":"m 828 943 q 1026 756 956 878 q 1097 486 1097 633 q 1033 228 1097 346 q 847 40 968 110 q 561 -31 725 -31 q 407 -12 483 -31 l 358 -122 l 256 -78 l 301 26 q 97 215 169 92 q 25 486 25 338 q 90 744 25 626 q 276 933 154 863 q 561 1003 397 1003 q 726 982 651 1003 l 776 1094 l 875 1050 l 828 943 m 326 486 q 349 367 326 421 q 414 278 371 313 l 618 739 q 561 744 594 744 q 388 670 450 744 q 326 486 326 596 m 561 228 q 734 301 672 228 q 796 482 796 374 q 776 600 796 546 q 717 690 756 654 l 514 232 q 561 228 538 228 z "},"Ǿ":{"ha":1124,"x_min":25,"x_max":1097,"o":"m 436 1010 l 382 1129 l 696 1249 l 750 1129 l 436 1010 m 828 943 q 1026 756 956 878 q 1097 486 1097 633 q 1033 228 1097 346 q 847 40 968 110 q 561 -31 725 -31 q 407 -12 483 -31 l 358 -122 l 256 -78 l 301 26 q 97 215 169 92 q 25 486 25 338 q 90 744 25 626 q 276 933 154 863 q 561 1003 397 1003 q 726 982 651 1003 l 776 1094 l 875 1050 l 828 943 m 326 486 q 349 367 326 421 q 414 278 371 313 l 618 739 q 561 744 594 744 q 388 670 450 744 q 326 486 326 596 m 561 228 q 734 301 672 228 q 796 482 796 374 q 776 600 796 546 q 717 690 756 654 l 514 232 q 561 228 538 228 z "},"Õ":{"ha":1124,"x_min":25,"x_max":1097,"o":"m 678 1017 q 617 1028 647 1017 q 543 1060 588 1039 q 490 1085 511 1076 q 449 1093 468 1093 q 393 1078 417 1093 q 338 1029 369 1064 l 264 1122 q 354 1210 314 1188 q 429 1232 394 1232 q 489 1221 458 1232 q 561 1189 519 1210 q 620 1163 597 1171 q 663 1154 643 1154 q 719 1165 694 1154 q 789 1215 743 1176 l 857 1117 q 766 1036 814 1056 q 678 1017 718 1017 m 561 -31 q 276 40 397 -31 q 90 228 154 110 q 25 486 25 346 q 90 744 25 626 q 276 933 154 863 q 561 1003 397 1003 q 847 933 725 1003 q 1033 744 968 863 q 1097 486 1097 626 q 1033 228 1097 346 q 847 40 968 110 q 561 -31 725 -31 m 561 228 q 734 301 672 228 q 796 482 796 374 q 735 669 796 594 q 561 744 675 744 q 388 670 450 744 q 326 486 326 596 q 388 302 326 376 q 561 228 450 228 z "},"Ŕ":{"ha":961,"x_min":86,"x_max":917,"o":"m 351 1010 l 297 1129 l 611 1249 l 665 1129 l 351 1010 m 917 610 q 874 433 917 513 q 757 306 832 353 l 913 0 l 581 0 l 456 249 l 375 249 l 375 0 l 86 0 l 86 972 l 556 972 q 741 925 658 972 q 870 795 824 878 q 917 610 917 713 m 375 472 l 494 472 q 587 511 550 472 q 624 610 624 550 q 587 708 624 669 q 496 747 550 747 l 375 747 l 375 472 z "},"Ř":{"ha":961,"x_min":86,"x_max":917,"o":"m 479 1019 l 282 1164 l 374 1250 l 479 1167 l 586 1250 l 678 1164 l 479 1019 m 917 610 q 874 433 917 513 q 757 306 832 353 l 913 0 l 581 0 l 456 249 l 375 249 l 375 0 l 86 0 l 86 972 l 556 972 q 741 925 658 972 q 870 795 824 878 q 917 610 917 713 m 375 472 l 494 472 q 587 511 550 472 q 624 610 624 550 q 587 708 624 669 q 496 747 550 747 l 375 747 l 375 472 z "},"Ŗ":{"ha":961,"x_min":86,"x_max":917,"o":"m 917 610 q 874 433 917 513 q 757 306 832 353 l 913 0 l 581 0 l 456 249 l 375 249 l 375 0 l 86 0 l 86 972 l 556 972 q 741 925 658 972 q 870 795 824 878 q 917 610 917 713 m 375 472 l 494 472 q 587 511 550 472 q 624 610 624 550 q 587 708 624 669 q 496 747 550 747 l 375 747 l 375 472 m 418 -244 q 492 -229 471 -244 q 509 -210 504 -221 q 517 -182 514 -200 q 471 -201 504 -201 q 412 -180 433 -201 q 390 -124 390 -158 q 415 -65 390 -87 q 478 -43 439 -43 q 557 -72 526 -43 q 588 -151 588 -100 q 544 -263 588 -225 q 418 -303 501 -301 l 418 -244 z "},"Ś":{"ha":849,"x_min":24,"x_max":822,"o":"m 233 1129 l 547 1249 l 601 1129 l 288 1010 l 233 1129 m 432 -31 q 133 62 242 -31 q 24 318 24 154 l 313 318 q 345 219 313 256 q 436 183 378 183 q 508 204 483 183 q 533 264 533 225 q 513 317 533 297 q 442 357 492 338 l 249 428 q 40 703 40 506 q 86 860 40 793 q 218 965 132 928 q 421 1003 304 1003 q 627 965 539 1003 q 763 858 715 928 q 811 692 811 788 l 522 692 q 495 776 522 746 q 418 806 468 806 q 354 786 378 806 q 331 732 331 767 q 354 681 331 703 q 438 638 378 660 l 615 569 q 772 458 722 528 q 822 289 822 389 q 774 119 822 192 q 638 8 726 47 q 432 -31 550 -31 z "},"Š":{"ha":849,"x_min":24,"x_max":822,"o":"m 218 1164 l 310 1250 l 415 1167 l 522 1250 l 614 1164 l 415 1019 l 218 1164 m 432 -31 q 133 62 242 -31 q 24 318 24 154 l 313 318 q 345 219 313 256 q 436 183 378 183 q 508 204 483 183 q 533 264 533 225 q 513 317 533 297 q 442 357 492 338 l 249 428 q 40 703 40 506 q 86 860 40 793 q 218 965 132 928 q 421 1003 304 1003 q 627 965 539 1003 q 763 858 715 928 q 811 692 811 788 l 522 692 q 495 776 522 746 q 418 806 468 806 q 354 786 378 806 q 331 732 331 767 q 354 681 331 703 q 438 638 378 660 l 615 569 q 772 458 722 528 q 822 289 822 389 q 774 119 822 192 q 638 8 726 47 q 432 -31 550 -31 z "},"Ş":{"ha":849,"x_min":24,"x_max":822,"o":"m 822 289 q 726 63 822 149 q 465 -29 631 -22 l 465 -82 q 525 -65 485 -65 q 603 -96 574 -65 q 633 -172 633 -126 q 596 -253 633 -219 q 493 -287 558 -287 q 394 -260 433 -287 q 351 -189 356 -233 l 451 -189 q 464 -208 453 -200 q 490 -215 475 -215 q 521 -203 510 -215 q 532 -168 532 -190 q 522 -137 532 -147 q 493 -126 511 -126 q 457 -144 467 -126 l 365 -144 l 365 -28 q 114 79 204 -11 q 24 318 24 169 l 313 318 q 345 219 313 256 q 436 183 378 183 q 508 204 483 183 q 533 264 533 225 q 513 317 533 297 q 442 357 492 338 l 249 428 q 40 703 40 506 q 86 860 40 793 q 218 965 132 928 q 421 1003 304 1003 q 627 965 539 1003 q 763 858 715 928 q 811 692 811 788 l 522 692 q 495 776 522 746 q 418 806 468 806 q 354 786 378 806 q 331 732 331 767 q 354 681 331 703 q 438 638 378 660 l 615 569 q 772 458 722 528 q 822 289 822 389 z "},"Ŝ":{"ha":849,"x_min":24,"x_max":822,"o":"m 611 1099 l 519 1013 l 414 1096 l 307 1013 l 215 1099 l 414 1243 l 611 1099 m 432 -31 q 133 62 242 -31 q 24 318 24 154 l 313 318 q 345 219 313 256 q 436 183 378 183 q 508 204 483 183 q 533 264 533 225 q 513 317 533 297 q 442 357 492 338 l 249 428 q 40 703 40 506 q 86 860 40 793 q 218 965 132 928 q 421 1003 304 1003 q 627 965 539 1003 q 763 858 715 928 q 811 692 811 788 l 522 692 q 495 776 522 746 q 418 806 468 806 q 354 786 378 806 q 331 732 331 767 q 354 681 331 703 q 438 638 378 660 l 615 569 q 772 458 722 528 q 822 289 822 389 q 774 119 822 192 q 638 8 726 47 q 432 -31 550 -31 z "},"Ș":{"ha":849,"x_min":24,"x_max":822,"o":"m 432 -31 q 133 62 242 -31 q 24 318 24 154 l 313 318 q 345 219 313 256 q 436 183 378 183 q 508 204 483 183 q 533 264 533 225 q 513 317 533 297 q 442 357 492 338 l 249 428 q 40 703 40 506 q 86 860 40 793 q 218 965 132 928 q 421 1003 304 1003 q 627 965 539 1003 q 763 858 715 928 q 811 692 811 788 l 522 692 q 495 776 522 746 q 418 806 468 806 q 354 786 378 806 q 331 732 331 767 q 354 681 331 703 q 438 638 378 660 l 615 569 q 772 458 722 528 q 822 289 822 389 q 774 119 822 192 q 638 8 726 47 q 432 -31 550 -31 m 354 -244 q 428 -229 407 -244 q 445 -210 440 -221 q 453 -182 450 -200 q 407 -201 440 -201 q 348 -180 369 -201 q 326 -124 326 -158 q 351 -65 326 -87 q 414 -43 375 -43 q 493 -72 463 -43 q 524 -151 524 -100 q 481 -263 524 -225 q 354 -303 438 -301 l 354 -244 z "},"Ŧ":{"ha":804,"x_min":7,"x_max":797,"o":"m 547 724 l 547 565 l 706 565 l 706 433 l 547 433 l 547 0 l 257 0 l 257 433 l 100 433 l 100 565 l 257 565 l 257 724 l 7 724 l 7 972 l 797 972 l 797 724 l 547 724 z "},"Ť":{"ha":804,"x_min":7,"x_max":797,"o":"m 206 1164 l 297 1250 l 403 1167 l 510 1250 l 601 1164 l 403 1019 l 206 1164 m 257 724 l 7 724 l 7 972 l 797 972 l 797 724 l 547 724 l 547 0 l 257 0 l 257 724 z "},"Ţ":{"ha":804,"x_min":7,"x_max":797,"o":"m 453 0 l 453 -82 q 513 -65 472 -65 q 591 -96 561 -65 q 621 -172 621 -126 q 583 -253 621 -219 q 481 -287 546 -287 q 382 -260 421 -287 q 339 -189 343 -233 l 439 -189 q 451 -208 440 -200 q 478 -215 463 -215 q 508 -203 497 -215 q 519 -168 519 -190 q 509 -137 519 -147 q 481 -126 499 -126 q 444 -144 454 -126 l 353 -144 l 353 0 l 257 0 l 257 724 l 7 724 l 7 972 l 797 972 l 797 724 l 547 724 l 547 0 l 453 0 z "},"Ț":{"ha":804,"x_min":7,"x_max":797,"o":"m 257 724 l 7 724 l 7 972 l 797 972 l 797 724 l 547 724 l 547 0 l 257 0 l 257 724 m 342 -244 q 415 -229 394 -244 q 433 -210 428 -221 q 440 -182 438 -200 q 394 -201 428 -201 q 335 -180 357 -201 q 314 -124 314 -158 q 338 -65 314 -87 q 401 -43 363 -43 q 481 -72 450 -43 q 511 -151 511 -100 q 468 -263 511 -225 q 342 -303 425 -301 l 342 -244 z "},"Þ":{"ha":926,"x_min":86,"x_max":918,"o":"m 556 849 q 746 799 664 849 q 873 667 828 750 q 918 486 918 585 q 873 306 918 389 q 746 174 828 224 q 556 125 664 125 l 375 125 l 375 0 l 86 0 l 86 972 l 375 972 l 375 849 l 556 849 m 494 349 q 588 388 551 349 q 624 486 624 428 q 588 584 624 544 q 496 624 553 624 l 375 624 l 375 349 l 494 349 z "},"Ú":{"ha":968,"x_min":60,"x_max":908,"o":"m 303 1129 l 617 1249 l 671 1129 l 357 1010 l 303 1129 m 485 -26 q 260 17 356 -26 q 112 143 164 61 q 60 338 60 225 l 60 972 l 350 972 l 350 356 q 387 255 350 292 q 485 218 424 218 q 583 256 546 218 q 619 356 619 293 l 619 972 l 908 972 l 908 338 q 856 143 908 225 q 709 17 804 61 q 485 -26 614 -26 z "},"Ŭ":{"ha":968,"x_min":60,"x_max":908,"o":"m 485 1024 q 306 1080 378 1024 q 228 1224 233 1136 l 368 1224 q 406 1159 374 1181 q 485 1138 439 1138 q 563 1159 531 1138 q 601 1224 596 1181 l 742 1224 q 664 1080 736 1136 q 485 1024 592 1024 m 485 -26 q 260 17 356 -26 q 112 143 164 61 q 60 338 60 225 l 60 972 l 350 972 l 350 356 q 387 255 350 292 q 485 218 424 218 q 583 256 546 218 q 619 356 619 293 l 619 972 l 908 972 l 908 338 q 856 143 908 225 q 709 17 804 61 q 485 -26 614 -26 z "},"Û":{"ha":968,"x_min":60,"x_max":908,"o":"m 681 1099 l 589 1013 l 483 1096 l 376 1013 l 285 1099 l 483 1243 l 681 1099 m 485 -26 q 260 17 356 -26 q 112 143 164 61 q 60 338 60 225 l 60 972 l 350 972 l 350 356 q 387 255 350 292 q 485 218 424 218 q 583 256 546 218 q 619 356 619 293 l 619 972 l 908 972 l 908 338 q 856 143 908 225 q 709 17 804 61 q 485 -26 614 -26 z "},"Ü":{"ha":968,"x_min":60,"x_max":908,"o":"m 322 1013 q 237 1047 272 1013 q 201 1128 201 1081 q 236 1211 201 1176 q 322 1246 271 1246 q 408 1212 374 1246 q 443 1128 443 1178 q 408 1047 443 1081 q 322 1013 374 1013 m 646 1013 q 562 1047 596 1013 q 528 1128 528 1081 q 562 1212 528 1178 q 646 1246 596 1246 q 733 1211 697 1246 q 768 1128 768 1176 q 733 1047 768 1081 q 646 1013 697 1013 m 485 -26 q 260 17 356 -26 q 112 143 164 61 q 60 338 60 225 l 60 972 l 350 972 l 350 356 q 387 255 350 292 q 485 218 424 218 q 583 256 546 218 q 619 356 619 293 l 619 972 l 908 972 l 908 338 q 856 143 908 225 q 709 17 804 61 q 485 -26 614 -26 z "},"Ù":{"ha":968,"x_min":60,"x_max":908,"o":"m 299 1129 l 353 1249 l 667 1129 l 613 1010 l 299 1129 m 485 -26 q 260 17 356 -26 q 112 143 164 61 q 60 338 60 225 l 60 972 l 350 972 l 350 356 q 387 255 350 292 q 485 218 424 218 q 583 256 546 218 q 619 356 619 293 l 619 972 l 908 972 l 908 338 q 856 143 908 225 q 709 17 804 61 q 485 -26 614 -26 z "},"Ű":{"ha":968,"x_min":60,"x_max":908,"o":"m 276 1064 l 474 1246 l 625 1190 l 369 1026 l 276 1064 m 544 1064 l 740 1246 l 890 1186 l 636 1025 l 544 1064 m 485 -26 q 260 17 356 -26 q 112 143 164 61 q 60 338 60 225 l 60 972 l 350 972 l 350 356 q 387 255 350 292 q 485 218 424 218 q 583 256 546 218 q 619 356 619 293 l 619 972 l 908 972 l 908 338 q 856 143 908 225 q 709 17 804 61 q 485 -26 614 -26 z "},"Ū":{"ha":968,"x_min":60,"x_max":908,"o":"m 204 1190 l 765 1190 l 765 1051 l 204 1051 l 204 1190 m 485 -26 q 260 17 356 -26 q 112 143 164 61 q 60 338 60 225 l 60 972 l 350 972 l 350 356 q 387 255 350 292 q 485 218 424 218 q 583 256 546 218 q 619 356 619 293 l 619 972 l 908 972 l 908 338 q 856 143 908 225 q 709 17 804 61 q 485 -26 614 -26 z "},"Ų":{"ha":968,"x_min":60,"x_max":908,"o":"m 908 972 l 908 338 q 844 125 908 213 q 665 0 781 38 l 667 0 l 664 0 q 571 -21 619 -15 q 528 -86 528 -44 q 547 -130 528 -112 q 596 -147 565 -147 q 663 -131 631 -147 l 663 -253 q 592 -274 625 -268 q 510 -279 558 -279 q 363 -240 415 -279 q 311 -142 311 -201 q 375 -18 311 -67 q 143 101 226 8 q 60 338 60 193 l 60 972 l 350 972 l 350 356 q 387 255 350 292 q 485 218 424 218 q 583 256 546 218 q 619 356 619 293 l 619 972 l 908 972 z "},"Ů":{"ha":968,"x_min":60,"x_max":908,"o":"m 485 943 q 369 988 417 943 q 321 1097 321 1033 q 369 1205 321 1160 q 485 1250 417 1250 q 601 1205 553 1250 q 649 1097 649 1160 q 601 988 649 1033 q 485 943 553 943 m 485 1031 q 533 1049 514 1031 q 553 1097 553 1068 q 533 1144 553 1125 q 485 1164 514 1164 q 436 1144 456 1164 q 417 1097 417 1125 q 436 1049 417 1068 q 485 1031 456 1031 m 485 -26 q 260 17 356 -26 q 112 143 164 61 q 60 338 60 225 l 60 972 l 350 972 l 350 356 q 387 255 350 292 q 485 218 424 218 q 583 256 546 218 q 619 356 619 293 l 619 972 l 908 972 l 908 338 q 856 143 908 225 q 709 17 804 61 q 485 -26 614 -26 z "},"Ũ":{"ha":968,"x_min":60,"x_max":908,"o":"m 601 1017 q 541 1028 571 1017 q 467 1060 511 1039 q 413 1085 435 1076 q 372 1093 392 1093 q 317 1078 340 1093 q 261 1029 293 1064 l 188 1122 q 278 1210 238 1188 q 353 1232 318 1232 q 413 1221 382 1232 q 485 1189 443 1210 q 544 1163 521 1171 q 586 1154 567 1154 q 642 1165 618 1154 q 713 1215 667 1176 l 781 1117 q 690 1036 738 1056 q 601 1017 642 1017 m 485 -26 q 260 17 356 -26 q 112 143 164 61 q 60 338 60 225 l 60 972 l 350 972 l 350 356 q 387 255 350 292 q 485 218 424 218 q 583 256 546 218 q 619 356 619 293 l 619 972 l 908 972 l 908 338 q 856 143 908 225 q 709 17 804 61 q 485 -26 614 -26 z "},"Ẃ":{"ha":1510,"x_min":-10,"x_max":1519,"o":"m 574 1129 l 888 1249 l 942 1129 l 628 1010 l 574 1129 m -10 972 l 297 972 l 472 386 l 640 972 l 869 972 l 1038 386 l 1213 972 l 1519 972 l 1169 0 l 917 0 l 756 529 l 593 0 l 340 0 l -10 972 z "},"Ŵ":{"ha":1510,"x_min":-10,"x_max":1519,"o":"m 951 1099 l 860 1013 l 754 1096 l 647 1013 l 556 1099 l 754 1243 l 951 1099 m -10 972 l 297 972 l 472 386 l 640 972 l 869 972 l 1038 386 l 1213 972 l 1519 972 l 1169 0 l 917 0 l 756 529 l 593 0 l 340 0 l -10 972 z "},"Ẅ":{"ha":1510,"x_min":-10,"x_max":1519,"o":"m 593 1013 q 508 1047 543 1013 q 472 1128 472 1081 q 507 1211 472 1176 q 593 1246 542 1246 q 679 1212 644 1246 q 714 1128 714 1178 q 679 1047 714 1081 q 593 1013 644 1013 m 917 1013 q 833 1047 867 1013 q 799 1128 799 1081 q 833 1212 799 1178 q 917 1246 867 1246 q 1003 1211 968 1246 q 1039 1128 1039 1176 q 1003 1047 1039 1081 q 917 1013 968 1013 m -10 972 l 297 972 l 472 386 l 640 972 l 869 972 l 1038 386 l 1213 972 l 1519 972 l 1169 0 l 917 0 l 756 529 l 593 0 l 340 0 l -10 972 z "},"Ẁ":{"ha":1510,"x_min":-10,"x_max":1519,"o":"m 569 1129 l 624 1249 l 938 1129 l 883 1010 l 569 1129 m -10 972 l 297 972 l 472 386 l 640 972 l 869 972 l 1038 386 l 1213 972 l 1519 972 l 1169 0 l 917 0 l 756 529 l 593 0 l 340 0 l -10 972 z "},"Ý":{"ha":921,"x_min":-17,"x_max":949,"o":"m 346 1010 l 292 1129 l 606 1249 l 660 1129 l 346 1010 m 949 972 l 467 0 l 143 0 l 310 342 l -17 972 l 324 972 l 478 625 l 626 972 l 949 972 z "},"Ŷ":{"ha":921,"x_min":-17,"x_max":949,"o":"m 365 1013 l 274 1099 l 472 1243 l 669 1099 l 578 1013 l 472 1096 l 365 1013 m 949 972 l 467 0 l 143 0 l 310 342 l -17 972 l 324 972 l 478 625 l 626 972 l 949 972 z "},"Ÿ":{"ha":921,"x_min":-17,"x_max":949,"o":"m 311 1013 q 226 1047 261 1013 q 190 1128 190 1081 q 225 1211 190 1176 q 311 1246 260 1246 q 397 1212 363 1246 q 432 1128 432 1178 q 397 1047 432 1081 q 311 1013 363 1013 m 635 1013 q 551 1047 585 1013 q 517 1128 517 1081 q 551 1212 517 1178 q 635 1246 585 1246 q 722 1211 686 1246 q 757 1128 757 1176 q 722 1047 757 1081 q 635 1013 686 1013 m 949 972 l 467 0 l 143 0 l 310 342 l -17 972 l 324 972 l 478 625 l 626 972 l 949 972 z "},"Ỳ":{"ha":921,"x_min":-17,"x_max":949,"o":"m 601 1010 l 288 1129 l 342 1249 l 656 1129 l 601 1010 m 949 972 l 467 0 l 143 0 l 310 342 l -17 972 l 324 972 l 478 625 l 626 972 l 949 972 z "},"Ź":{"ha":915,"x_min":10,"x_max":899,"o":"m 289 1129 l 603 1249 l 657 1129 l 343 1010 l 289 1129 m 450 736 l 69 736 l 69 972 l 899 972 l 461 236 l 868 236 l 868 0 l 10 0 l 450 736 z "},"Ž":{"ha":915,"x_min":10,"x_max":899,"o":"m 274 1164 l 365 1250 l 471 1167 l 578 1250 l 669 1164 l 471 1019 l 274 1164 m 450 736 l 69 736 l 69 972 l 899 972 l 461 236 l 868 236 l 868 0 l 10 0 l 450 736 z "},"Ż":{"ha":915,"x_min":10,"x_max":899,"o":"m 471 1024 q 392 1056 422 1024 q 361 1133 361 1088 q 392 1213 361 1181 q 471 1244 422 1244 q 551 1213 519 1244 q 582 1133 582 1181 q 551 1056 582 1088 q 471 1024 519 1024 m 450 736 l 69 736 l 69 972 l 899 972 l 461 236 l 868 236 l 868 0 l 10 0 l 450 736 z "},"a":{"ha":910,"x_min":31,"x_max":832,"o":"m 343 -19 q 178 27 249 -19 q 69 156 107 74 q 31 344 31 239 q 69 533 31 450 q 180 663 108 617 q 344 710 251 710 q 478 676 422 710 q 558 588 533 643 l 558 690 l 832 690 l 832 0 l 558 0 l 558 103 q 477 15 535 49 q 343 -19 419 -19 m 440 200 q 535 241 500 200 q 571 344 571 282 q 535 449 571 408 q 440 490 500 490 q 347 449 382 490 q 313 344 313 408 q 347 240 313 281 q 440 200 382 200 z "},"b":{"ha":910,"x_min":79,"x_max":881,"o":"m 572 710 q 732 665 663 710 q 841 536 801 619 q 881 344 881 453 q 841 155 881 238 q 730 26 801 72 q 568 -19 658 -19 q 433 16 490 -19 q 351 103 375 51 l 351 0 l 79 0 l 79 975 l 351 975 l 351 588 q 434 675 375 640 q 572 710 493 710 m 469 197 q 563 239 526 197 q 599 344 599 281 q 563 450 599 410 q 469 490 526 490 q 376 450 413 490 q 340 344 340 410 q 376 238 340 279 q 469 197 413 197 z "},"c":{"ha":822,"x_min":21,"x_max":801,"o":"m 417 -24 q 208 22 297 -24 q 69 152 118 68 q 21 346 21 236 q 69 540 21 456 q 208 669 118 624 q 417 715 297 715 q 609 678 525 715 q 743 574 693 642 q 801 415 793 506 l 529 415 q 417 490 511 490 q 326 452 358 490 q 293 346 293 414 q 326 240 293 278 q 417 201 358 201 q 529 275 510 201 l 801 275 q 684 57 788 138 q 417 -24 581 -24 z "},"d":{"ha":910,"x_min":31,"x_max":832,"o":"m 832 690 l 832 0 l 558 0 l 558 103 q 477 15 535 49 q 343 -19 419 -19 q 178 27 249 -19 q 69 156 107 74 q 31 344 31 239 q 69 533 31 450 q 180 663 108 617 q 344 710 251 710 q 478 676 422 710 q 558 588 533 643 l 558 972 l 831 972 l 831 690 l 832 690 m 440 200 q 535 241 500 200 q 571 344 571 282 q 535 449 571 408 q 440 490 500 490 q 347 449 382 490 q 313 344 313 408 q 347 240 313 281 q 440 200 382 200 z "},"e":{"ha":829,"x_min":21,"x_max":808,"o":"m 808 381 q 801 279 808 329 l 293 279 q 331 194 296 225 q 425 164 367 164 q 533 215 513 164 l 797 215 q 678 41 779 106 q 425 -24 576 -24 q 128 73 236 -24 q 21 344 21 169 q 70 542 21 458 q 210 671 119 626 q 419 715 300 715 q 622 673 533 715 q 759 554 710 631 q 808 381 808 478 m 536 429 q 504 518 535 486 q 417 550 474 550 q 328 517 361 550 q 293 429 296 483 l 536 429 z "},"f":{"ha":558,"x_min":18,"x_max":542,"o":"m 485 800 q 399 731 399 800 l 399 690 l 542 690 l 542 482 l 399 482 l 399 0 l 128 0 l 128 482 l 18 482 l 18 690 l 128 690 l 128 728 q 206 928 128 868 q 400 989 283 989 q 542 971 488 989 l 542 794 q 485 800 497 800 z "},"g":{"ha":911,"x_min":31,"x_max":832,"o":"m 832 690 l 832 63 q 795 -109 832 -36 q 690 -228 758 -182 q 436 -287 603 -287 q 293 -276 353 -287 q 182 -237 233 -265 q 84 -151 122 -206 q 46 -42 46 -97 l 321 -42 q 354 -87 326 -71 q 432 -103 382 -103 q 560 22 560 -103 l 560 131 q 478 47 538 79 q 347 15 418 15 q 180 59 251 15 q 69 181 108 103 q 31 358 31 258 q 70 541 31 461 q 182 665 110 621 q 349 710 254 710 q 480 676 422 710 q 560 588 538 643 l 560 690 l 832 690 m 442 208 q 536 250 501 208 q 571 354 571 292 q 536 458 571 417 q 442 500 501 500 q 349 459 385 500 q 313 354 313 418 q 349 249 313 290 q 442 208 385 208 z "},"h":{"ha":899,"x_min":79,"x_max":828,"o":"m 575 710 q 828 421 828 710 l 828 0 l 550 0 l 550 351 q 527 450 550 418 q 454 482 504 482 q 351 346 351 482 l 351 0 l 79 0 l 79 972 l 351 972 l 351 589 q 435 679 378 649 q 575 710 493 710 z "},"i":{"ha":431,"x_min":64,"x_max":367,"o":"m 79 690 l 351 690 l 351 0 l 79 0 l 79 690 m 215 714 q 107 758 150 714 q 64 863 64 801 q 107 968 64 925 q 215 1011 150 1011 q 323 968 279 1011 q 367 863 367 925 q 323 758 367 801 q 215 714 279 714 z "},"j":{"ha":432,"x_min":-17,"x_max":368,"o":"m 101 -272 q 40 -269 65 -272 q -17 -257 14 -265 l -17 -67 q 28 -71 8 -71 q 67 -56 54 -71 q 81 -8 81 -42 l 81 690 l 353 690 l 353 -17 q 288 -208 353 -144 q 101 -272 224 -272 m 217 714 q 108 758 151 714 q 65 863 65 801 q 108 968 65 925 q 217 1011 151 1011 q 324 968 281 1011 q 368 863 368 925 q 324 758 368 801 q 217 714 281 714 z "},"k":{"ha":881,"x_min":79,"x_max":860,"o":"m 539 0 l 351 286 l 351 0 l 79 0 l 79 972 l 351 972 l 351 418 l 543 690 l 851 690 l 600 367 l 860 0 l 539 0 z "},"l":{"ha":431,"x_min":79,"x_max":351,"o":"m 79 972 l 351 972 l 351 0 l 79 0 l 79 972 z "},"m":{"ha":1313,"x_min":79,"x_max":1240,"o":"m 79 690 l 351 690 l 351 589 q 427 678 375 646 q 556 710 479 710 q 771 579 718 710 q 860 675 800 640 q 997 710 919 710 q 1185 633 1131 710 q 1240 422 1240 556 l 1240 0 l 963 0 l 963 372 q 943 456 963 431 q 883 482 924 482 q 818 450 840 482 q 796 346 796 418 l 796 0 l 518 0 l 518 372 q 499 456 518 431 q 440 482 481 482 q 374 451 396 482 q 351 346 351 419 l 351 0 l 79 0 l 79 690 z "},"n":{"ha":899,"x_min":79,"x_max":828,"o":"m 79 690 l 351 690 l 351 589 q 435 679 378 649 q 575 710 493 710 q 828 421 828 710 l 828 0 l 550 0 l 550 351 q 527 450 550 418 q 454 482 504 482 q 351 346 351 482 l 351 0 l 79 0 l 79 690 z "},"o":{"ha":846,"x_min":21,"x_max":825,"o":"m 422 -24 q 210 23 301 -24 q 70 153 119 69 q 21 346 21 238 q 70 538 21 454 q 210 669 119 622 q 422 715 301 715 q 635 669 543 715 q 776 538 726 622 q 825 346 825 454 q 776 153 825 238 q 635 23 726 69 q 422 -24 543 -24 m 422 200 q 517 240 482 200 q 551 346 551 281 q 517 451 551 411 q 422 492 482 492 q 328 451 364 492 q 293 346 293 410 q 328 241 293 282 q 422 200 364 200 z "},"p":{"ha":910,"x_min":79,"x_max":881,"o":"m 572 710 q 732 665 663 710 q 841 536 801 619 q 881 344 881 453 q 841 155 881 238 q 730 26 801 72 q 568 -19 658 -19 q 433 16 490 -19 q 351 103 375 51 l 351 -264 l 79 -264 l 79 690 l 351 690 l 351 588 q 434 675 375 640 q 572 710 493 710 m 469 197 q 563 239 526 197 q 599 344 599 281 q 563 450 599 410 q 469 490 526 490 q 376 450 413 490 q 340 344 340 410 q 376 238 340 279 q 469 197 413 197 z "},"q":{"ha":910,"x_min":31,"x_max":832,"o":"m 832 0 l 831 0 l 831 -264 l 558 -264 l 558 103 q 477 15 535 49 q 343 -19 419 -19 q 178 27 249 -19 q 69 156 107 74 q 31 344 31 239 q 69 533 31 450 q 180 663 108 617 q 344 710 251 710 q 478 676 422 710 q 558 588 533 643 l 558 690 l 832 690 l 832 0 m 440 200 q 535 241 500 200 q 571 344 571 282 q 535 449 571 408 q 440 490 500 490 q 347 449 382 490 q 313 344 313 408 q 347 240 313 281 q 440 200 382 200 z "},"r":{"ha":624,"x_min":79,"x_max":601,"o":"m 79 690 l 351 690 l 351 536 q 424 660 369 615 q 550 704 478 704 q 601 700 576 704 l 601 443 q 532 449 567 449 q 399 401 447 449 q 351 232 351 353 l 351 0 l 79 0 l 79 690 z "},"s":{"ha":751,"x_min":31,"x_max":719,"o":"m 386 -24 q 195 5 275 -24 q 73 85 115 33 q 31 206 31 138 l 301 206 q 325 158 301 176 q 388 140 349 140 q 433 153 415 140 q 450 189 450 167 q 403 235 450 224 l 239 272 q 94 347 144 293 q 43 481 43 400 q 130 652 43 589 q 367 715 217 715 q 621 659 533 715 q 708 499 708 603 l 440 499 q 421 543 440 528 q 367 558 401 558 q 324 547 340 558 q 307 517 307 536 q 365 464 307 479 l 528 422 q 671 351 622 399 q 719 224 719 303 q 629 43 719 110 q 386 -24 539 -24 z "},"t":{"ha":586,"x_min":21,"x_max":558,"o":"m 489 201 q 558 207 514 201 l 558 0 q 389 -14 481 -14 q 197 40 271 -14 q 122 249 122 94 l 122 482 l 21 482 l 21 690 l 122 690 l 122 892 l 394 892 l 394 690 l 551 690 l 551 482 l 394 482 l 394 306 q 420 224 394 246 q 489 201 446 201 z "},"u":{"ha":892,"x_min":72,"x_max":814,"o":"m 326 -19 q 134 57 196 -19 q 72 269 72 133 l 72 690 l 349 690 l 349 329 q 442 208 349 208 q 540 338 540 208 l 540 690 l 814 690 l 814 0 l 540 0 l 540 103 q 460 13 515 46 q 326 -19 406 -19 z "},"v":{"ha":840,"x_min":-10,"x_max":850,"o":"m -10 690 l 300 690 l 421 296 l 542 690 l 850 690 l 551 0 l 290 0 l -10 690 z "},"w":{"ha":1196,"x_min":3,"x_max":1194,"o":"m 3 690 l 279 690 l 386 308 l 474 690 l 722 690 l 810 308 l 917 690 l 1194 690 l 950 0 l 699 0 l 599 354 l 497 0 l 246 0 l 3 690 z "},"x":{"ha":861,"x_min":10,"x_max":851,"o":"m 257 349 l 14 690 l 333 690 l 431 514 l 528 690 l 847 690 l 604 349 l 851 0 l 532 0 l 431 185 l 329 0 l 10 0 l 257 349 z "},"y":{"ha":894,"x_min":72,"x_max":815,"o":"m 815 690 l 815 46 q 787 -104 815 -39 q 711 -210 758 -169 q 597 -269 660 -251 q 439 -287 535 -287 q 275 -271 340 -287 q 164 -217 210 -254 q 98 -134 124 -183 q 72 -33 72 -85 l 344 -33 q 370 -85 347 -67 q 439 -104 393 -104 q 543 7 543 -104 l 543 133 q 460 47 515 78 q 328 15 404 15 q 72 310 72 15 l 72 690 l 344 690 l 344 342 q 367 251 344 282 q 439 221 389 221 q 543 364 543 221 l 543 690 l 815 690 z "},"z":{"ha":717,"x_min":7,"x_max":710,"o":"m 314 468 l 40 468 l 40 690 l 710 690 l 413 222 l 682 222 l 682 0 l 7 0 l 314 468 z "},"á":{"ha":910,"x_min":31,"x_max":832,"o":"m 343 -19 q 178 27 249 -19 q 69 156 107 74 q 31 344 31 239 q 69 533 31 450 q 180 663 108 617 q 344 710 251 710 q 478 676 422 710 q 558 588 533 643 l 558 690 l 832 690 l 832 0 l 558 0 l 558 103 q 477 15 535 49 q 343 -19 419 -19 m 440 200 q 535 241 500 200 q 571 344 571 282 q 535 449 571 408 q 440 490 500 490 q 347 449 382 490 q 313 344 313 408 q 347 240 313 281 q 440 200 382 200 m 206 869 l 615 994 l 657 861 l 250 735 l 206 869 z "},"ă":{"ha":910,"x_min":31,"x_max":832,"o":"m 343 -19 q 178 27 249 -19 q 69 156 107 74 q 31 344 31 239 q 69 533 31 450 q 180 663 108 617 q 344 710 251 710 q 478 676 422 710 q 558 588 533 643 l 558 690 l 832 690 l 832 0 l 558 0 l 558 103 q 477 15 535 49 q 343 -19 419 -19 m 440 200 q 535 241 500 200 q 571 344 571 282 q 535 449 571 408 q 440 490 500 490 q 347 449 382 490 q 313 344 313 408 q 347 240 313 281 q 440 200 382 200 m 438 746 q 246 801 314 746 q 174 957 178 857 l 357 957 q 438 881 361 881 q 517 957 513 881 l 701 957 q 625 802 696 858 q 438 746 554 746 z "},"â":{"ha":910,"x_min":31,"x_max":832,"o":"m 343 -19 q 178 27 249 -19 q 69 156 107 74 q 31 344 31 239 q 69 533 31 450 q 180 663 108 617 q 344 710 251 710 q 478 676 422 710 q 558 588 533 643 l 558 690 l 832 690 l 832 0 l 558 0 l 558 103 q 477 15 535 49 q 343 -19 419 -19 m 440 200 q 535 241 500 200 q 571 344 571 282 q 535 449 571 408 q 440 490 500 490 q 347 449 382 490 q 313 344 313 408 q 347 240 313 281 q 440 200 382 200 m 657 826 l 557 735 l 435 833 l 314 736 l 214 826 l 435 997 l 657 826 z "},"ä":{"ha":910,"x_min":31,"x_max":832,"o":"m 343 -19 q 178 27 249 -19 q 69 156 107 74 q 31 344 31 239 q 69 533 31 450 q 180 663 108 617 q 344 710 251 710 q 478 676 422 710 q 558 588 533 643 l 558 690 l 832 690 l 832 0 l 558 0 l 558 103 q 477 15 535 49 q 343 -19 419 -19 m 440 200 q 535 241 500 200 q 571 344 571 282 q 535 449 571 408 q 440 490 500 490 q 347 449 382 490 q 313 344 313 408 q 347 240 313 281 q 440 200 382 200 m 274 751 q 179 790 218 751 q 140 882 140 828 q 179 975 140 936 q 274 1014 218 1014 q 369 975 331 1014 q 408 882 408 936 q 369 790 408 828 q 274 751 331 751 m 601 751 q 506 790 544 751 q 468 882 468 828 q 506 975 468 936 q 601 1014 544 1014 q 697 975 658 1014 q 735 882 735 936 q 697 790 735 828 q 601 751 658 751 z "},"æ":{"ha":1346,"x_min":32,"x_max":1325,"o":"m 1325 381 q 1318 283 1325 331 l 810 283 q 846 194 811 226 q 939 163 881 163 q 1010 181 982 163 q 1050 231 1039 199 l 1314 231 q 1194 45 1294 115 q 942 -25 1093 -25 q 780 3 853 -25 q 658 85 707 32 q 528 3 604 29 q 346 -24 451 -24 q 183 3 254 -24 q 72 76 113 29 q 32 186 32 124 q 53 290 32 246 q 121 364 75 333 q 242 410 168 397 q 433 422 317 422 l 542 422 l 542 471 q 519 527 542 504 q 443 550 496 550 q 339 463 342 550 l 61 463 q 170 647 71 579 q 446 715 269 715 q 696 636 610 715 q 936 714 793 714 q 1138 672 1050 714 q 1276 553 1226 629 q 1325 381 1325 478 m 1053 422 q 1022 516 1054 482 q 935 550 990 550 q 844 515 879 550 q 810 422 810 479 l 1053 422 m 544 285 l 436 285 q 356 266 382 285 q 331 217 331 247 q 355 166 331 183 q 424 149 379 149 q 509 175 474 149 q 544 253 544 201 l 544 285 z "},"ǽ":{"ha":1346,"x_min":32,"x_max":1325,"o":"m 1325 381 q 1318 283 1325 331 l 810 283 q 846 194 811 226 q 939 163 881 163 q 1010 181 982 163 q 1050 231 1039 199 l 1314 231 q 1194 45 1294 115 q 942 -25 1093 -25 q 780 3 853 -25 q 658 85 707 32 q 528 3 604 29 q 346 -24 451 -24 q 183 3 254 -24 q 72 76 113 29 q 32 186 32 124 q 53 290 32 246 q 121 364 75 333 q 242 410 168 397 q 433 422 317 422 l 542 422 l 542 471 q 519 527 542 504 q 443 550 496 550 q 339 463 342 550 l 61 463 q 170 647 71 579 q 446 715 269 715 q 696 636 610 715 q 936 714 793 714 q 1138 672 1050 714 q 1276 553 1226 629 q 1325 381 1325 478 m 1053 422 q 1022 516 1054 482 q 935 550 990 550 q 844 515 879 550 q 810 422 810 479 l 1053 422 m 544 285 l 436 285 q 356 266 382 285 q 331 217 331 247 q 355 166 331 183 q 424 149 379 149 q 509 175 474 149 q 544 253 544 201 l 544 285 m 493 869 l 903 994 l 944 861 l 538 735 l 493 869 z "},"à":{"ha":910,"x_min":31,"x_max":832,"o":"m 343 -19 q 178 27 249 -19 q 69 156 107 74 q 31 344 31 239 q 69 533 31 450 q 180 663 108 617 q 344 710 251 710 q 478 676 422 710 q 558 588 533 643 l 558 690 l 832 690 l 832 0 l 558 0 l 558 103 q 477 15 535 49 q 343 -19 419 -19 m 440 200 q 535 241 500 200 q 571 344 571 282 q 535 449 571 408 q 440 490 500 490 q 347 449 382 490 q 313 344 313 408 q 347 240 313 281 q 440 200 382 200 m 201 857 l 243 990 l 653 865 l 608 731 l 201 857 z "},"ā":{"ha":910,"x_min":31,"x_max":832,"o":"m 343 -19 q 178 27 249 -19 q 69 156 107 74 q 31 344 31 239 q 69 533 31 450 q 180 663 108 617 q 344 710 251 710 q 478 676 422 710 q 558 588 533 643 l 558 690 l 832 690 l 832 0 l 558 0 l 558 103 q 477 15 535 49 q 343 -19 419 -19 m 440 200 q 535 241 500 200 q 571 344 571 282 q 535 449 571 408 q 440 490 500 490 q 347 449 382 490 q 313 344 313 408 q 347 240 313 281 q 440 200 382 200 m 185 936 l 690 936 l 690 793 l 185 793 l 185 936 z "},"ą":{"ha":910,"x_min":31,"x_max":847,"o":"m 708 -86 q 727 -130 708 -112 q 776 -147 746 -147 q 843 -131 811 -147 l 843 -253 q 772 -274 806 -268 q 690 -279 739 -279 q 544 -240 596 -279 q 492 -142 492 -201 q 583 0 492 -51 l 558 0 l 558 103 q 477 15 535 49 q 343 -19 419 -19 q 178 27 249 -19 q 69 156 107 74 q 31 344 31 239 q 69 533 31 450 q 180 663 108 617 q 344 710 251 710 q 478 676 422 710 q 558 588 533 643 l 558 690 l 832 690 l 832 0 l 847 0 q 740 -28 771 -3 q 708 -86 708 -53 m 440 200 q 535 241 500 200 q 571 344 571 282 q 535 449 571 408 q 440 490 500 490 q 347 449 382 490 q 313 344 313 408 q 347 240 313 281 q 440 200 382 200 z "},"å":{"ha":910,"x_min":31,"x_max":832,"o":"m 343 -19 q 178 27 249 -19 q 69 156 107 74 q 31 344 31 239 q 69 533 31 450 q 180 663 108 617 q 344 710 251 710 q 478 676 422 710 q 558 588 533 643 l 558 690 l 832 690 l 832 0 l 558 0 l 558 103 q 477 15 535 49 q 343 -19 419 -19 m 440 200 q 535 241 500 200 q 571 344 571 282 q 535 449 571 408 q 440 490 500 490 q 347 449 382 490 q 313 344 313 408 q 347 240 313 281 q 440 200 382 200 m 438 732 q 323 774 368 732 q 278 882 278 815 q 323 990 278 949 q 438 1032 368 1032 q 552 990 507 1032 q 597 882 597 949 q 552 774 597 815 q 438 732 507 732 m 438 811 q 483 831 465 811 q 501 882 501 851 q 483 932 501 913 q 438 951 465 951 q 392 932 410 951 q 374 882 374 913 q 392 831 374 851 q 438 811 410 811 z "},"ã":{"ha":910,"x_min":31,"x_max":832,"o":"m 343 -19 q 178 27 249 -19 q 69 156 107 74 q 31 344 31 239 q 69 533 31 450 q 180 663 108 617 q 344 710 251 710 q 478 676 422 710 q 558 588 533 643 l 558 690 l 832 690 l 832 0 l 558 0 l 558 103 q 477 15 535 49 q 343 -19 419 -19 m 440 200 q 535 241 500 200 q 571 344 571 282 q 535 449 571 408 q 440 490 500 490 q 347 449 382 490 q 313 344 313 408 q 347 240 313 281 q 440 200 382 200 m 546 746 q 490 756 514 746 q 433 785 467 765 q 390 809 408 801 q 350 817 371 817 q 239 768 292 817 l 188 881 q 335 965 256 965 q 390 956 367 965 q 447 926 414 946 q 491 902 472 910 q 531 894 510 894 q 642 943 589 894 l 693 831 q 546 746 625 746 z "},"ć":{"ha":822,"x_min":21,"x_max":801,"o":"m 417 -24 q 208 22 297 -24 q 69 152 118 68 q 21 346 21 236 q 69 540 21 456 q 208 669 118 624 q 417 715 297 715 q 609 678 525 715 q 743 574 693 642 q 801 415 793 506 l 529 415 q 417 490 511 490 q 326 452 358 490 q 293 346 293 414 q 326 240 293 278 q 417 201 358 201 q 529 275 510 201 l 801 275 q 684 57 788 138 q 417 -24 581 -24 m 182 869 l 592 994 l 633 861 l 226 735 l 182 869 z "},"č":{"ha":822,"x_min":21,"x_max":801,"o":"m 417 -24 q 208 22 297 -24 q 69 152 118 68 q 21 346 21 236 q 69 540 21 456 q 208 669 118 624 q 417 715 297 715 q 609 678 525 715 q 743 574 693 642 q 801 415 793 506 l 529 415 q 417 490 511 490 q 326 452 358 490 q 293 346 293 414 q 326 240 293 278 q 417 201 358 201 q 529 275 510 201 l 801 275 q 684 57 788 138 q 417 -24 581 -24 m 190 906 l 290 996 l 411 899 l 533 997 l 633 906 l 411 735 l 190 906 z "},"ç":{"ha":822,"x_min":21,"x_max":801,"o":"m 417 201 q 529 275 510 201 l 801 275 q 696 67 789 147 q 454 -22 603 -12 l 454 -82 q 514 -65 474 -65 q 592 -96 563 -65 q 622 -172 622 -126 q 585 -253 622 -219 q 482 -287 547 -287 q 383 -260 422 -287 q 340 -189 344 -233 l 440 -189 q 453 -208 442 -200 q 479 -215 464 -215 q 510 -203 499 -215 q 521 -168 521 -190 q 510 -137 521 -147 q 482 -126 500 -126 q 446 -144 456 -126 l 354 -144 l 354 -19 q 111 96 201 -3 q 21 346 21 194 q 69 540 21 456 q 208 669 118 624 q 417 715 297 715 q 609 678 525 715 q 743 574 693 642 q 801 415 793 506 l 529 415 q 417 490 511 490 q 326 452 358 490 q 293 346 293 414 q 326 240 293 278 q 417 201 358 201 z "},"ĉ":{"ha":822,"x_min":21,"x_max":801,"o":"m 417 -24 q 208 22 297 -24 q 69 152 118 68 q 21 346 21 236 q 69 540 21 456 q 208 669 118 624 q 417 715 297 715 q 609 678 525 715 q 743 574 693 642 q 801 415 793 506 l 529 415 q 417 490 511 490 q 326 452 358 490 q 293 346 293 414 q 326 240 293 278 q 417 201 358 201 q 529 275 510 201 l 801 275 q 684 57 788 138 q 417 -24 581 -24 m 633 826 l 533 735 l 411 833 l 290 736 l 190 826 l 411 997 l 633 826 z "},"ċ":{"ha":822,"x_min":21,"x_max":801,"o":"m 417 -24 q 208 22 297 -24 q 69 152 118 68 q 21 346 21 236 q 69 540 21 456 q 208 669 118 624 q 417 715 297 715 q 609 678 525 715 q 743 574 693 642 q 801 415 793 506 l 529 415 q 417 490 511 490 q 326 452 358 490 q 293 346 293 414 q 326 240 293 278 q 417 201 358 201 q 529 275 510 201 l 801 275 q 684 57 788 138 q 417 -24 581 -24 m 414 749 q 310 789 351 749 q 268 890 268 829 q 310 992 268 951 q 414 1032 351 1032 q 517 992 476 1032 q 558 890 558 951 q 517 789 558 829 q 414 749 476 749 z "},"ď":{"ha":1088,"x_min":31,"x_max":1104,"o":"m 832 690 l 832 0 l 558 0 l 558 103 q 477 15 535 49 q 343 -19 419 -19 q 178 27 249 -19 q 69 156 107 74 q 31 344 31 239 q 69 533 31 450 q 180 663 108 617 q 344 710 251 710 q 478 676 422 710 q 558 588 533 643 l 558 972 l 831 972 l 831 690 l 832 690 m 440 200 q 535 241 500 200 q 571 344 571 282 q 535 449 571 408 q 440 490 500 490 q 347 449 382 490 q 313 344 313 408 q 347 240 313 281 q 440 200 382 200 m 954 706 q 926 707 936 706 l 926 765 q 950 764 936 764 q 1017 789 996 764 q 1031 844 1031 808 q 1009 831 1024 836 q 976 825 994 825 q 922 849 943 825 q 900 910 900 872 q 925 972 900 949 q 992 996 950 996 q 1074 963 1043 996 q 1104 867 1104 929 q 1065 749 1104 792 q 954 706 1025 706 z "},"đ":{"ha":925,"x_min":31,"x_max":903,"o":"m 831 746 l 831 690 l 832 690 l 832 0 l 558 0 l 558 103 q 477 15 535 49 q 343 -19 419 -19 q 178 27 249 -19 q 69 156 107 74 q 31 344 31 239 q 69 533 31 450 q 180 663 108 617 q 344 710 251 710 q 478 676 422 710 q 558 588 533 643 l 558 746 l 408 746 l 408 874 l 558 874 l 558 972 l 831 972 l 831 874 l 903 874 l 903 746 l 831 746 m 440 200 q 535 241 500 200 q 571 344 571 282 q 535 449 571 408 q 440 490 500 490 q 347 449 382 490 q 313 344 313 408 q 347 240 313 281 q 440 200 382 200 z "},"é":{"ha":829,"x_min":21,"x_max":808,"o":"m 808 381 q 801 279 808 329 l 293 279 q 331 194 296 225 q 425 164 367 164 q 533 215 513 164 l 797 215 q 678 41 779 106 q 425 -24 576 -24 q 128 73 236 -24 q 21 344 21 169 q 70 542 21 458 q 210 671 119 626 q 419 715 300 715 q 622 673 533 715 q 759 554 710 631 q 808 381 808 478 m 536 429 q 504 518 535 486 q 417 550 474 550 q 328 517 361 550 q 293 429 296 483 l 536 429 m 185 869 l 594 994 l 636 861 l 229 735 l 185 869 z "},"ĕ":{"ha":829,"x_min":21,"x_max":808,"o":"m 808 381 q 801 279 808 329 l 293 279 q 331 194 296 225 q 425 164 367 164 q 533 215 513 164 l 797 215 q 678 41 779 106 q 425 -24 576 -24 q 128 73 236 -24 q 21 344 21 169 q 70 542 21 458 q 210 671 119 626 q 419 715 300 715 q 622 673 533 715 q 759 554 710 631 q 808 381 808 478 m 536 429 q 504 518 535 486 q 417 550 474 550 q 328 517 361 550 q 293 429 296 483 l 536 429 m 417 746 q 225 801 293 746 q 153 957 157 857 l 336 957 q 417 881 340 881 q 496 957 492 881 l 681 957 q 604 802 675 858 q 417 746 533 746 z "},"ě":{"ha":829,"x_min":21,"x_max":808,"o":"m 808 381 q 801 279 808 329 l 293 279 q 331 194 296 225 q 425 164 367 164 q 533 215 513 164 l 797 215 q 678 41 779 106 q 425 -24 576 -24 q 128 73 236 -24 q 21 344 21 169 q 70 542 21 458 q 210 671 119 626 q 419 715 300 715 q 622 673 533 715 q 759 554 710 631 q 808 381 808 478 m 536 429 q 504 518 535 486 q 417 550 474 550 q 328 517 361 550 q 293 429 296 483 l 536 429 m 193 906 l 293 996 l 414 899 l 536 997 l 636 906 l 414 735 l 193 906 z "},"ê":{"ha":829,"x_min":21,"x_max":808,"o":"m 808 381 q 801 279 808 329 l 293 279 q 331 194 296 225 q 425 164 367 164 q 533 215 513 164 l 797 215 q 678 41 779 106 q 425 -24 576 -24 q 128 73 236 -24 q 21 344 21 169 q 70 542 21 458 q 210 671 119 626 q 419 715 300 715 q 622 673 533 715 q 759 554 710 631 q 808 381 808 478 m 536 429 q 504 518 535 486 q 417 550 474 550 q 328 517 361 550 q 293 429 296 483 l 536 429 m 636 826 l 536 735 l 414 833 l 293 736 l 193 826 l 414 997 l 636 826 z "},"ë":{"ha":829,"x_min":21,"x_max":808,"o":"m 808 381 q 801 279 808 329 l 293 279 q 331 194 296 225 q 425 164 367 164 q 533 215 513 164 l 797 215 q 678 41 779 106 q 425 -24 576 -24 q 128 73 236 -24 q 21 344 21 169 q 70 542 21 458 q 210 671 119 626 q 419 715 300 715 q 622 673 533 715 q 759 554 710 631 q 808 381 808 478 m 536 429 q 504 518 535 486 q 417 550 474 550 q 328 517 361 550 q 293 429 296 483 l 536 429 m 253 751 q 158 790 197 751 q 119 882 119 828 q 158 975 119 936 q 253 1014 197 1014 q 349 975 310 1014 q 388 882 388 936 q 349 790 388 828 q 253 751 310 751 m 581 751 q 485 790 524 751 q 447 882 447 828 q 485 975 447 936 q 581 1014 524 1014 q 676 975 638 1014 q 714 882 714 936 q 676 790 714 828 q 581 751 638 751 z "},"ė":{"ha":829,"x_min":21,"x_max":808,"o":"m 808 381 q 801 279 808 329 l 293 279 q 331 194 296 225 q 425 164 367 164 q 533 215 513 164 l 797 215 q 678 41 779 106 q 425 -24 576 -24 q 128 73 236 -24 q 21 344 21 169 q 70 542 21 458 q 210 671 119 626 q 419 715 300 715 q 622 673 533 715 q 759 554 710 631 q 808 381 808 478 m 536 429 q 504 518 535 486 q 417 550 474 550 q 328 517 361 550 q 293 429 296 483 l 536 429 m 417 749 q 313 789 354 749 q 271 890 271 829 q 313 992 271 951 q 417 1032 354 1032 q 520 992 479 1032 q 561 890 561 951 q 520 789 561 829 q 417 749 479 749 z "},"è":{"ha":829,"x_min":21,"x_max":808,"o":"m 808 381 q 801 279 808 329 l 293 279 q 331 194 296 225 q 425 164 367 164 q 533 215 513 164 l 797 215 q 678 41 779 106 q 425 -24 576 -24 q 128 73 236 -24 q 21 344 21 169 q 70 542 21 458 q 210 671 119 626 q 419 715 300 715 q 622 673 533 715 q 759 554 710 631 q 808 381 808 478 m 536 429 q 504 518 535 486 q 417 550 474 550 q 328 517 361 550 q 293 429 296 483 l 536 429 m 181 857 l 222 990 l 632 865 l 588 731 l 181 857 z "},"ē":{"ha":829,"x_min":21,"x_max":808,"o":"m 808 381 q 801 279 808 329 l 293 279 q 331 194 296 225 q 425 164 367 164 q 533 215 513 164 l 797 215 q 678 41 779 106 q 425 -24 576 -24 q 128 73 236 -24 q 21 344 21 169 q 70 542 21 458 q 210 671 119 626 q 419 715 300 715 q 622 673 533 715 q 759 554 710 631 q 808 381 808 478 m 536 429 q 504 518 535 486 q 417 550 474 550 q 328 517 361 550 q 293 429 296 483 l 536 429 m 164 936 l 669 936 l 669 793 l 164 793 l 164 936 z "},"ę":{"ha":829,"x_min":21,"x_max":808,"o":"m 808 381 q 801 279 808 329 l 293 279 q 331 194 296 225 q 425 164 367 164 q 533 215 513 164 l 797 215 q 729 83 783 139 q 588 0 675 28 l 593 0 l 588 0 q 501 -19 544 -14 q 465 -49 476 -31 q 454 -86 454 -67 q 473 -130 454 -112 q 522 -147 492 -147 q 589 -131 557 -147 l 589 -253 q 518 -274 551 -268 q 436 -279 485 -279 q 290 -240 342 -279 q 238 -142 238 -201 q 308 -12 238 -61 q 97 107 172 15 q 21 344 21 199 q 70 542 21 458 q 210 671 119 626 q 419 715 300 715 q 622 673 533 715 q 759 554 710 631 q 808 381 808 478 m 536 429 q 504 518 535 486 q 417 550 474 550 q 328 517 361 550 q 293 429 296 483 l 536 429 z "},"ğ":{"ha":911,"x_min":31,"x_max":832,"o":"m 832 690 l 832 63 q 795 -109 832 -36 q 690 -228 758 -182 q 436 -287 603 -287 q 293 -276 353 -287 q 182 -237 233 -265 q 84 -151 122 -206 q 46 -42 46 -97 l 321 -42 q 354 -87 326 -71 q 432 -103 382 -103 q 560 22 560 -103 l 560 131 q 478 47 538 79 q 347 15 418 15 q 180 59 251 15 q 69 181 108 103 q 31 358 31 258 q 70 541 31 461 q 182 665 110 621 q 349 710 254 710 q 480 676 422 710 q 560 588 538 643 l 560 690 l 832 690 m 442 208 q 536 250 501 208 q 571 354 571 292 q 536 458 571 417 q 442 500 501 500 q 349 459 385 500 q 313 354 313 418 q 349 249 313 290 q 442 208 385 208 m 436 746 q 244 801 313 746 q 172 957 176 857 l 356 957 q 436 881 360 881 q 515 957 511 881 l 700 957 q 624 802 694 858 q 436 746 553 746 z "},"ĝ":{"ha":911,"x_min":31,"x_max":832,"o":"m 832 690 l 832 63 q 795 -109 832 -36 q 690 -228 758 -182 q 436 -287 603 -287 q 293 -276 353 -287 q 182 -237 233 -265 q 84 -151 122 -206 q 46 -42 46 -97 l 321 -42 q 354 -87 326 -71 q 432 -103 382 -103 q 560 22 560 -103 l 560 131 q 478 47 538 79 q 347 15 418 15 q 180 59 251 15 q 69 181 108 103 q 31 358 31 258 q 70 541 31 461 q 182 665 110 621 q 349 710 254 710 q 480 676 422 710 q 560 588 538 643 l 560 690 l 832 690 m 442 208 q 536 250 501 208 q 571 354 571 292 q 536 458 571 417 q 442 500 501 500 q 349 459 385 500 q 313 354 313 418 q 349 249 313 290 q 442 208 385 208 m 656 826 l 556 735 l 433 833 l 313 736 l 213 826 l 433 997 l 656 826 z "},"ģ":{"ha":911,"x_min":31,"x_max":832,"o":"m 832 690 l 832 63 q 795 -109 832 -36 q 690 -228 758 -182 q 436 -287 603 -287 q 293 -276 353 -287 q 182 -237 233 -265 q 84 -151 122 -206 q 46 -42 46 -97 l 321 -42 q 354 -87 326 -71 q 432 -103 382 -103 q 560 22 560 -103 l 560 131 q 478 47 538 79 q 347 15 418 15 q 180 59 251 15 q 69 181 108 103 q 31 358 31 258 q 70 541 31 461 q 182 665 110 621 q 349 710 254 710 q 480 676 422 710 q 560 588 538 643 l 560 690 l 832 690 m 442 208 q 536 250 501 208 q 571 354 571 292 q 536 458 571 417 q 442 500 501 500 q 349 459 385 500 q 313 354 313 418 q 349 249 313 290 q 442 208 385 208 m 458 938 q 389 924 406 938 q 363 876 364 903 q 377 891 365 885 q 406 897 389 897 q 461 875 442 897 q 481 818 481 853 q 458 763 481 786 q 397 740 436 740 q 324 772 351 740 q 296 854 296 804 q 338 958 296 924 q 458 992 381 992 l 458 938 z "},"ġ":{"ha":911,"x_min":31,"x_max":832,"o":"m 832 690 l 832 63 q 795 -109 832 -36 q 690 -228 758 -182 q 436 -287 603 -287 q 293 -276 353 -287 q 182 -237 233 -265 q 84 -151 122 -206 q 46 -42 46 -97 l 321 -42 q 354 -87 326 -71 q 432 -103 382 -103 q 560 22 560 -103 l 560 131 q 478 47 538 79 q 347 15 418 15 q 180 59 251 15 q 69 181 108 103 q 31 358 31 258 q 70 541 31 461 q 182 665 110 621 q 349 710 254 710 q 480 676 422 710 q 560 588 538 643 l 560 690 l 832 690 m 442 208 q 536 250 501 208 q 571 354 571 292 q 536 458 571 417 q 442 500 501 500 q 349 459 385 500 q 313 354 313 418 q 349 249 313 290 q 442 208 385 208 m 436 749 q 332 789 374 749 q 290 890 290 829 q 332 992 290 951 q 436 1032 374 1032 q 540 992 499 1032 q 581 890 581 951 q 540 789 581 829 q 436 749 499 749 z "},"ħ":{"ha":899,"x_min":25,"x_max":828,"o":"m 575 710 q 828 421 828 710 l 828 0 l 550 0 l 550 351 q 527 450 550 418 q 454 482 504 482 q 351 346 351 482 l 351 0 l 79 0 l 79 746 l 25 746 l 25 874 l 79 874 l 79 972 l 351 972 l 351 874 l 518 874 l 518 746 l 351 746 l 351 589 q 435 679 378 649 q 575 710 493 710 z "},"ĥ":{"ha":899,"x_min":25,"x_max":828,"o":"m 101 1001 l 25 1085 l 218 1243 l 411 1085 l 326 1001 l 218 1096 l 101 1001 m 575 710 q 828 421 828 710 l 828 0 l 550 0 l 550 351 q 527 450 550 418 q 454 482 504 482 q 351 346 351 482 l 351 0 l 79 0 l 79 972 l 351 972 l 351 589 q 435 679 378 649 q 575 710 493 710 z "},"í":{"ha":431,"x_min":33,"x_max":382,"o":"m 33 865 l 331 989 l 382 860 l 85 736 l 33 865 m 79 690 l 351 690 l 351 0 l 79 0 l 79 690 z "},"ĭ":{"ha":431,"x_min":18,"x_max":414,"o":"m 215 731 q 74 783 131 731 q 18 950 18 835 l 154 950 q 215 858 157 858 q 276 950 276 858 l 414 950 q 358 783 414 835 q 215 731 301 731 m 79 690 l 351 690 l 351 0 l 79 0 l 79 690 z "},"î":{"ha":431,"x_min":18,"x_max":414,"o":"m 18 824 l 215 979 l 414 824 l 314 732 l 215 813 l 118 733 l 18 824 m 79 690 l 351 690 l 351 0 l 79 0 l 79 690 z "},"ï":{"ha":431,"x_min":-21,"x_max":451,"o":"m 92 767 q 12 799 44 767 q -21 878 -21 832 q 12 958 -21 925 q 92 992 44 992 q 174 958 140 992 q 207 878 207 925 q 174 799 207 832 q 92 767 142 767 m 336 767 q 255 799 288 767 q 222 878 222 832 q 255 958 222 925 q 336 992 288 992 q 418 958 385 992 q 451 878 451 925 q 418 799 451 832 q 336 767 385 767 m 79 690 l 351 690 l 351 0 l 79 0 l 79 690 z "},"ı":{"ha":431,"x_min":79,"x_max":351,"o":"m 79 690 l 351 690 l 351 0 l 79 0 l 79 690 z "},"ì":{"ha":431,"x_min":51,"x_max":401,"o":"m 51 860 l 104 989 l 401 865 l 350 736 l 51 860 m 79 690 l 351 690 l 351 0 l 79 0 l 79 690 z "},"ĳ":{"ha":863,"x_min":64,"x_max":799,"o":"m 79 690 l 351 690 l 351 0 l 79 0 l 79 690 m 215 714 q 107 758 150 714 q 64 863 64 801 q 107 968 64 925 q 215 1011 150 1011 q 323 968 279 1011 q 367 863 367 925 q 323 758 367 801 q 215 714 279 714 m 532 -272 q 470 -269 496 -272 q 414 -257 444 -265 l 414 -67 q 458 -71 439 -71 q 498 -56 485 -71 q 511 -8 511 -42 l 511 690 l 783 690 l 783 -17 q 719 -208 783 -144 q 532 -272 654 -272 m 647 714 q 539 758 582 714 q 496 863 496 801 q 539 968 496 925 q 647 1011 582 1011 q 755 968 711 1011 q 799 863 799 925 q 755 758 799 801 q 647 714 711 714 z "},"ī":{"ha":431,"x_min":43,"x_max":389,"o":"m 43 919 l 389 919 l 389 763 l 43 763 l 43 919 m 79 690 l 351 690 l 351 0 l 79 0 l 79 690 z "},"į":{"ha":431,"x_min":-4,"x_max":367,"o":"m 79 690 l 351 690 l 351 0 l 79 0 l 79 690 m 215 714 q 107 758 150 714 q 64 863 64 801 q 107 968 64 925 q 215 1011 150 1011 q 323 968 279 1011 q 367 863 367 925 q 323 758 367 801 q 215 714 279 714 m 194 -279 q 48 -240 100 -279 q -4 -142 -4 -201 q 88 0 -4 -51 l 351 0 q 244 -28 275 -3 q 213 -86 213 -53 q 231 -130 213 -112 q 281 -147 250 -147 q 347 -131 315 -147 l 347 -253 q 276 -274 310 -268 q 194 -279 243 -279 z "},"ĩ":{"ha":431,"x_min":32,"x_max":397,"o":"m 289 739 q 249 749 267 739 q 206 778 231 758 q 172 801 186 793 q 142 810 157 810 q 106 796 122 810 q 72 753 90 782 l 32 861 q 80 956 51 931 q 135 981 108 981 q 178 970 158 981 q 222 940 197 960 q 258 916 244 924 q 286 908 271 908 q 318 917 304 908 q 361 960 332 926 l 397 843 q 345 760 375 782 q 289 739 315 739 m 79 690 l 351 690 l 351 0 l 79 0 l 79 690 z "},"ĵ":{"ha":432,"x_min":-17,"x_max":415,"o":"m 19 824 l 217 979 l 415 824 l 315 732 l 217 813 l 119 733 l 19 824 m 101 -272 q 40 -269 65 -272 q -17 -257 14 -265 l -17 -67 q 28 -71 8 -71 q 67 -56 54 -71 q 81 -8 81 -42 l 81 690 l 353 690 l 353 -17 q 288 -208 353 -144 q 101 -272 224 -272 z "},"ȷ":{"ha":432,"x_min":-17,"x_max":353,"o":"m 101 -272 q 40 -269 65 -272 q -17 -257 14 -265 l -17 -67 q 28 -71 8 -71 q 67 -56 54 -71 q 81 -8 81 -42 l 81 690 l 353 690 l 353 -17 q 288 -208 353 -144 q 101 -272 224 -272 z "},"ķ":{"ha":881,"x_min":79,"x_max":860,"o":"m 539 0 l 351 286 l 351 0 l 79 0 l 79 972 l 351 972 l 351 418 l 543 690 l 851 690 l 600 367 l 860 0 l 539 0 m 382 -244 q 456 -229 435 -244 q 473 -210 468 -221 q 481 -182 478 -200 q 435 -201 468 -201 q 376 -180 397 -201 q 354 -124 354 -158 q 378 -65 354 -87 q 442 -43 403 -43 q 521 -72 490 -43 q 551 -151 551 -100 q 508 -263 551 -225 q 382 -303 465 -301 l 382 -244 z "},"ĸ":{"ha":881,"x_min":79,"x_max":860,"o":"m 539 0 l 351 286 l 351 0 l 79 0 l 79 690 l 351 690 l 351 418 l 543 690 l 851 690 l 600 367 l 860 0 l 539 0 z "},"ĺ":{"ha":431,"x_min":36,"x_max":394,"o":"m 36 1126 l 333 1253 l 394 1136 l 96 1010 l 36 1126 m 79 972 l 351 972 l 351 0 l 79 0 l 79 972 z "},"ľ":{"ha":617,"x_min":79,"x_max":628,"o":"m 79 972 l 351 972 l 351 0 l 79 0 l 79 972 m 478 706 q 450 707 460 706 l 450 765 q 474 764 460 764 q 540 789 519 764 q 554 844 554 808 q 533 831 547 836 q 500 825 518 825 q 445 849 467 825 q 424 910 424 872 q 449 972 424 949 q 515 996 474 996 q 597 963 567 996 q 628 867 628 929 q 588 749 628 792 q 478 706 549 706 z "},"ļ":{"ha":431,"x_min":79,"x_max":351,"o":"m 79 972 l 351 972 l 351 0 l 79 0 l 79 972 m 154 -244 q 228 -229 207 -244 q 245 -210 240 -221 q 253 -182 250 -200 q 207 -201 240 -201 q 148 -180 169 -201 q 126 -124 126 -158 q 151 -65 126 -87 q 214 -43 175 -43 q 293 -72 263 -43 q 324 -151 324 -100 q 281 -263 324 -225 q 154 -303 238 -301 l 154 -244 z "},"ŀ":{"ha":707,"x_min":79,"x_max":700,"o":"m 79 972 l 351 972 l 351 0 l 79 0 l 79 972 m 542 349 q 430 394 475 349 q 385 504 385 440 q 430 613 385 568 q 542 658 475 658 q 654 613 608 658 q 700 504 700 568 q 654 394 700 440 q 542 349 608 349 z "},"ł":{"ha":431,"x_min":1,"x_max":429,"o":"m 429 560 l 350 515 l 350 0 l 78 0 l 78 364 l 1 321 l 1 460 l 78 503 l 78 972 l 350 972 l 350 653 l 429 697 l 429 560 z "},"ń":{"ha":899,"x_min":79,"x_max":828,"o":"m 79 690 l 351 690 l 351 589 q 435 679 378 649 q 575 710 493 710 q 828 421 828 710 l 828 0 l 550 0 l 550 351 q 527 450 550 418 q 454 482 504 482 q 351 346 351 482 l 351 0 l 79 0 l 79 690 m 215 869 l 625 994 l 667 861 l 260 735 l 215 869 z "},"ŉ":{"ha":932,"x_min":17,"x_max":861,"o":"m 113 690 l 385 690 l 385 589 q 469 679 411 649 q 608 710 526 710 q 861 421 861 710 l 861 0 l 583 0 l 583 351 q 560 450 583 418 q 488 482 538 482 q 385 346 385 482 l 385 0 l 113 0 l 113 690 m 71 706 q 43 707 53 706 l 43 765 q 67 764 53 764 q 133 789 113 764 q 147 844 147 808 q 126 831 140 836 q 93 825 111 825 q 38 849 60 825 q 17 910 17 872 q 42 972 17 949 q 108 996 67 996 q 190 963 160 996 q 221 867 221 929 q 181 749 221 792 q 71 706 142 706 z "},"ň":{"ha":899,"x_min":79,"x_max":828,"o":"m 79 690 l 351 690 l 351 589 q 435 679 378 649 q 575 710 493 710 q 828 421 828 710 l 828 0 l 550 0 l 550 351 q 527 450 550 418 q 454 482 504 482 q 351 346 351 482 l 351 0 l 79 0 l 79 690 m 224 906 l 324 996 l 444 899 l 567 997 l 667 906 l 444 735 l 224 906 z "},"ņ":{"ha":899,"x_min":79,"x_max":828,"o":"m 79 690 l 351 690 l 351 589 q 435 679 378 649 q 575 710 493 710 q 828 421 828 710 l 828 0 l 550 0 l 550 351 q 527 450 550 418 q 454 482 504 482 q 351 346 351 482 l 351 0 l 79 0 l 79 690 m 386 -244 q 460 -229 439 -244 q 477 -210 472 -221 q 485 -182 482 -200 q 439 -201 472 -201 q 380 -180 401 -201 q 358 -124 358 -158 q 383 -65 358 -87 q 446 -43 407 -43 q 525 -72 494 -43 q 556 -151 556 -100 q 513 -263 556 -225 q 386 -303 469 -301 l 386 -244 z "},"ñ":{"ha":899,"x_min":79,"x_max":828,"o":"m 79 690 l 351 690 l 351 589 q 435 679 378 649 q 575 710 493 710 q 828 421 828 710 l 828 0 l 550 0 l 550 351 q 527 450 550 418 q 454 482 504 482 q 351 346 351 482 l 351 0 l 79 0 l 79 690 m 556 746 q 500 756 524 746 q 443 785 476 765 q 399 809 418 801 q 360 817 381 817 q 249 768 301 817 l 197 881 q 344 965 265 965 q 400 956 376 965 q 457 926 424 946 q 501 902 482 910 q 540 894 519 894 q 651 943 599 894 l 703 831 q 556 746 635 746 z "},"ŋ":{"ha":899,"x_min":79,"x_max":828,"o":"m 575 710 q 828 421 828 710 l 828 -44 q 756 -215 828 -158 q 549 -272 685 -272 q 444 -254 489 -272 l 444 -83 q 465 -87 454 -85 q 488 -89 475 -89 q 550 -31 550 -89 l 550 351 q 527 450 550 418 q 454 482 504 482 q 351 346 351 482 l 351 0 l 79 0 l 79 690 l 351 690 l 351 589 q 435 679 378 649 q 575 710 493 710 z "},"ó":{"ha":846,"x_min":21,"x_max":825,"o":"m 422 -24 q 210 23 301 -24 q 70 153 119 69 q 21 346 21 238 q 70 538 21 454 q 210 669 119 622 q 422 715 301 715 q 635 669 543 715 q 776 538 726 622 q 825 346 825 454 q 776 153 825 238 q 635 23 726 69 q 422 -24 543 -24 m 422 200 q 517 240 482 200 q 551 346 551 281 q 517 451 551 411 q 422 492 482 492 q 328 451 364 492 q 293 346 293 410 q 328 241 293 282 q 422 200 364 200 m 190 869 l 600 994 l 642 861 l 235 735 l 190 869 z "},"ŏ":{"ha":846,"x_min":21,"x_max":825,"o":"m 422 -24 q 210 23 301 -24 q 70 153 119 69 q 21 346 21 238 q 70 538 21 454 q 210 669 119 622 q 422 715 301 715 q 635 669 543 715 q 776 538 726 622 q 825 346 825 454 q 776 153 825 238 q 635 23 726 69 q 422 -24 543 -24 m 422 200 q 517 240 482 200 q 551 346 551 281 q 517 451 551 411 q 422 492 482 492 q 328 451 364 492 q 293 346 293 410 q 328 241 293 282 q 422 200 364 200 m 422 746 q 231 801 299 746 q 158 957 163 857 l 342 957 q 422 881 346 881 q 501 957 497 881 l 686 957 q 610 802 681 858 q 422 746 539 746 z "},"ô":{"ha":846,"x_min":21,"x_max":825,"o":"m 422 -24 q 210 23 301 -24 q 70 153 119 69 q 21 346 21 238 q 70 538 21 454 q 210 669 119 622 q 422 715 301 715 q 635 669 543 715 q 776 538 726 622 q 825 346 825 454 q 776 153 825 238 q 635 23 726 69 q 422 -24 543 -24 m 422 200 q 517 240 482 200 q 551 346 551 281 q 517 451 551 411 q 422 492 482 492 q 328 451 364 492 q 293 346 293 410 q 328 241 293 282 q 422 200 364 200 m 642 826 l 542 735 l 419 833 l 299 736 l 199 826 l 419 997 l 642 826 z "},"ö":{"ha":846,"x_min":21,"x_max":825,"o":"m 422 -24 q 210 23 301 -24 q 70 153 119 69 q 21 346 21 238 q 70 538 21 454 q 210 669 119 622 q 422 715 301 715 q 635 669 543 715 q 776 538 726 622 q 825 346 825 454 q 776 153 825 238 q 635 23 726 69 q 422 -24 543 -24 m 422 200 q 517 240 482 200 q 551 346 551 281 q 517 451 551 411 q 422 492 482 492 q 328 451 364 492 q 293 346 293 410 q 328 241 293 282 q 422 200 364 200 m 258 751 q 164 790 203 751 q 125 882 125 828 q 164 975 125 936 q 258 1014 203 1014 q 354 975 315 1014 q 393 882 393 936 q 354 790 393 828 q 258 751 315 751 m 586 751 q 491 790 529 751 q 453 882 453 828 q 491 975 453 936 q 586 1014 529 1014 q 681 975 643 1014 q 719 882 719 936 q 681 790 719 828 q 586 751 643 751 z "},"œ":{"ha":1360,"x_min":21,"x_max":1339,"o":"m 1339 381 q 1332 279 1339 329 l 824 279 q 862 194 826 225 q 956 164 897 164 q 1064 215 1043 164 l 1328 215 q 1208 41 1310 106 q 956 -24 1107 -24 q 683 53 788 -24 q 422 -24 579 -24 q 210 23 301 -24 q 70 153 119 69 q 21 346 21 238 q 70 538 21 454 q 210 669 119 622 q 422 715 301 715 q 686 638 581 715 q 950 715 790 715 q 1152 673 1064 715 q 1290 554 1240 631 q 1339 381 1339 478 m 1067 429 q 1035 518 1065 486 q 947 550 1004 550 q 859 517 892 550 q 824 429 826 483 l 1067 429 m 422 200 q 517 240 482 200 q 551 346 551 281 q 517 451 551 411 q 422 492 482 492 q 328 451 364 492 q 293 346 293 410 q 328 241 293 282 q 422 200 364 200 z "},"ò":{"ha":846,"x_min":21,"x_max":825,"o":"m 422 -24 q 210 23 301 -24 q 70 153 119 69 q 21 346 21 238 q 70 538 21 454 q 210 669 119 622 q 422 715 301 715 q 635 669 543 715 q 776 538 726 622 q 825 346 825 454 q 776 153 825 238 q 635 23 726 69 q 422 -24 543 -24 m 422 200 q 517 240 482 200 q 551 346 551 281 q 517 451 551 411 q 422 492 482 492 q 328 451 364 492 q 293 346 293 410 q 328 241 293 282 q 422 200 364 200 m 186 857 l 228 990 l 638 865 l 593 731 l 186 857 z "},"ő":{"ha":846,"x_min":21,"x_max":825,"o":"m 422 -24 q 210 23 301 -24 q 70 153 119 69 q 21 346 21 238 q 70 538 21 454 q 210 669 119 622 q 422 715 301 715 q 635 669 543 715 q 776 538 726 622 q 825 346 825 454 q 776 153 825 238 q 635 23 726 69 q 422 -24 543 -24 m 422 200 q 517 240 482 200 q 551 346 551 281 q 517 451 551 411 q 422 492 482 492 q 328 451 364 492 q 293 346 293 410 q 328 241 293 282 q 422 200 364 200 m 200 778 l 376 992 l 508 908 l 292 731 l 200 778 m 471 778 l 647 992 l 779 908 l 563 731 l 471 778 z "},"ō":{"ha":846,"x_min":21,"x_max":825,"o":"m 422 -24 q 210 23 301 -24 q 70 153 119 69 q 21 346 21 238 q 70 538 21 454 q 210 669 119 622 q 422 715 301 715 q 635 669 543 715 q 776 538 726 622 q 825 346 825 454 q 776 153 825 238 q 635 23 726 69 q 422 -24 543 -24 m 422 200 q 517 240 482 200 q 551 346 551 281 q 517 451 551 411 q 422 492 482 492 q 328 451 364 492 q 293 346 293 410 q 328 241 293 282 q 422 200 364 200 m 169 936 l 675 936 l 675 793 l 169 793 l 169 936 z "},"ª":{"ha":579,"x_min":31,"x_max":522,"o":"m 221 546 q 83 603 136 546 q 31 754 31 661 q 83 904 31 846 q 221 963 136 963 q 304 943 269 963 q 356 892 339 924 l 356 951 l 522 951 l 522 557 l 356 557 l 356 615 q 305 565 340 585 q 221 546 269 546 m 282 679 q 340 700 318 679 q 361 754 361 721 q 340 808 361 788 q 282 828 318 828 q 226 807 247 828 q 206 754 206 786 q 226 700 206 721 q 282 679 247 679 z "},"º":{"ha":547,"x_min":28,"x_max":519,"o":"m 274 543 q 95 601 163 543 q 28 756 28 660 q 95 909 28 850 q 274 968 163 968 q 452 909 385 968 q 519 756 519 850 q 452 601 519 660 q 274 543 385 543 m 274 679 q 331 700 310 679 q 351 756 351 721 q 331 809 351 789 q 274 829 310 829 q 216 809 238 829 q 194 756 194 789 q 216 700 194 721 q 274 679 238 679 z "},"ø":{"ha":846,"x_min":21,"x_max":825,"o":"m 619 676 q 771 546 717 632 q 825 346 825 460 q 776 153 825 238 q 635 23 726 69 q 422 -24 543 -24 q 310 -12 365 -24 l 271 -100 l 197 -67 l 233 13 q 77 143 133 56 q 21 346 21 231 q 70 538 21 454 q 210 669 119 622 q 422 715 301 715 q 542 701 490 715 l 583 794 l 657 761 l 619 676 m 293 346 q 333 236 293 276 l 447 490 q 422 492 439 492 q 328 451 364 492 q 293 346 293 410 m 422 200 q 517 240 482 200 q 551 346 551 281 q 518 450 551 408 l 406 201 q 422 200 411 200 z "},"ǿ":{"ha":846,"x_min":21,"x_max":825,"o":"m 619 676 q 771 546 717 632 q 825 346 825 460 q 776 153 825 238 q 635 23 726 69 q 422 -24 543 -24 q 310 -12 365 -24 l 271 -100 l 197 -67 l 233 13 q 77 143 133 56 q 21 346 21 231 q 70 538 21 454 q 210 669 119 622 q 422 715 301 715 q 542 701 490 715 l 583 794 l 657 761 l 619 676 m 293 346 q 333 236 293 276 l 447 490 q 422 492 439 492 q 328 451 364 492 q 293 346 293 410 m 422 200 q 517 240 482 200 q 551 346 551 281 q 518 450 551 408 l 406 201 q 422 200 411 200 m 190 869 l 600 994 l 642 861 l 235 735 l 190 869 z "},"õ":{"ha":846,"x_min":21,"x_max":825,"o":"m 422 -24 q 210 23 301 -24 q 70 153 119 69 q 21 346 21 238 q 70 538 21 454 q 210 669 119 622 q 422 715 301 715 q 635 669 543 715 q 776 538 726 622 q 825 346 825 454 q 776 153 825 238 q 635 23 726 69 q 422 -24 543 -24 m 422 200 q 517 240 482 200 q 551 346 551 281 q 517 451 551 411 q 422 492 482 492 q 328 451 364 492 q 293 346 293 410 q 328 241 293 282 q 422 200 364 200 m 531 746 q 475 756 499 746 q 418 785 451 765 q 374 809 393 801 q 335 817 356 817 q 224 768 276 817 l 172 881 q 319 965 240 965 q 375 956 351 965 q 432 926 399 946 q 476 902 457 910 q 515 894 494 894 q 626 943 574 894 l 678 831 q 531 746 610 746 z "},"ŕ":{"ha":624,"x_min":69,"x_max":601,"o":"m 79 690 l 351 690 l 351 536 q 424 660 369 615 q 550 704 478 704 q 601 700 576 704 l 601 443 q 532 449 567 449 q 399 401 447 449 q 351 232 351 353 l 351 0 l 79 0 l 79 690 m 69 869 l 479 994 l 521 861 l 114 735 l 69 869 z "},"ř":{"ha":624,"x_min":78,"x_max":601,"o":"m 79 690 l 351 690 l 351 536 q 424 660 369 615 q 550 704 478 704 q 601 700 576 704 l 601 443 q 532 449 567 449 q 399 401 447 449 q 351 232 351 353 l 351 0 l 79 0 l 79 690 m 78 906 l 178 996 l 299 899 l 421 997 l 521 906 l 299 735 l 78 906 z "},"ŗ":{"ha":624,"x_min":79,"x_max":601,"o":"m 79 690 l 351 690 l 351 536 q 424 660 369 615 q 550 704 478 704 q 601 700 576 704 l 601 443 q 532 449 567 449 q 399 401 447 449 q 351 232 351 353 l 351 0 l 79 0 l 79 690 m 154 -244 q 228 -229 207 -244 q 245 -210 240 -221 q 253 -182 250 -200 q 207 -201 240 -201 q 148 -180 169 -201 q 126 -124 126 -158 q 151 -65 126 -87 q 214 -43 175 -43 q 293 -72 263 -43 q 324 -151 324 -100 q 281 -263 324 -225 q 154 -303 238 -301 l 154 -244 z "},"ś":{"ha":751,"x_min":31,"x_max":719,"o":"m 386 -24 q 195 5 275 -24 q 73 85 115 33 q 31 206 31 138 l 301 206 q 325 158 301 176 q 388 140 349 140 q 433 153 415 140 q 450 189 450 167 q 403 235 450 224 l 239 272 q 94 347 144 293 q 43 481 43 400 q 130 652 43 589 q 367 715 217 715 q 621 659 533 715 q 708 499 708 603 l 440 499 q 421 543 440 528 q 367 558 401 558 q 324 547 340 558 q 307 517 307 536 q 365 464 307 479 l 528 422 q 671 351 622 399 q 719 224 719 303 q 629 43 719 110 q 386 -24 539 -24 m 142 869 l 551 994 l 593 861 l 186 735 l 142 869 z "},"š":{"ha":751,"x_min":31,"x_max":719,"o":"m 386 -24 q 195 5 275 -24 q 73 85 115 33 q 31 206 31 138 l 301 206 q 325 158 301 176 q 388 140 349 140 q 433 153 415 140 q 450 189 450 167 q 403 235 450 224 l 239 272 q 94 347 144 293 q 43 481 43 400 q 130 652 43 589 q 367 715 217 715 q 621 659 533 715 q 708 499 708 603 l 440 499 q 421 543 440 528 q 367 558 401 558 q 324 547 340 558 q 307 517 307 536 q 365 464 307 479 l 528 422 q 671 351 622 399 q 719 224 719 303 q 629 43 719 110 q 386 -24 539 -24 m 150 906 l 250 996 l 371 899 l 493 997 l 593 906 l 371 735 l 150 906 z "},"ş":{"ha":751,"x_min":31,"x_max":719,"o":"m 719 224 q 642 54 719 119 q 432 -22 565 -11 l 432 -82 q 492 -65 451 -65 q 570 -96 540 -65 q 600 -172 600 -126 q 563 -253 600 -219 q 460 -287 525 -287 q 361 -260 400 -287 q 318 -189 322 -233 l 418 -189 q 431 -208 419 -200 q 457 -215 442 -215 q 488 -203 476 -215 q 499 -168 499 -190 q 488 -137 499 -147 q 460 -126 478 -126 q 424 -144 433 -126 l 332 -144 l 332 -22 q 110 49 190 -12 q 31 206 31 111 l 301 206 q 325 158 301 176 q 388 140 349 140 q 433 153 415 140 q 450 189 450 167 q 403 235 450 224 l 239 272 q 94 347 144 293 q 43 481 43 400 q 130 652 43 589 q 367 715 217 715 q 621 659 533 715 q 708 499 708 603 l 440 499 q 421 543 440 528 q 367 558 401 558 q 324 547 340 558 q 307 517 307 536 q 365 464 307 479 l 528 422 q 671 351 622 399 q 719 224 719 303 z "},"ŝ":{"ha":751,"x_min":31,"x_max":719,"o":"m 386 -24 q 195 5 275 -24 q 73 85 115 33 q 31 206 31 138 l 301 206 q 325 158 301 176 q 388 140 349 140 q 433 153 415 140 q 450 189 450 167 q 403 235 450 224 l 239 272 q 94 347 144 293 q 43 481 43 400 q 130 652 43 589 q 367 715 217 715 q 621 659 533 715 q 708 499 708 603 l 440 499 q 421 543 440 528 q 367 558 401 558 q 324 547 340 558 q 307 517 307 536 q 365 464 307 479 l 528 422 q 671 351 622 399 q 719 224 719 303 q 629 43 719 110 q 386 -24 539 -24 m 593 826 l 493 735 l 371 833 l 250 736 l 150 826 l 371 997 l 593 826 z "},"ș":{"ha":751,"x_min":31,"x_max":719,"o":"m 386 -24 q 195 5 275 -24 q 73 85 115 33 q 31 206 31 138 l 301 206 q 325 158 301 176 q 388 140 349 140 q 433 153 415 140 q 450 189 450 167 q 403 235 450 224 l 239 272 q 94 347 144 293 q 43 481 43 400 q 130 652 43 589 q 367 715 217 715 q 621 659 533 715 q 708 499 708 603 l 440 499 q 421 543 440 528 q 367 558 401 558 q 324 547 340 558 q 307 517 307 536 q 365 464 307 479 l 528 422 q 671 351 622 399 q 719 224 719 303 q 629 43 719 110 q 386 -24 539 -24 m 321 -244 q 394 -229 374 -244 q 412 -210 407 -221 q 419 -182 417 -200 q 374 -201 407 -201 q 315 -180 336 -201 q 293 -124 293 -158 q 317 -65 293 -87 q 381 -43 342 -43 q 460 -72 429 -43 q 490 -151 490 -100 q 447 -263 490 -225 q 321 -303 404 -301 l 321 -244 z "},"ŧ":{"ha":603,"x_min":21,"x_max":575,"o":"m 506 201 q 575 207 531 201 l 575 0 q 406 -14 497 -14 q 213 40 288 -14 q 139 249 139 94 l 139 314 l 21 314 l 21 399 l 139 399 l 139 482 l 38 482 l 38 690 l 139 690 l 139 892 l 411 892 l 411 690 l 568 690 l 568 482 l 411 482 l 411 399 l 551 399 l 551 314 l 411 314 l 411 306 q 437 224 411 246 q 506 201 463 201 z "},"ť":{"ha":615,"x_min":21,"x_max":639,"o":"m 529 1003 q 609 971 579 1003 q 639 878 639 939 q 600 763 639 804 q 493 722 561 722 q 467 724 476 722 l 467 779 q 489 778 476 778 q 554 803 533 778 q 567 857 567 821 q 547 843 561 849 q 515 838 532 838 q 462 860 483 838 q 440 919 440 883 q 465 980 440 957 q 529 1003 489 1003 m 394 306 q 420 224 394 246 q 489 201 446 201 q 558 207 514 201 l 558 0 q 389 -14 481 -14 q 197 40 271 -14 q 122 249 122 94 l 122 482 l 21 482 l 21 690 l 122 690 l 122 892 l 394 892 l 394 690 l 551 690 l 551 482 l 394 482 l 394 306 z "},"ţ":{"ha":586,"x_min":21,"x_max":582,"o":"m 474 -65 q 552 -96 522 -65 q 582 -172 582 -126 q 544 -253 582 -219 q 442 -287 507 -287 q 343 -260 382 -287 q 300 -189 304 -233 l 400 -189 q 413 -208 401 -200 q 439 -215 424 -215 q 469 -203 458 -215 q 481 -168 481 -190 q 470 -137 481 -147 q 442 -126 460 -126 q 406 -144 415 -126 l 314 -144 l 314 -8 q 174 63 226 4 q 122 249 122 122 l 122 482 l 21 482 l 21 690 l 122 690 l 122 892 l 394 892 l 394 690 l 551 690 l 551 482 l 394 482 l 394 306 q 420 224 394 246 q 489 201 446 201 q 558 207 514 201 l 558 0 q 414 -14 481 -12 l 414 -82 q 474 -65 433 -65 z "},"ț":{"ha":586,"x_min":21,"x_max":558,"o":"m 489 201 q 558 207 514 201 l 558 0 q 389 -14 481 -14 q 197 40 271 -14 q 122 249 122 94 l 122 482 l 21 482 l 21 690 l 122 690 l 122 892 l 394 892 l 394 690 l 551 690 l 551 482 l 394 482 l 394 306 q 420 224 394 246 q 489 201 446 201 m 303 -244 q 376 -229 356 -244 q 394 -210 389 -221 q 401 -182 399 -200 q 356 -201 389 -201 q 297 -180 318 -201 q 275 -124 275 -158 q 299 -65 275 -87 q 363 -43 324 -43 q 442 -72 411 -43 q 472 -151 472 -100 q 429 -263 472 -225 q 303 -303 386 -301 l 303 -244 z "},"þ":{"ha":910,"x_min":79,"x_max":881,"o":"m 572 710 q 732 665 663 710 q 841 536 801 619 q 881 344 881 453 q 841 155 881 238 q 730 26 801 72 q 568 -19 658 -19 q 433 16 490 -19 q 351 103 375 51 l 351 -264 l 79 -264 l 79 975 l 351 975 l 351 588 q 434 675 375 640 q 572 710 493 710 m 469 197 q 563 239 526 197 q 599 344 599 281 q 563 450 599 410 q 469 490 526 490 q 376 450 413 490 q 340 344 340 410 q 376 238 340 279 q 469 197 413 197 z "},"ú":{"ha":892,"x_min":72,"x_max":814,"o":"m 326 -19 q 134 57 196 -19 q 72 269 72 133 l 72 690 l 349 690 l 349 329 q 442 208 349 208 q 540 338 540 208 l 540 690 l 814 690 l 814 0 l 540 0 l 540 103 q 460 13 515 46 q 326 -19 406 -19 m 217 869 l 626 994 l 668 861 l 261 735 l 217 869 z "},"ŭ":{"ha":892,"x_min":72,"x_max":814,"o":"m 326 -19 q 134 57 196 -19 q 72 269 72 133 l 72 690 l 349 690 l 349 329 q 442 208 349 208 q 540 338 540 208 l 540 690 l 814 690 l 814 0 l 540 0 l 540 103 q 460 13 515 46 q 326 -19 406 -19 m 449 746 q 257 801 325 746 q 185 957 189 857 l 368 957 q 449 881 372 881 q 528 957 524 881 l 713 957 q 636 802 707 858 q 449 746 565 746 z "},"û":{"ha":892,"x_min":72,"x_max":814,"o":"m 326 -19 q 134 57 196 -19 q 72 269 72 133 l 72 690 l 349 690 l 349 329 q 442 208 349 208 q 540 338 540 208 l 540 690 l 814 690 l 814 0 l 540 0 l 540 103 q 460 13 515 46 q 326 -19 406 -19 m 668 826 l 568 735 l 446 833 l 325 736 l 225 826 l 446 997 l 668 826 z "},"ü":{"ha":892,"x_min":72,"x_max":814,"o":"m 326 -19 q 134 57 196 -19 q 72 269 72 133 l 72 690 l 349 690 l 349 329 q 442 208 349 208 q 540 338 540 208 l 540 690 l 814 690 l 814 0 l 540 0 l 540 103 q 460 13 515 46 q 326 -19 406 -19 m 285 751 q 190 790 229 751 q 151 882 151 828 q 190 975 151 936 q 285 1014 229 1014 q 381 975 342 1014 q 419 882 419 936 q 381 790 419 828 q 285 751 342 751 m 613 751 q 517 790 556 751 q 479 882 479 828 q 517 975 479 936 q 613 1014 556 1014 q 708 975 669 1014 q 746 882 746 936 q 708 790 746 828 q 613 751 669 751 z "},"ù":{"ha":892,"x_min":72,"x_max":814,"o":"m 326 -19 q 134 57 196 -19 q 72 269 72 133 l 72 690 l 349 690 l 349 329 q 442 208 349 208 q 540 338 540 208 l 540 690 l 814 690 l 814 0 l 540 0 l 540 103 q 460 13 515 46 q 326 -19 406 -19 m 213 857 l 254 990 l 664 865 l 619 731 l 213 857 z "},"ű":{"ha":892,"x_min":72,"x_max":814,"o":"m 326 -19 q 134 57 196 -19 q 72 269 72 133 l 72 690 l 349 690 l 349 329 q 442 208 349 208 q 540 338 540 208 l 540 690 l 814 690 l 814 0 l 540 0 l 540 103 q 460 13 515 46 q 326 -19 406 -19 m 226 778 l 403 992 l 535 908 l 318 731 l 226 778 m 497 778 l 674 992 l 806 908 l 589 731 l 497 778 z "},"ū":{"ha":892,"x_min":72,"x_max":814,"o":"m 326 -19 q 134 57 196 -19 q 72 269 72 133 l 72 690 l 349 690 l 349 329 q 442 208 349 208 q 540 338 540 208 l 540 690 l 814 690 l 814 0 l 540 0 l 540 103 q 460 13 515 46 q 326 -19 406 -19 m 196 936 l 701 936 l 701 793 l 196 793 l 196 936 z "},"ų":{"ha":892,"x_min":72,"x_max":814,"o":"m 814 0 q 706 -28 738 -3 q 675 -86 675 -53 q 694 -130 675 -112 q 743 -147 713 -147 q 810 -131 778 -147 l 810 -253 q 739 -274 772 -268 q 657 -279 706 -279 q 510 -240 563 -279 q 458 -142 458 -201 q 550 0 458 -51 l 540 0 l 540 103 q 460 13 515 46 q 326 -19 406 -19 q 134 57 196 -19 q 72 269 72 133 l 72 690 l 349 690 l 349 329 q 442 208 349 208 q 540 338 540 208 l 540 690 l 814 690 l 814 0 z "},"ů":{"ha":892,"x_min":72,"x_max":814,"o":"m 326 -19 q 134 57 196 -19 q 72 269 72 133 l 72 690 l 349 690 l 349 329 q 442 208 349 208 q 540 338 540 208 l 540 690 l 814 690 l 814 0 l 540 0 l 540 103 q 460 13 515 46 q 326 -19 406 -19 m 449 732 q 334 774 379 732 q 289 882 289 815 q 334 990 289 949 q 449 1032 379 1032 q 563 990 518 1032 q 608 882 608 949 q 563 774 608 815 q 449 732 518 732 m 449 811 q 494 831 476 811 q 513 882 513 851 q 494 932 513 913 q 449 951 476 951 q 403 932 421 951 q 385 882 385 913 q 403 831 385 851 q 449 811 421 811 z "},"ũ":{"ha":892,"x_min":72,"x_max":814,"o":"m 326 -19 q 134 57 196 -19 q 72 269 72 133 l 72 690 l 349 690 l 349 329 q 442 208 349 208 q 540 338 540 208 l 540 690 l 814 690 l 814 0 l 540 0 l 540 103 q 460 13 515 46 q 326 -19 406 -19 m 557 746 q 501 756 525 746 q 444 785 478 765 q 401 809 419 801 q 361 817 382 817 q 250 768 303 817 l 199 881 q 346 965 267 965 q 401 956 378 965 q 458 926 425 946 q 502 902 483 910 q 542 894 521 894 q 653 943 600 894 l 704 831 q 557 746 636 746 z "},"ẃ":{"ha":1196,"x_min":3,"x_max":1194,"o":"m 3 690 l 279 690 l 386 308 l 474 690 l 722 690 l 810 308 l 917 690 l 1194 690 l 950 0 l 699 0 l 599 354 l 497 0 l 246 0 l 3 690 m 367 869 l 776 994 l 818 861 l 411 735 l 367 869 z "},"ŵ":{"ha":1196,"x_min":3,"x_max":1194,"o":"m 3 690 l 279 690 l 386 308 l 474 690 l 722 690 l 810 308 l 917 690 l 1194 690 l 950 0 l 699 0 l 599 354 l 497 0 l 246 0 l 3 690 m 818 826 l 718 735 l 596 833 l 475 736 l 375 826 l 596 997 l 818 826 z "},"ẅ":{"ha":1196,"x_min":3,"x_max":1194,"o":"m 3 690 l 279 690 l 386 308 l 474 690 l 722 690 l 810 308 l 917 690 l 1194 690 l 950 0 l 699 0 l 599 354 l 497 0 l 246 0 l 3 690 m 435 751 q 340 790 379 751 q 301 882 301 828 q 340 975 301 936 q 435 1014 379 1014 q 531 975 492 1014 q 569 882 569 936 q 531 790 569 828 q 435 751 492 751 m 763 751 q 667 790 706 751 q 629 882 629 828 q 667 975 629 936 q 763 1014 706 1014 q 858 975 819 1014 q 896 882 896 936 q 858 790 896 828 q 763 751 819 751 z "},"ẁ":{"ha":1196,"x_min":3,"x_max":1194,"o":"m 3 690 l 279 690 l 386 308 l 474 690 l 722 690 l 810 308 l 917 690 l 1194 690 l 950 0 l 699 0 l 599 354 l 497 0 l 246 0 l 3 690 m 363 857 l 404 990 l 814 865 l 769 731 l 363 857 z "},"ý":{"ha":894,"x_min":72,"x_max":815,"o":"m 815 690 l 815 46 q 787 -104 815 -39 q 711 -210 758 -169 q 597 -269 660 -251 q 439 -287 535 -287 q 275 -271 340 -287 q 164 -217 210 -254 q 98 -134 124 -183 q 72 -33 72 -85 l 344 -33 q 370 -85 347 -67 q 439 -104 393 -104 q 543 7 543 -104 l 543 133 q 460 47 515 78 q 328 15 404 15 q 72 310 72 15 l 72 690 l 344 690 l 344 342 q 367 251 344 282 q 439 221 389 221 q 543 364 543 221 l 543 690 l 815 690 m 206 869 l 615 994 l 657 861 l 250 735 l 206 869 z "},"ŷ":{"ha":894,"x_min":72,"x_max":815,"o":"m 815 690 l 815 46 q 787 -104 815 -39 q 711 -210 758 -169 q 597 -269 660 -251 q 439 -287 535 -287 q 275 -271 340 -287 q 164 -217 210 -254 q 98 -134 124 -183 q 72 -33 72 -85 l 344 -33 q 370 -85 347 -67 q 439 -104 393 -104 q 543 7 543 -104 l 543 133 q 460 47 515 78 q 328 15 404 15 q 72 310 72 15 l 72 690 l 344 690 l 344 342 q 367 251 344 282 q 439 221 389 221 q 543 364 543 221 l 543 690 l 815 690 m 657 826 l 557 735 l 435 833 l 314 736 l 214 826 l 435 997 l 657 826 z "},"ÿ":{"ha":894,"x_min":72,"x_max":815,"o":"m 815 690 l 815 46 q 787 -104 815 -39 q 711 -210 758 -169 q 597 -269 660 -251 q 439 -287 535 -287 q 275 -271 340 -287 q 164 -217 210 -254 q 98 -134 124 -183 q 72 -33 72 -85 l 344 -33 q 370 -85 347 -67 q 439 -104 393 -104 q 543 7 543 -104 l 543 133 q 460 47 515 78 q 328 15 404 15 q 72 310 72 15 l 72 690 l 344 690 l 344 342 q 367 251 344 282 q 439 221 389 221 q 543 364 543 221 l 543 690 l 815 690 m 274 751 q 179 790 218 751 q 140 882 140 828 q 179 975 140 936 q 274 1014 218 1014 q 369 975 331 1014 q 408 882 408 936 q 369 790 408 828 q 274 751 331 751 m 601 751 q 506 790 544 751 q 468 882 468 828 q 506 975 468 936 q 601 1014 544 1014 q 697 975 658 1014 q 735 882 735 936 q 697 790 735 828 q 601 751 658 751 z "},"ỳ":{"ha":894,"x_min":72,"x_max":815,"o":"m 815 690 l 815 46 q 787 -104 815 -39 q 711 -210 758 -169 q 597 -269 660 -251 q 439 -287 535 -287 q 275 -271 340 -287 q 164 -217 210 -254 q 98 -134 124 -183 q 72 -33 72 -85 l 344 -33 q 370 -85 347 -67 q 439 -104 393 -104 q 543 7 543 -104 l 543 133 q 460 47 515 78 q 328 15 404 15 q 72 310 72 15 l 72 690 l 344 690 l 344 342 q 367 251 344 282 q 439 221 389 221 q 543 364 543 221 l 543 690 l 815 690 m 201 857 l 243 990 l 653 865 l 608 731 l 201 857 z "},"ź":{"ha":717,"x_min":7,"x_max":710,"o":"m 314 468 l 40 468 l 40 690 l 710 690 l 413 222 l 682 222 l 682 0 l 7 0 l 314 468 m 126 869 l 536 994 l 578 861 l 171 735 l 126 869 z "},"ž":{"ha":717,"x_min":7,"x_max":710,"o":"m 314 468 l 40 468 l 40 690 l 710 690 l 413 222 l 682 222 l 682 0 l 7 0 l 314 468 m 135 906 l 235 996 l 356 899 l 478 997 l 578 906 l 356 735 l 135 906 z "},"ż":{"ha":717,"x_min":7,"x_max":710,"o":"m 314 468 l 40 468 l 40 690 l 710 690 l 413 222 l 682 222 l 682 0 l 7 0 l 314 468 m 358 749 q 254 789 296 749 q 213 890 213 829 q 254 992 213 951 q 358 1032 296 1032 q 462 992 421 1032 q 503 890 503 951 q 462 789 503 829 q 358 749 421 749 z "},"ß":{"ha":889,"x_min":74,"x_max":857,"o":"m 531 -19 q 460 -15 490 -19 q 388 0 429 -10 l 388 194 q 457 186 419 186 q 540 216 508 186 q 571 297 571 246 q 538 381 571 346 q 447 415 504 415 l 392 415 l 392 597 l 440 597 q 534 628 501 597 q 567 707 567 660 q 538 783 567 756 q 458 811 508 811 q 376 778 404 811 q 347 689 347 746 l 347 0 l 74 0 l 74 639 q 164 897 74 796 q 467 999 254 999 q 737 927 639 999 q 835 732 835 856 q 781 584 835 646 q 639 510 726 522 q 749 469 699 506 q 828 374 799 432 q 857 253 857 317 q 815 108 857 169 q 699 13 774 46 q 531 -19 625 -19 z "},"&":{"ha":894,"x_min":32,"x_max":890,"o":"m 890 321 l 843 321 q 794 144 840 224 q 660 19 749 65 q 444 -26 571 -26 q 234 6 328 -26 q 86 104 140 39 q 32 263 32 169 q 88 419 32 354 q 224 503 144 483 q 100 577 150 521 q 50 721 50 633 q 101 870 50 807 q 239 966 153 933 q 428 999 325 999 q 732 909 642 999 q 822 681 822 819 l 531 681 q 431 806 531 806 q 363 780 390 806 q 336 711 336 754 q 362 636 336 665 q 440 607 388 607 l 468 607 l 468 408 l 444 408 q 367 377 393 408 q 342 297 342 346 q 370 220 342 251 q 449 189 399 189 q 528 221 497 189 q 561 321 558 253 l 507 321 l 507 524 l 890 524 l 890 321 z "},"`":{"ha":833,"x_min":28,"x_max":479,"o":"m 28 857 l 69 990 l 479 865 l 435 731 l 28 857 z "},"´":{"ha":833,"x_min":74,"x_max":525,"o":"m 74 869 l 483 994 l 525 861 l 118 735 l 74 869 z "},"ˆ":{"ha":833,"x_min":103,"x_max":546,"o":"m 546 826 l 446 735 l 324 833 l 203 736 l 103 826 l 324 997 l 546 826 z "},"˜":{"ha":833,"x_min":76,"x_max":582,"o":"m 435 746 q 379 756 403 746 q 322 785 356 765 q 278 809 297 801 q 239 817 260 817 q 128 768 181 817 l 76 881 q 224 965 144 965 q 279 956 256 965 q 336 926 303 946 q 380 902 361 910 q 419 894 399 894 q 531 943 478 894 l 582 831 q 435 746 514 746 z "},"ˇ":{"ha":833,"x_min":103,"x_max":546,"o":"m 103 906 l 203 996 l 324 899 l 446 997 l 546 906 l 324 735 l 103 906 z "},"¨":{"ha":833,"x_min":72,"x_max":667,"o":"m 206 751 q 111 790 150 751 q 72 882 72 828 q 111 975 72 936 q 206 1014 150 1014 q 301 975 263 1014 q 340 882 340 936 q 301 790 340 828 q 206 751 263 751 m 533 751 q 438 790 476 751 q 400 882 400 828 q 438 975 400 936 q 533 1014 476 1014 q 628 975 590 1014 q 667 882 667 936 q 628 790 667 828 q 533 751 590 751 z "},"¯":{"ha":833,"x_min":65,"x_max":571,"o":"m 65 936 l 571 936 l 571 793 l 65 793 l 65 936 z "},"˘":{"ha":833,"x_min":88,"x_max":615,"o":"m 351 746 q 160 801 228 746 q 88 957 92 857 l 271 957 q 351 881 275 881 q 431 957 426 881 l 615 957 q 539 802 610 858 q 351 746 468 746 z "},"˚":{"ha":833,"x_min":56,"x_max":375,"o":"m 215 617 q 101 658 146 617 q 56 767 56 700 q 101 875 56 833 q 215 917 146 917 q 330 875 285 917 q 375 767 375 833 q 330 658 375 700 q 215 617 285 617 m 215 696 q 261 716 243 696 q 279 767 279 736 q 261 817 279 797 q 215 836 243 836 q 169 817 188 836 q 151 767 151 797 q 169 716 151 736 q 215 696 188 696 z "},"˝":{"ha":833,"x_min":60,"x_max":639,"o":"m 60 778 l 236 992 l 368 908 l 151 731 l 60 778 m 331 778 l 507 992 l 639 908 l 422 731 l 331 778 z "},"˙":{"ha":833,"x_min":271,"x_max":561,"o":"m 417 749 q 313 789 354 749 q 271 890 271 829 q 313 992 271 951 q 417 1032 354 1032 q 520 992 479 1032 q 561 890 561 951 q 520 789 561 829 q 417 749 479 749 z "},"¸":{"ha":833,"x_min":63,"x_max":344,"o":"m 204 -287 q 106 -260 144 -287 q 63 -189 67 -233 l 163 -189 q 175 -208 164 -200 q 201 -215 186 -215 q 232 -203 221 -215 q 243 -168 243 -190 q 233 -137 243 -147 q 204 -126 222 -126 q 168 -144 176 -126 l 76 -144 l 76 8 l 176 8 l 176 -82 q 236 -65 196 -65 q 315 -96 285 -65 q 344 -172 344 -126 q 307 -253 344 -219 q 204 -287 269 -287 z "},"˛":{"ha":833,"x_min":56,"x_max":411,"o":"m 254 -279 q 108 -240 160 -279 q 56 -142 56 -201 q 147 0 56 -51 l 411 0 q 303 -28 335 -3 q 272 -86 272 -53 q 291 -130 272 -112 q 340 -147 310 -147 q 407 -131 375 -147 l 407 -253 q 336 -274 369 -268 q 254 -279 303 -279 z "},",":{"ha":475,"x_min":65,"x_max":406,"o":"m 122 -222 q 71 -217 101 -222 l 71 -121 q 132 -125 104 -125 q 244 -83 206 -125 q 286 8 282 -46 q 257 -9 276 -3 q 215 -15 238 -15 q 106 29 146 -15 q 65 139 65 74 q 110 249 65 204 q 225 293 156 293 q 354 234 303 293 q 406 71 406 175 q 331 -148 406 -74 q 122 -222 257 -222 z "},";":{"ha":475,"x_min":65,"x_max":406,"o":"m 122 -222 q 71 -217 101 -222 l 71 -121 q 132 -125 104 -125 q 244 -83 206 -125 q 286 8 282 -46 q 257 -9 276 -3 q 215 -15 238 -15 q 106 29 146 -15 q 65 139 65 74 q 110 249 65 204 q 225 293 156 293 q 354 234 303 293 q 406 71 406 175 q 331 -148 406 -74 q 122 -222 257 -222 m 233 406 q 119 452 165 406 q 74 563 74 499 q 119 672 74 626 q 233 718 165 718 q 346 672 300 718 q 392 563 392 626 q 346 452 392 499 q 233 406 300 406 z "},":":{"ha":465,"x_min":74,"x_max":392,"o":"m 233 -18 q 119 28 165 -18 q 74 139 74 75 q 119 249 74 203 q 233 294 165 294 q 346 249 300 294 q 392 139 392 203 q 346 28 392 75 q 233 -18 300 -18 m 233 406 q 119 452 165 406 q 74 563 74 499 q 119 672 74 626 q 233 718 165 718 q 346 672 300 718 q 392 563 392 626 q 346 452 392 499 q 233 406 300 406 z "},".":{"ha":465,"x_min":74,"x_max":392,"o":"m 233 -18 q 119 28 165 -18 q 74 139 74 75 q 119 249 74 203 q 233 294 165 294 q 346 249 300 294 q 392 139 392 203 q 346 28 392 75 q 233 -18 300 -18 z "},"…":{"ha":1290,"x_min":74,"x_max":1217,"o":"m 233 -24 q 119 23 165 -24 q 74 133 74 69 q 119 243 74 197 q 233 289 165 289 q 346 243 300 289 q 392 133 392 197 q 346 23 392 69 q 233 -24 300 -24 m 643 -24 q 529 23 575 -24 q 483 133 483 69 q 529 243 483 197 q 643 289 575 289 q 756 243 710 289 q 801 133 801 197 q 756 23 801 69 q 643 -24 710 -24 m 1058 -24 q 944 23 990 -24 q 899 133 899 69 q 944 243 899 197 q 1058 289 990 289 q 1171 243 1125 289 q 1217 133 1217 197 q 1171 23 1217 69 q 1058 -24 1125 -24 z "},"-":{"ha":564,"x_min":56,"x_max":508,"o":"m 56 506 l 508 506 l 508 300 l 56 300 l 56 506 z "},"!":{"ha":468,"x_min":63,"x_max":406,"o":"m 90 972 l 378 972 l 378 368 l 90 368 l 90 972 m 233 -15 q 112 34 161 -15 q 63 154 63 83 q 112 273 63 224 q 233 322 161 322 q 356 273 306 322 q 406 154 406 224 q 356 34 406 83 q 233 -15 306 -15 z "},"¡":{"ha":468,"x_min":63,"x_max":406,"o":"m 233 724 q 356 674 306 724 q 406 554 406 625 q 356 435 406 485 q 233 386 306 386 q 112 435 161 386 q 63 554 63 485 q 112 674 63 625 q 233 724 161 724 m 378 340 l 378 -264 l 90 -264 l 90 340 l 378 340 z "},"?":{"ha":751,"x_min":-17,"x_max":751,"o":"m 221 383 q 244 495 221 453 q 332 574 268 538 l 399 613 q 449 658 433 635 q 465 715 465 681 q 442 777 465 754 q 378 800 418 800 q 298 771 328 800 q 268 681 268 742 l -17 681 q 24 836 -17 764 q 155 953 65 908 q 383 999 244 999 q 648 931 544 999 q 751 729 751 864 q 714 592 751 647 q 618 496 676 538 l 557 454 q 518 419 529 435 q 507 383 507 404 l 507 369 l 221 369 l 221 383 m 363 -15 q 242 34 292 -15 q 193 154 193 83 q 242 273 193 224 q 363 322 292 322 q 485 273 436 322 q 535 154 535 224 q 485 34 535 83 q 363 -15 436 -15 z "},"¿":{"ha":751,"x_min":0,"x_max":768,"o":"m 389 778 q 509 728 460 778 q 558 608 558 679 q 509 490 558 539 q 389 440 460 440 q 266 490 315 440 q 217 608 217 539 q 266 728 217 679 q 389 778 315 778 m 531 379 q 507 267 531 310 q 419 189 483 225 l 353 150 q 302 105 318 128 q 286 47 286 82 q 310 -15 286 8 q 374 -37 333 -37 q 453 -8 424 -37 q 483 82 483 21 l 768 82 q 727 -74 768 -1 q 597 -191 686 -146 q 368 -236 507 -236 q 103 -169 207 -236 q 0 33 0 -101 q 38 170 0 115 q 133 267 75 225 l 194 308 q 233 343 222 328 q 244 379 244 358 l 244 393 l 531 393 l 531 379 z "},"‘":{"ha":425,"x_min":65,"x_max":372,"o":"m 228 553 q 111 607 157 553 q 65 758 65 661 q 132 958 65 890 q 321 1026 199 1026 q 367 1022 325 1026 l 367 935 q 314 938 347 938 q 210 900 250 938 q 171 815 178 868 q 199 831 181 825 q 236 838 217 838 q 335 797 299 838 q 372 694 372 756 q 331 594 372 635 q 228 553 290 553 z "},"’":{"ha":425,"x_min":53,"x_max":360,"o":"m 197 1004 q 314 950 268 1004 q 360 799 360 896 q 293 599 360 667 q 104 531 226 531 q 58 535 100 531 l 58 622 q 111 619 78 619 q 215 657 175 619 q 254 742 247 689 q 227 726 244 732 q 189 719 210 719 q 90 760 126 719 q 53 863 53 801 q 94 963 53 922 q 197 1004 135 1004 z "},"“":{"ha":764,"x_min":65,"x_max":711,"o":"m 228 553 q 111 607 157 553 q 65 758 65 661 q 132 958 65 890 q 321 1026 199 1026 q 367 1022 325 1026 l 367 935 q 314 938 347 938 q 210 900 250 938 q 171 815 178 868 q 199 831 181 825 q 236 838 217 838 q 335 797 299 838 q 372 694 372 756 q 331 594 372 635 q 228 553 290 553 m 567 553 q 450 607 496 553 q 404 758 404 661 q 471 958 404 890 q 660 1026 538 1026 q 706 1022 664 1026 l 706 935 q 653 938 686 938 q 549 900 589 938 q 510 815 517 868 q 538 831 519 825 q 575 838 556 838 q 674 797 638 838 q 711 694 711 756 q 670 594 711 635 q 567 553 629 553 z "},"”":{"ha":764,"x_min":53,"x_max":699,"o":"m 197 1004 q 314 950 268 1004 q 360 799 360 896 q 293 599 360 667 q 104 531 226 531 q 58 535 100 531 l 58 622 q 111 619 78 619 q 215 657 175 619 q 254 742 247 689 q 227 726 244 732 q 189 719 210 719 q 90 760 126 719 q 53 863 53 801 q 94 963 53 922 q 197 1004 135 1004 m 536 1004 q 653 950 607 1004 q 699 799 699 896 q 632 599 699 667 q 443 531 565 531 q 397 535 439 531 l 397 622 q 450 619 417 619 q 554 657 514 619 q 593 742 586 689 q 566 726 583 732 q 528 719 549 719 q 428 760 465 719 q 392 863 392 801 q 433 963 392 922 q 536 1004 474 1004 z "},"‚":{"ha":425,"x_min":53,"x_max":360,"o":"m 197 226 q 314 172 268 226 q 360 21 360 118 q 293 -179 360 -111 q 104 -247 226 -247 q 58 -243 100 -247 l 58 -156 q 111 -158 78 -158 q 215 -121 175 -158 q 254 -36 247 -89 q 226 -52 244 -46 q 189 -58 208 -58 q 90 -17 126 -58 q 53 85 53 24 q 94 185 53 144 q 197 226 135 226 z "},"„":{"ha":764,"x_min":53,"x_max":699,"o":"m 197 226 q 314 172 268 226 q 360 21 360 118 q 293 -179 360 -111 q 104 -247 226 -247 q 58 -243 100 -247 l 58 -156 q 111 -158 78 -158 q 215 -121 175 -158 q 254 -36 247 -89 q 226 -52 244 -46 q 189 -58 208 -58 q 90 -17 126 -58 q 53 85 53 24 q 94 185 53 144 q 197 226 135 226 m 536 226 q 653 172 607 226 q 699 21 699 118 q 632 -179 699 -111 q 443 -247 565 -247 q 397 -243 439 -247 l 397 -156 q 450 -158 417 -158 q 554 -121 514 -158 q 593 -36 586 -89 q 566 -52 583 -46 q 528 -58 549 -58 q 428 -17 465 -58 q 392 85 392 24 q 433 185 392 144 q 536 226 474 226 z "},"‹":{"ha":451,"x_min":3,"x_max":438,"o":"m 3 386 l 318 689 l 438 557 l 254 386 l 438 214 l 318 83 l 3 386 z "},"›":{"ha":451,"x_min":14,"x_max":449,"o":"m 14 214 l 197 386 l 14 557 l 133 689 l 449 386 l 133 83 l 14 214 z "},"/":{"ha":686,"x_min":14,"x_max":672,"o":"m 14 -19 l 474 1049 l 672 964 l 213 -104 l 14 -19 z "},"|":{"ha":360,"x_min":86,"x_max":275,"o":"m 86 1018 l 275 1018 l 275 -268 l 86 -268 l 86 1018 z "},"–":{"ha":872,"x_min":56,"x_max":817,"o":"m 56 489 l 817 489 l 817 325 l 56 325 l 56 489 z "},"—":{"ha":1125,"x_min":56,"x_max":1069,"o":"m 56 489 l 1069 489 l 1069 325 l 56 325 l 56 489 z "},"•":{"ha":528,"x_min":51,"x_max":476,"o":"m 263 224 q 156 252 204 224 q 79 328 107 281 q 51 433 51 376 q 79 538 51 490 q 156 614 107 586 q 263 642 204 642 q 372 614 322 642 q 449 538 421 586 q 476 433 476 490 q 449 328 476 376 q 372 252 421 281 q 263 224 322 224 z "},"(":{"ha":525,"x_min":51,"x_max":542,"o":"m 369 -293 q 135 4 219 -154 q 51 378 51 163 q 135 750 51 592 q 369 1047 219 908 l 542 901 q 357 659 414 775 q 300 378 300 543 q 357 96 300 213 q 542 -147 414 -21 l 369 -293 z "},")":{"ha":525,"x_min":-17,"x_max":474,"o":"m -17 -147 q 168 96 111 -21 q 225 378 225 213 q 168 659 225 543 q -17 901 111 775 l 156 1047 q 390 750 306 908 q 474 378 474 592 q 390 4 474 163 q 156 -293 306 -154 l -17 -147 z "},"[":{"ha":492,"x_min":86,"x_max":475,"o":"m 86 1018 l 475 1018 l 475 801 l 317 801 l 317 -51 l 475 -51 l 475 -268 l 86 -268 l 86 1018 z "},"]":{"ha":492,"x_min":17,"x_max":406,"o":"m 17 -268 l 17 -51 l 175 -51 l 175 801 l 17 801 l 17 1018 l 406 1018 l 406 -268 l 17 -268 z "},"*":{"ha":629,"x_min":18,"x_max":611,"o":"m 76 524 l 194 676 l 18 726 l 68 871 l 249 801 l 238 996 l 393 996 l 382 801 l 561 871 l 611 726 l 436 676 l 553 524 l 426 433 l 315 608 l 203 433 l 76 524 z "},"†":{"ha":653,"x_min":69,"x_max":583,"o":"m 229 458 l 69 458 l 69 632 l 229 632 l 229 996 l 424 996 l 424 632 l 583 632 l 583 458 l 424 458 l 424 -251 l 229 -251 l 229 458 z "},"~":{"ha":882,"x_min":69,"x_max":813,"o":"m 628 250 q 542 262 585 250 q 449 296 500 274 q 246 344 338 344 q 69 268 164 344 l 69 471 q 158 533 108 514 q 254 553 207 553 q 342 541 294 553 q 450 508 389 529 l 486 496 q 631 458 588 458 q 813 535 718 458 l 813 332 q 724 269 774 289 q 628 250 675 250 z "},"¦":{"ha":360,"x_min":86,"x_max":275,"o":"m 86 1021 l 275 1021 l 275 449 l 86 449 l 86 1021 m 86 311 l 275 311 l 275 -268 l 86 -268 l 86 311 z "},"\\":{"ha":686,"x_min":14,"x_max":672,"o":"m 14 964 l 213 1049 l 672 -19 l 474 -104 l 14 964 z "},"_":{"ha":740,"x_min":0,"x_max":740,"o":"m 0 -114 l 740 -114 l 740 -264 l 0 -264 l 0 -114 z "},"'":{"ha":396,"x_min":51,"x_max":344,"o":"m 344 818 q 326 732 344 783 l 243 460 l 153 460 l 69 732 q 51 818 51 778 q 93 924 51 881 q 197 968 135 968 q 302 924 260 968 q 344 818 344 881 z "},"\"":{"ha":722,"x_min":51,"x_max":671,"o":"m 344 818 q 326 732 344 783 l 243 460 l 153 460 l 69 732 q 51 818 51 778 q 93 924 51 881 q 197 968 135 968 q 302 924 260 968 q 344 818 344 881 m 671 818 q 653 732 671 783 l 569 460 l 479 460 l 396 732 q 378 818 378 778 q 419 924 378 881 q 524 968 461 968 q 628 924 586 968 q 671 818 671 881 z "},"@":{"ha":1282,"x_min":25,"x_max":1256,"o":"m 665 -261 q 322 -182 467 -261 q 101 34 176 -103 q 25 343 25 171 q 106 656 25 521 q 329 864 186 790 q 657 938 472 938 q 967 873 832 938 q 1179 683 1103 808 q 1256 385 1256 558 q 1172 105 1256 199 q 953 11 1089 11 q 803 49 863 11 q 724 163 744 88 q 658 94 706 124 q 544 64 610 64 q 417 100 475 64 q 325 199 358 136 q 292 340 292 263 q 326 484 292 421 q 419 583 361 547 q 546 619 478 619 q 653 591 607 619 q 717 525 699 563 l 717 607 l 914 607 l 914 264 q 983 157 914 157 q 1060 208 1032 157 q 1089 365 1089 260 q 974 681 1089 575 q 653 788 858 788 q 409 735 511 788 q 252 583 307 682 q 197 346 197 483 q 249 112 197 214 q 407 -48 301 10 q 669 -106 513 -106 q 831 -89 746 -106 q 986 -33 915 -72 l 1056 -169 q 866 -240 968 -218 q 665 -261 764 -261 m 610 226 q 689 260 658 226 q 719 342 719 293 q 688 423 719 389 q 610 457 657 457 q 532 423 563 457 q 501 342 501 389 q 532 260 501 293 q 610 226 563 226 z "},"©":{"ha":1104,"x_min":25,"x_max":1079,"o":"m 553 -31 q 273 38 393 -31 q 89 224 153 106 q 25 486 25 342 q 89 749 25 631 q 273 935 153 867 q 553 1003 393 1003 q 832 935 713 1003 q 1015 749 951 867 q 1079 486 1079 631 q 1015 224 1079 342 q 832 38 951 106 q 553 -31 713 -31 m 553 101 q 751 150 667 101 q 882 286 836 199 q 928 486 928 374 q 882 686 928 599 q 751 822 836 774 q 553 871 667 871 q 353 822 439 871 q 223 686 268 774 q 178 486 178 599 q 223 286 178 374 q 353 150 268 199 q 553 101 439 101 m 556 218 q 408 255 471 218 q 311 353 344 292 q 278 486 278 414 q 311 619 278 558 q 408 717 344 681 q 556 754 471 754 q 689 725 632 754 q 778 647 746 696 q 814 536 810 597 l 658 536 q 625 593 651 571 q 554 615 599 615 q 467 578 499 615 q 435 486 435 542 q 467 394 435 431 q 554 357 499 357 q 625 379 599 357 q 658 436 651 401 l 814 436 q 778 326 810 375 q 689 247 746 276 q 556 218 632 218 z "},"®":{"ha":851,"x_min":25,"x_max":825,"o":"m 425 221 q 213 273 303 221 q 74 415 122 325 q 25 614 25 504 q 74 813 25 724 q 213 953 122 901 q 425 1006 303 1006 q 638 953 547 1006 q 776 813 728 901 q 825 614 825 724 q 776 415 825 504 q 638 273 728 325 q 425 221 547 221 m 425 321 q 576 358 511 321 q 675 463 640 396 q 710 614 710 529 q 675 765 710 699 q 576 869 640 832 q 425 906 511 906 q 274 869 339 906 q 175 765 210 832 q 140 614 140 699 q 175 463 140 529 q 274 358 210 396 q 425 321 339 321 m 289 796 l 460 796 q 553 758 517 796 q 589 665 589 719 q 571 600 589 629 q 518 556 553 571 l 593 447 l 476 449 l 414 544 l 392 544 l 393 447 l 289 447 l 289 796 m 439 618 q 470 632 458 618 q 482 665 482 646 q 470 700 482 686 q 439 714 458 714 l 393 714 l 393 618 l 439 618 z "},"™":{"ha":1214,"x_min":7,"x_max":1128,"o":"m 114 824 l 7 824 l 7 972 l 396 972 l 396 824 l 289 824 l 289 407 l 114 407 l 114 824 m 444 972 l 692 972 l 789 624 l 885 972 l 1128 972 l 1128 407 l 958 407 l 958 792 l 856 407 l 722 407 l 614 792 l 614 407 l 444 407 l 444 972 z "},"$":{"ha":839,"x_min":24,"x_max":814,"o":"m 814 283 q 728 74 814 157 q 489 -24 642 -10 l 489 -139 l 357 -139 l 357 -22 q 110 84 197 -6 q 24 317 24 174 l 313 317 q 344 219 313 254 q 432 183 376 183 q 500 203 476 183 q 524 260 524 224 q 506 310 524 289 q 439 346 488 331 l 249 401 q 95 499 150 432 q 40 671 40 567 q 130 875 40 797 q 357 965 219 953 l 357 1083 l 489 1083 l 489 964 q 724 862 649 946 q 800 663 800 778 l 511 663 q 485 746 511 718 q 414 774 460 774 q 353 756 376 774 q 331 704 331 738 q 352 650 331 672 q 429 611 374 628 l 611 553 q 762 455 710 522 q 814 283 814 388 z "},"¢":{"ha":822,"x_min":21,"x_max":801,"o":"m 417 328 q 529 401 510 328 l 801 401 q 703 199 789 278 q 481 107 618 121 l 481 0 l 349 0 l 349 107 q 109 224 197 126 q 21 472 21 322 q 109 720 21 622 q 349 838 197 818 l 349 944 l 481 944 l 481 838 q 703 743 618 822 q 801 542 789 664 l 529 542 q 417 617 511 617 q 326 578 358 617 q 293 472 293 540 q 326 366 293 404 q 417 328 358 328 z "},"£":{"ha":874,"x_min":39,"x_max":854,"o":"m 406 369 q 390 281 406 321 q 350 222 375 240 l 815 222 l 815 0 l 42 0 l 42 183 q 96 251 75 204 q 117 358 117 297 l 117 410 l 39 410 l 39 551 l 117 551 l 117 643 q 216 885 117 803 q 485 968 315 968 q 759 884 664 968 q 854 661 854 800 l 564 661 q 543 735 564 711 q 485 760 522 760 q 406 653 406 760 l 406 551 l 606 551 l 606 410 l 406 410 l 406 369 z "},"ƒ":{"ha":633,"x_min":-107,"x_max":667,"o":"m 572 790 q 508 769 532 790 q 481 710 485 749 l 476 690 l 618 690 l 585 500 l 443 500 l 350 -17 q 247 -220 325 -162 q 42 -278 169 -278 q -107 -258 -56 -278 l -75 -81 q -12 -89 -49 -89 q 49 -71 28 -89 q 79 -11 71 -53 l 171 500 l 61 500 l 94 690 l 204 690 l 208 711 q 311 906 226 843 q 524 968 396 968 q 667 949 617 968 l 635 781 q 572 790 604 790 z "},"¥":{"ha":888,"x_min":-7,"x_max":894,"o":"m 588 218 l 764 218 l 764 100 l 588 100 l 588 0 l 299 0 l 299 100 l 124 100 l 124 218 l 299 218 l 299 286 l 124 286 l 124 404 l 293 404 l -7 944 l 279 944 l 443 596 l 608 944 l 894 944 l 594 404 l 763 404 l 763 286 l 588 286 l 588 218 z "},"€":{"ha":942,"x_min":18,"x_max":899,"o":"m 504 189 q 606 289 588 189 l 889 289 q 768 62 863 147 q 504 -24 674 -24 q 224 75 319 -24 q 106 340 129 174 l 18 340 l 56 449 l 97 449 l 97 472 l 97 501 l 18 501 l 56 610 l 107 610 q 226 871 132 774 q 504 968 321 968 q 775 883 679 968 q 899 656 871 797 l 615 656 q 507 756 596 756 q 425 718 454 756 q 383 610 396 681 l 589 610 l 553 501 l 375 501 l 375 472 l 375 449 l 589 449 l 553 340 l 382 340 q 422 227 393 265 q 504 189 450 189 z "},"₩":{"ha":1210,"x_min":25,"x_max":1185,"o":"m 1071 489 l 1054 413 l 1185 413 l 1185 281 l 1026 281 l 965 0 l 729 0 l 606 596 l 482 0 l 246 0 l 185 281 l 25 281 l 25 413 l 157 413 l 140 489 l 25 489 l 25 621 l 111 621 l 42 944 l 281 944 l 379 310 l 507 944 l 703 944 l 832 310 l 929 944 l 1169 944 l 1100 621 l 1185 621 l 1185 489 l 1071 489 z "},"₴":{"ha":861,"x_min":3,"x_max":858,"o":"m 738 522 q 597 429 690 471 l 858 429 l 831 346 l 400 346 q 340 307 357 326 q 324 256 324 288 q 349 196 324 218 q 421 174 375 174 q 499 196 471 174 q 528 258 528 218 l 813 258 q 765 109 813 172 q 627 11 717 46 q 414 -24 538 -24 q 219 11 303 -24 q 91 111 136 46 q 46 263 46 176 q 58 346 46 308 l 3 346 l 31 429 l 108 429 q 250 522 156 482 l 3 522 l 31 606 l 447 606 q 503 651 489 628 q 517 710 517 675 q 496 763 517 742 q 439 783 475 783 q 371 763 394 783 q 347 706 347 743 l 63 706 q 109 837 63 776 q 242 933 156 897 q 443 968 329 968 q 706 896 610 968 q 801 700 801 824 q 788 606 801 646 l 858 606 l 831 522 l 738 522 z "},"₸":{"ha":804,"x_min":7,"x_max":797,"o":"m 7 944 l 797 944 l 797 783 l 7 783 l 7 944 m 257 490 l 7 490 l 7 718 l 797 718 l 797 490 l 547 490 l 547 0 l 257 0 l 257 490 z "},"₮":{"ha":804,"x_min":7,"x_max":797,"o":"m 547 697 l 547 579 l 679 633 l 679 515 l 547 461 l 547 399 l 679 453 l 679 335 l 547 281 l 547 0 l 257 0 l 257 160 l 126 106 l 126 224 l 257 278 l 257 340 l 126 286 l 126 404 l 257 458 l 257 697 l 7 697 l 7 944 l 797 944 l 797 697 l 547 697 z "},"¤":{"ha":869,"x_min":54,"x_max":815,"o":"m 54 222 l 128 296 q 56 515 56 392 q 128 733 56 638 l 54 807 l 153 906 l 231 828 q 435 883 324 883 q 639 828 546 883 l 717 906 l 815 807 l 742 733 q 814 515 814 638 q 742 296 814 392 l 814 222 l 717 124 l 639 201 q 435 146 546 146 q 231 201 324 146 l 153 124 l 54 222 m 435 379 q 528 417 493 379 q 564 515 564 456 q 528 613 564 574 q 435 651 492 651 q 342 613 378 651 q 306 515 306 574 q 342 417 306 456 q 435 379 378 379 z "},"⁄":{"ha":258,"x_min":-264,"x_max":522,"o":"m -264 43 l 392 990 l 522 908 l -133 -39 l -264 43 z "},"¼":{"ha":1319,"x_min":53,"x_max":1261,"o":"m 172 701 l 53 701 l 53 839 q 171 865 139 839 q 203 944 203 890 l 356 944 l 356 397 l 172 397 l 172 701 m 192 43 l 847 990 l 978 908 l 322 -39 l 192 43 m 1261 138 l 1208 138 l 1208 0 l 1028 0 l 1028 138 l 788 138 l 788 547 l 967 547 l 967 285 l 1028 285 l 1028 413 l 1208 413 l 1208 285 l 1261 285 l 1261 138 z "},"½":{"ha":1274,"x_min":53,"x_max":1213,"o":"m 172 701 l 53 701 l 53 839 q 171 865 139 839 q 203 944 203 890 l 356 944 l 356 397 l 172 397 l 172 701 m 192 43 l 847 990 l 978 908 l 322 -39 l 192 43 m 726 0 q 762 175 726 111 q 878 278 797 239 l 978 326 q 1028 390 1028 349 q 1015 422 1028 410 q 982 433 1003 433 q 939 417 954 433 q 924 368 924 400 l 739 368 q 805 509 739 456 q 981 563 871 563 q 1151 518 1090 563 q 1213 396 1213 474 q 1185 297 1213 338 q 1099 229 1157 257 l 1015 189 q 981 166 993 176 q 960 139 968 156 l 1203 139 l 1203 0 l 726 0 z "},"¾":{"ha":1431,"x_min":50,"x_max":1371,"o":"m 286 382 q 110 431 169 382 q 50 575 50 479 l 235 575 q 294 518 235 518 q 333 531 319 518 q 347 565 347 543 q 283 615 347 615 l 206 615 l 206 743 l 285 743 q 349 790 349 743 q 335 822 349 811 q 297 833 321 833 q 257 820 272 833 q 242 783 242 807 l 58 783 q 124 912 58 864 q 304 960 189 960 q 470 919 408 960 q 532 807 532 879 q 503 726 532 758 q 417 679 475 693 q 507 635 475 669 q 539 551 539 601 q 472 428 539 475 q 286 382 404 382 m 301 43 l 957 990 l 1088 908 l 432 -39 l 301 43 m 1371 138 l 1318 138 l 1318 0 l 1138 0 l 1138 138 l 897 138 l 897 547 l 1076 547 l 1076 285 l 1138 285 l 1138 413 l 1318 413 l 1318 285 l 1371 285 l 1371 138 z "},"%":{"ha":1150,"x_min":28,"x_max":1122,"o":"m 192 33 l 854 986 l 961 918 l 300 -35 l 192 33 m 286 485 q 149 517 208 485 q 59 603 90 550 q 28 721 28 657 q 59 838 28 785 q 149 924 90 892 q 286 957 208 957 q 426 924 367 957 q 517 838 486 892 q 549 721 549 785 q 517 603 549 657 q 426 517 486 550 q 286 485 367 485 m 286 621 q 357 649 332 621 q 382 721 382 678 q 357 793 382 765 q 286 821 332 821 q 217 792 242 821 q 192 721 192 764 q 217 649 192 678 q 286 621 242 621 m 860 -11 q 723 22 782 -11 q 633 108 664 54 q 601 225 601 161 q 633 342 601 289 q 723 428 664 396 q 860 461 782 461 q 1000 428 940 461 q 1091 342 1060 396 q 1122 225 1122 289 q 1091 108 1122 161 q 1000 22 1060 54 q 860 -11 940 -11 m 860 125 q 931 153 906 125 q 956 225 956 182 q 931 297 956 269 q 860 325 906 325 q 790 297 815 325 q 765 225 765 268 q 790 153 765 182 q 860 125 815 125 z "},"‰":{"ha":1700,"x_min":28,"x_max":1672,"o":"m 192 33 l 854 986 l 961 918 l 300 -35 l 192 33 m 286 485 q 149 517 208 485 q 59 603 90 550 q 28 721 28 657 q 59 838 28 785 q 149 924 90 892 q 286 957 208 957 q 426 924 367 957 q 517 838 486 892 q 549 721 549 785 q 517 603 549 657 q 426 517 486 550 q 286 485 367 485 m 286 621 q 357 649 332 621 q 382 721 382 678 q 357 793 382 765 q 286 821 332 821 q 217 792 242 821 q 192 721 192 764 q 217 649 192 678 q 286 621 242 621 m 860 -11 q 723 22 782 -11 q 633 108 664 54 q 601 225 601 161 q 633 342 601 289 q 723 428 664 396 q 860 461 782 461 q 1000 428 940 461 q 1091 342 1060 396 q 1122 225 1122 289 q 1091 108 1122 161 q 1000 22 1060 54 q 860 -11 940 -11 m 1410 -11 q 1273 22 1332 -11 q 1183 108 1214 54 q 1151 225 1151 161 q 1183 342 1151 289 q 1273 428 1214 396 q 1410 461 1332 461 q 1550 428 1490 461 q 1641 342 1610 396 q 1672 225 1672 289 q 1641 108 1672 161 q 1550 22 1610 54 q 1410 -11 1490 -11 m 860 125 q 931 153 906 125 q 956 225 956 182 q 931 297 956 269 q 860 325 906 325 q 790 297 815 325 q 765 225 765 268 q 790 153 765 182 q 860 125 815 125 m 1410 125 q 1481 153 1456 125 q 1506 225 1506 182 q 1481 297 1506 269 q 1410 325 1456 325 q 1340 297 1365 325 q 1315 225 1315 268 q 1340 153 1315 182 q 1410 125 1365 125 z "},"ﬁ":{"ha":989,"x_min":18,"x_max":925,"o":"m 485 800 q 399 731 399 800 l 399 690 l 542 690 l 542 482 l 399 482 l 399 0 l 128 0 l 128 482 l 18 482 l 18 690 l 128 690 l 128 728 q 206 928 128 868 q 400 989 283 989 q 542 971 488 989 l 542 794 q 485 800 497 800 m 638 690 l 910 690 l 910 0 l 638 0 l 638 690 m 774 714 q 665 758 708 714 q 622 863 622 801 q 665 968 622 925 q 774 1011 708 1011 q 881 968 838 1011 q 925 863 925 925 q 881 758 925 801 q 774 714 838 714 z "},"ﬂ":{"ha":989,"x_min":18,"x_max":910,"o":"m 485 800 q 399 731 399 800 l 399 690 l 542 690 l 542 482 l 399 482 l 399 0 l 128 0 l 128 482 l 18 482 l 18 690 l 128 690 l 128 728 q 206 928 128 868 q 400 989 283 989 q 542 971 488 989 l 542 794 q 485 800 497 800 m 638 972 l 910 972 l 910 0 l 638 0 l 638 972 z "},"μ":{"ha":899,"x_min":79,"x_max":821,"o":"m 821 690 l 821 0 l 547 0 l 547 103 q 473 17 522 49 q 351 -19 424 -15 l 351 -264 l 79 -264 l 79 690 l 356 690 l 356 329 q 449 208 356 208 q 547 338 547 208 l 547 690 l 821 690 z "},"ʼ":{"ha":425,"x_min":64,"x_max":371,"o":"m 208 971 q 325 917 279 971 q 371 765 371 863 q 304 565 371 633 q 115 497 238 497 q 69 501 111 497 l 69 589 q 122 586 89 586 q 226 624 186 586 q 265 708 258 656 q 238 692 256 699 q 200 686 219 686 q 101 727 138 686 q 64 829 64 768 q 105 930 64 889 q 208 971 146 971 z "},"ð":{"ha":846,"x_min":21,"x_max":825,"o":"m 764 557 q 825 346 825 465 q 776 153 825 238 q 635 23 726 69 q 422 -24 543 -24 q 210 23 301 -24 q 70 153 119 69 q 21 346 21 238 q 105 587 21 489 q 335 708 189 685 l 297 761 l 179 722 l 147 811 l 240 842 l 149 972 l 472 972 l 504 926 l 626 967 l 658 879 l 560 847 l 764 557 m 422 200 q 517 240 482 200 q 551 346 551 281 q 517 451 551 411 q 422 492 482 492 q 328 451 364 492 q 293 346 293 410 q 328 241 293 282 q 422 200 364 200 z "},"#":{"ha":843,"x_min":14,"x_max":829,"o":"m 131 218 l 14 218 l 14 400 l 156 400 l 179 572 l 56 572 l 56 754 l 204 754 l 235 972 l 422 972 l 392 754 l 535 754 l 565 972 l 751 972 l 721 754 l 829 754 l 829 572 l 696 572 l 672 400 l 788 400 l 788 218 l 647 218 l 617 0 l 431 0 l 460 218 l 317 218 l 286 0 l 100 0 l 131 218 m 486 400 l 510 572 l 367 572 l 343 400 l 486 400 z "},"№":{"ha":1746,"x_min":86,"x_max":1660,"o":"m 86 972 l 378 972 l 667 419 l 667 972 l 944 972 l 944 0 l 653 0 l 364 553 l 364 0 l 86 0 l 86 972 m 1333 215 q 1157 254 1231 215 q 1045 360 1083 293 q 1007 508 1007 428 q 1045 658 1007 590 q 1157 764 1083 725 q 1333 803 1231 803 q 1509 764 1435 803 q 1622 658 1583 725 q 1660 508 1660 590 q 1622 360 1660 428 q 1509 254 1583 293 q 1333 215 1435 215 m 1333 404 q 1404 434 1376 404 q 1432 508 1432 464 q 1404 582 1432 553 q 1333 611 1376 611 q 1262 582 1289 611 q 1235 508 1235 553 q 1262 434 1235 464 q 1333 404 1289 404 m 1007 168 l 1660 168 l 1660 0 l 1007 0 l 1007 168 z "},"Δ":{"ha":1042,"x_min":7,"x_max":1035,"o":"m 365 972 l 668 972 l 1035 0 l 7 0 l 365 972 m 650 210 l 517 681 l 382 210 l 650 210 z "},"Ω":{"ha":972,"x_min":25,"x_max":947,"o":"m 44 210 l 232 210 l 232 228 q 79 369 133 281 q 25 567 25 458 q 81 776 25 679 q 242 931 138 874 q 486 989 347 989 q 730 931 625 989 q 891 776 835 874 q 947 567 947 679 q 892 368 947 458 q 740 226 838 278 l 740 210 l 928 210 l 928 0 l 518 0 l 518 354 q 621 421 585 369 q 657 544 657 472 q 612 676 657 624 q 486 728 567 728 q 360 676 406 728 q 315 544 315 624 q 351 422 315 474 q 454 356 388 371 l 454 0 l 44 0 l 44 210 z "},"π":{"ha":971,"x_min":79,"x_max":892,"o":"m 157 507 l 79 507 l 79 690 l 892 690 l 892 507 l 813 507 l 813 0 l 540 0 l 540 507 l 431 507 l 431 0 l 157 0 l 157 507 z "},"·":{"ha":494,"x_min":74,"x_max":419,"o":"m 246 263 q 124 313 174 263 q 74 433 74 363 q 124 553 74 504 q 246 603 174 603 q 369 553 319 603 q 419 433 419 504 q 369 313 419 363 q 246 263 319 263 z "},"{":{"ha":553,"x_min":18,"x_max":540,"o":"m 392 -258 q 201 -192 269 -258 q 132 -8 132 -126 l 132 142 q 100 222 132 196 q 18 247 68 247 l 18 497 q 100 523 68 497 q 132 603 132 549 l 132 768 q 201 952 132 886 q 392 1018 269 1018 l 540 1018 l 540 806 l 478 806 q 392 770 419 806 q 364 685 364 735 l 364 533 q 322 414 364 451 q 235 372 281 376 q 322 331 281 368 q 364 211 364 293 l 364 76 q 392 -10 364 25 q 478 -46 419 -46 l 540 -46 l 540 -258 l 392 -258 z "},"}":{"ha":553,"x_min":13,"x_max":535,"o":"m 13 -258 l 13 -46 l 75 -46 q 161 -10 133 -46 q 189 76 189 25 l 189 211 q 231 331 189 293 q 318 372 272 368 q 231 414 272 376 q 189 533 189 451 l 189 685 q 161 770 189 735 q 75 806 133 806 l 13 806 l 13 1018 l 161 1018 q 352 952 283 1018 q 421 768 421 886 l 421 603 q 453 523 421 549 q 535 497 485 497 l 535 247 q 453 222 485 247 q 421 142 421 196 l 421 -8 q 352 -192 421 -126 q 161 -258 283 -258 l 13 -258 z "},"­":{"ha":564,"x_min":56,"x_max":508,"o":"m 56 506 l 508 506 l 508 300 l 56 300 l 56 506 z "},"«":{"ha":815,"x_min":3,"x_max":801,"o":"m 3 386 l 318 689 l 438 557 l 254 386 l 438 214 l 318 83 l 3 386 m 367 386 l 682 689 l 801 557 l 618 386 l 801 214 l 682 83 l 367 386 z "},"»":{"ha":815,"x_min":14,"x_max":813,"o":"m 14 214 l 197 386 l 14 557 l 133 689 l 449 386 l 133 83 l 14 214 m 378 214 l 561 386 l 378 557 l 497 689 l 813 386 l 497 83 l 378 214 z "},"+":{"ha":785,"x_min":56,"x_max":729,"o":"m 283 338 l 56 338 l 56 544 l 283 544 l 283 768 l 501 768 l 501 544 l 729 544 l 729 338 l 501 338 l 501 114 l 283 114 l 283 338 z "},"−":{"ha":785,"x_min":56,"x_max":729,"o":"m 56 544 l 729 544 l 729 338 l 56 338 l 56 544 z "},"±":{"ha":785,"x_min":56,"x_max":729,"o":"m 282 524 l 56 524 l 56 729 l 282 729 l 282 857 l 503 857 l 503 729 l 729 729 l 729 524 l 503 524 l 503 397 l 282 397 l 282 524 m 56 335 l 729 335 l 729 129 l 56 129 l 56 335 z "},"×":{"ha":789,"x_min":56,"x_max":733,"o":"m 540 442 l 732 249 l 588 103 l 394 296 l 201 103 l 56 249 l 249 442 l 56 633 l 201 779 l 394 586 l 588 779 l 733 635 l 540 442 z "},"÷":{"ha":785,"x_min":56,"x_max":729,"o":"m 393 569 q 294 610 335 569 q 254 708 254 650 q 294 806 254 765 q 393 846 335 846 q 492 806 451 846 q 532 708 532 765 q 492 610 532 650 q 393 569 451 569 m 56 538 l 729 538 l 729 332 l 56 332 l 56 538 m 393 29 q 294 69 335 29 q 254 167 254 110 q 294 263 254 224 q 393 303 335 303 q 492 263 451 303 q 532 167 532 224 q 492 69 532 110 q 393 29 453 29 z "},"=":{"ha":794,"x_min":56,"x_max":739,"o":"m 56 704 l 739 704 l 739 499 l 56 499 l 56 704 m 56 392 l 739 392 l 739 186 l 56 186 l 56 392 z "},"<":{"ha":763,"x_min":56,"x_max":707,"o":"m 56 322 l 56 550 l 707 799 l 707 557 l 367 436 l 707 315 l 707 74 l 56 322 z "},">":{"ha":763,"x_min":56,"x_max":707,"o":"m 56 315 l 396 436 l 56 557 l 56 799 l 707 550 l 707 322 l 56 74 l 56 315 z "},"°":{"ha":554,"x_min":18,"x_max":536,"o":"m 276 453 q 147 487 206 453 q 53 579 88 521 q 18 707 18 638 q 53 836 18 778 q 147 928 88 894 q 276 963 206 963 q 408 928 349 963 q 501 836 467 894 q 536 707 536 778 q 501 579 536 638 q 408 487 467 521 q 276 453 349 453 m 276 607 q 346 634 319 607 q 372 707 372 661 q 346 781 372 754 q 276 808 319 808 q 208 781 235 808 q 181 707 181 754 q 208 634 181 661 q 276 607 235 607 z "},"≈":{"ha":793,"x_min":56,"x_max":738,"o":"m 567 446 q 489 457 524 446 q 403 490 454 468 q 308 527 346 515 q 219 539 269 539 q 56 463 147 539 l 56 667 q 138 729 92 710 q 228 749 185 749 q 308 735 264 749 q 417 697 351 722 q 508 665 475 675 q 568 654 542 654 q 738 731 650 654 l 738 526 q 657 465 703 485 q 567 446 611 446 m 567 144 q 487 156 524 144 q 403 190 450 168 q 308 227 346 215 q 219 239 269 239 q 57 163 144 239 l 57 365 q 138 426 92 407 q 228 446 183 446 q 310 433 265 446 q 417 394 354 419 q 512 362 481 371 q 568 353 543 353 q 738 429 650 353 l 738 226 q 656 164 703 183 q 567 144 610 144 z "},"≥":{"ha":788,"x_min":57,"x_max":732,"o":"m 57 476 l 417 540 l 57 606 l 57 801 l 728 635 l 728 446 l 57 281 l 57 476 m 57 236 l 732 236 l 732 58 l 57 58 l 57 236 z "},"∞":{"ha":1292,"x_min":69,"x_max":1222,"o":"m 393 86 q 217 130 290 86 q 107 245 144 174 q 69 401 69 317 q 107 558 69 486 q 217 673 144 629 q 393 717 290 717 q 646 571 535 717 q 899 717 756 717 q 1074 674 1000 717 q 1185 559 1147 631 q 1222 401 1222 488 q 1185 244 1222 315 q 1074 129 1147 172 q 899 86 1000 86 q 646 231 756 86 q 393 86 533 86 m 397 292 q 476 320 433 292 q 549 401 518 349 q 476 483 518 454 q 397 511 433 511 q 317 479 346 511 q 288 401 288 447 q 317 324 288 356 q 397 292 346 292 m 894 292 q 975 324 946 292 q 1004 401 1004 356 q 975 479 1004 447 q 894 511 946 511 q 815 483 857 511 q 743 401 772 456 q 815 319 772 347 q 894 292 857 292 z "},"≤":{"ha":788,"x_min":56,"x_max":731,"o":"m 60 446 l 60 635 l 731 801 l 731 606 l 371 540 l 731 476 l 731 281 l 60 446 m 56 58 l 56 236 l 731 236 l 731 58 l 56 58 z "},"¬":{"ha":785,"x_min":56,"x_max":729,"o":"m 518 476 l 56 476 l 56 682 l 729 682 l 729 210 l 518 210 l 518 476 z "},"≠":{"ha":794,"x_min":56,"x_max":739,"o":"m 514 499 l 468 392 l 739 392 l 739 186 l 379 186 l 319 47 l 142 47 l 201 186 l 56 186 l 56 392 l 289 392 l 336 499 l 56 499 l 56 704 l 424 704 l 475 824 l 654 824 l 603 704 l 739 704 l 739 499 l 514 499 z "},"∫":{"ha":651,"x_min":69,"x_max":582,"o":"m 239 -283 q 144 -278 193 -283 q 69 -264 94 -272 l 69 -75 q 126 -81 99 -81 q 174 -65 158 -81 q 189 -14 189 -49 l 189 858 q 246 1051 189 1000 q 413 1103 303 1103 q 508 1097 458 1103 q 582 1083 557 1092 l 582 894 q 525 900 550 900 q 476 884 492 900 q 461 833 461 868 l 461 -39 q 404 -232 461 -181 q 239 -283 347 -283 z "},"∂":{"ha":938,"x_min":69,"x_max":868,"o":"m 467 999 q 760 885 653 999 q 868 482 868 772 q 763 88 868 204 q 453 -29 658 -29 q 172 54 274 -29 q 69 294 69 138 q 117 480 69 403 q 244 597 165 557 q 417 636 324 636 q 576 599 499 636 q 562 726 572 682 q 530 787 551 769 q 469 804 508 804 q 364 689 364 804 l 75 689 q 114 840 75 769 q 240 954 153 910 q 467 999 328 999 m 458 185 q 547 235 521 185 q 576 397 572 285 q 478 428 526 428 q 389 390 421 428 q 357 296 357 353 q 381 216 357 247 q 458 185 406 185 z "},"∏":{"ha":1183,"x_min":69,"x_max":1114,"o":"m 167 854 l 69 854 l 69 1103 l 1114 1103 l 1114 854 l 1017 854 l 1017 -264 l 728 -264 l 728 854 l 457 854 l 457 -264 l 167 -264 l 167 854 z "},"√":{"ha":1374,"x_min":69,"x_max":1304,"o":"m 269 211 l 69 211 l 69 456 l 482 456 l 604 43 l 983 1103 l 1304 1103 l 756 -264 l 453 -264 l 269 211 z "},"∑":{"ha":954,"x_min":69,"x_max":885,"o":"m 69 -19 l 532 431 l 69 861 l 69 1103 l 885 1103 l 885 854 l 422 854 l 856 444 l 422 -12 l 885 -12 l 885 -261 l 69 -261 l 69 -19 z "},"◊":{"ha":1010,"x_min":69,"x_max":940,"o":"m 69 550 l 333 1103 l 675 1103 l 940 550 l 678 0 l 333 0 l 69 550 m 642 550 l 504 844 l 368 550 l 506 256 l 642 550 z "},"¶":{"ha":1024,"x_min":69,"x_max":954,"o":"m 392 371 q 228 410 301 371 q 112 521 154 450 q 69 682 69 592 q 118 851 69 779 q 244 959 167 922 q 407 996 322 996 l 954 996 l 954 825 l 874 825 l 874 -237 l 682 -237 l 682 824 l 583 824 l 583 -237 l 392 -237 l 392 371 z "},"§":{"ha":890,"x_min":69,"x_max":821,"o":"m 815 354 q 779 247 815 292 q 668 168 743 201 q 785 -35 785 93 q 688 -222 785 -154 q 431 -290 592 -290 q 163 -217 256 -290 q 69 -14 69 -143 l 293 -14 q 327 -103 293 -72 q 431 -133 361 -133 q 525 -109 492 -133 q 558 -43 558 -85 q 533 18 558 -7 q 470 59 507 43 q 364 100 433 75 q 215 159 272 131 q 116 238 157 188 q 75 365 75 288 q 111 473 75 428 q 222 551 147 518 q 106 750 106 622 q 149 883 106 826 q 274 972 193 940 q 458 1003 354 1003 q 728 929 635 1003 q 821 726 821 856 l 599 726 q 564 815 599 785 q 460 846 529 846 q 365 823 397 846 q 332 758 332 800 q 380 679 332 708 q 526 617 428 650 q 675 558 617 586 q 774 481 733 531 q 815 354 815 431 m 286 389 q 313 329 286 354 q 378 287 339 304 q 486 246 417 269 l 514 236 q 604 332 604 274 q 579 391 604 367 q 517 432 554 415 q 414 471 481 449 q 372 485 386 479 q 286 389 286 450 z "},"^":{"ha":875,"x_min":69,"x_max":806,"o":"m 371 972 l 507 972 l 806 375 l 567 375 l 439 692 l 307 375 l 69 375 l 371 972 z "},"‡":{"ha":653,"x_min":69,"x_max":583,"o":"m 229 0 l 69 0 l 69 174 l 229 174 l 229 518 l 69 518 l 69 690 l 229 690 l 229 996 l 424 996 l 424 690 l 583 690 l 583 518 l 424 518 l 424 174 l 583 174 l 583 0 l 424 0 l 424 -251 l 229 -251 l 229 0 z "},"Ƀ":{"ha":918,"x_min":86,"x_max":886,"o":"m 886 260 q 810 79 886 149 q 606 1 735 10 l 606 -139 l 474 -139 l 474 0 l 388 0 l 388 -139 l 256 -139 l 256 0 l 86 0 l 86 943 l 256 943 l 256 1083 l 388 1083 l 388 943 l 474 943 l 474 1083 l 606 1083 l 606 942 q 800 866 729 931 q 871 700 871 801 q 820 553 871 611 q 683 479 769 494 q 831 410 775 469 q 886 260 886 351 m 582 664 q 551 734 582 708 q 467 760 521 760 l 375 760 l 375 565 l 467 565 q 551 592 519 565 q 582 664 582 618 m 474 201 q 560 228 529 201 q 592 301 592 256 q 560 372 592 346 q 475 399 528 399 l 375 399 l 375 201 l 474 201 z "},"А":{"ha":989,"x_min":7,"x_max":982,"o":"m 651 113 l 338 113 l 307 0 l 7 0 l 339 972 l 651 972 l 982 0 l 682 0 l 651 113 m 596 322 l 494 700 l 393 322 l 596 322 z "},"Б":{"ha":908,"x_min":86,"x_max":886,"o":"m 86 972 l 801 972 l 801 756 l 375 756 l 375 590 l 601 590 q 748 553 683 590 q 849 449 813 515 q 886 303 886 383 q 849 149 886 218 q 748 40 813 79 q 601 0 683 0 l 86 0 l 86 972 m 483 197 q 563 226 533 197 q 592 303 592 256 q 563 378 592 350 q 483 407 533 407 l 375 407 l 375 197 l 483 197 z "},"В":{"ha":918,"x_min":86,"x_max":886,"o":"m 683 494 q 831 424 775 483 q 886 268 886 364 q 801 73 886 146 q 572 0 717 0 l 86 0 l 86 972 l 561 972 q 788 904 704 972 q 871 721 871 836 q 820 569 871 629 q 683 494 769 510 m 375 786 l 375 581 l 467 581 q 551 608 519 581 q 582 685 582 636 q 551 759 582 732 q 467 786 521 786 l 375 786 m 474 201 q 560 231 529 201 q 592 308 592 260 q 560 384 592 356 q 475 413 528 413 l 375 413 l 375 201 l 474 201 z "},"Г":{"ha":696,"x_min":86,"x_max":689,"o":"m 689 972 l 689 724 l 375 724 l 375 0 l 86 0 l 86 972 l 689 972 z "},"Ѓ":{"ha":696,"x_min":86,"x_max":689,"o":"m 213 1129 l 526 1249 l 581 1129 l 267 1010 l 213 1129 m 689 972 l 689 724 l 375 724 l 375 0 l 86 0 l 86 972 l 689 972 z "},"Ґ":{"ha":696,"x_min":86,"x_max":689,"o":"m 689 1099 l 689 724 l 375 724 l 375 0 l 86 0 l 86 972 l 422 972 l 422 1099 l 689 1099 z "},"Д":{"ha":1008,"x_min":18,"x_max":976,"o":"m 976 232 l 976 -168 l 713 -168 l 713 0 l 285 0 l 285 -167 l 18 -167 l 18 232 l 76 232 q 142 275 121 232 q 163 404 163 318 l 163 972 l 900 972 l 900 232 l 976 232 m 431 424 q 393 232 431 311 l 633 232 l 633 739 l 431 739 l 431 424 z "},"Е":{"ha":788,"x_min":86,"x_max":711,"o":"m 86 972 l 711 972 l 711 756 l 375 756 l 375 586 l 711 586 l 711 379 l 375 379 l 375 217 l 711 217 l 711 0 l 86 0 l 86 972 z "},"Ё":{"ha":788,"x_min":86,"x_max":711,"o":"m 249 1013 q 163 1047 199 1013 q 128 1128 128 1081 q 163 1211 128 1176 q 249 1246 197 1246 q 335 1212 300 1246 q 369 1128 369 1178 q 335 1047 369 1081 q 249 1013 300 1013 m 572 1013 q 488 1047 522 1013 q 454 1128 454 1081 q 488 1212 454 1178 q 572 1246 522 1246 q 659 1211 624 1246 q 694 1128 694 1176 q 659 1047 694 1081 q 572 1013 624 1013 m 86 972 l 711 972 l 711 756 l 375 756 l 375 586 l 711 586 l 711 379 l 375 379 l 375 217 l 711 217 l 711 0 l 86 0 l 86 972 z "},"Ж":{"ha":1533,"x_min":10,"x_max":1524,"o":"m 1190 0 l 911 428 l 911 0 l 622 0 l 622 428 l 343 0 l 10 0 l 367 486 l 356 486 q 304 503 332 486 q 263 544 276 519 l 196 656 q 156 710 176 692 q 108 729 135 729 l 60 729 l 60 979 l 164 979 q 293 952 240 979 q 389 853 346 925 l 529 622 q 563 581 547 593 q 600 569 579 569 l 622 569 l 622 972 l 911 972 l 911 569 l 933 569 q 970 581 954 569 q 1004 622 986 593 l 1144 853 q 1240 952 1188 925 q 1369 979 1293 979 l 1474 979 l 1474 729 l 1425 729 q 1378 710 1399 729 q 1338 656 1357 692 l 1271 544 q 1229 503 1257 519 q 1178 486 1201 486 l 1167 486 l 1524 0 l 1190 0 z "},"З":{"ha":888,"x_min":28,"x_max":853,"o":"m 331 324 q 443 199 331 199 q 519 227 494 199 q 544 299 544 256 q 515 379 544 353 q 424 406 486 406 l 313 406 l 313 603 l 422 603 q 516 629 489 603 q 543 704 543 656 q 517 771 543 747 q 447 794 492 794 q 343 681 343 794 l 39 681 q 132 907 39 815 q 444 999 225 999 q 734 932 621 999 q 847 719 847 865 q 822 619 847 665 q 758 542 797 572 q 675 501 718 511 q 801 420 750 483 q 853 264 853 357 q 798 105 853 171 q 652 6 743 39 q 454 -26 561 -26 q 127 69 226 -26 q 28 324 28 164 l 331 324 z "},"И":{"ha":1022,"x_min":86,"x_max":936,"o":"m 375 67 l 375 0 l 86 0 l 86 972 l 375 972 l 375 433 l 647 906 l 647 972 l 936 972 l 936 0 l 647 0 l 647 539 l 375 67 z "},"Й":{"ha":1022,"x_min":86,"x_max":936,"o":"m 517 1006 q 333 1056 407 1006 q 254 1192 260 1107 l 394 1192 q 435 1135 401 1154 q 517 1117 468 1117 q 599 1135 565 1117 q 639 1192 632 1154 l 779 1192 q 700 1056 774 1107 q 517 1006 626 1006 m 375 67 l 375 0 l 86 0 l 86 972 l 375 972 l 375 433 l 647 906 l 647 972 l 936 972 l 936 0 l 647 0 l 647 539 l 375 67 z "},"Ҋ":{"ha":1044,"x_min":86,"x_max":1013,"o":"m 517 1006 q 333 1056 407 1006 q 254 1192 260 1107 l 394 1192 q 435 1135 401 1154 q 517 1117 468 1117 q 599 1135 565 1117 q 639 1192 632 1154 l 779 1192 q 700 1056 774 1107 q 517 1006 626 1006 m 1013 232 l 1013 -168 l 749 -168 l 749 0 l 647 0 l 647 539 l 375 67 l 375 0 l 86 0 l 86 972 l 375 972 l 375 433 l 647 906 l 647 972 l 936 972 l 936 232 l 1013 232 z "},"К":{"ha":997,"x_min":86,"x_max":988,"o":"m 654 0 l 375 428 l 375 0 l 86 0 l 86 972 l 375 972 l 375 569 l 397 569 q 434 581 418 569 q 468 622 450 593 l 608 853 q 704 952 651 925 q 833 979 757 979 l 938 979 l 938 729 l 889 729 q 842 710 863 729 q 801 656 821 692 l 735 544 q 693 503 721 519 q 642 486 665 486 l 631 486 l 988 0 l 654 0 z "},"Ќ":{"ha":997,"x_min":86,"x_max":988,"o":"m 407 1010 l 353 1129 l 667 1249 l 721 1129 l 407 1010 m 654 0 l 375 428 l 375 0 l 86 0 l 86 972 l 375 972 l 375 569 l 397 569 q 434 581 418 569 q 468 622 450 593 l 608 853 q 704 952 651 925 q 833 979 757 979 l 938 979 l 938 729 l 889 729 q 842 710 863 729 q 801 656 821 692 l 735 544 q 693 503 721 519 q 642 486 665 486 l 631 486 l 988 0 l 654 0 z "},"Л":{"ha":1029,"x_min":24,"x_max":943,"o":"m 57 226 q 133 275 107 226 q 158 410 158 324 l 158 972 l 943 972 l 943 0 l 654 0 l 654 732 l 447 732 l 447 418 q 363 94 447 200 q 132 -12 279 -12 l 24 -12 l 24 226 l 57 226 z "},"М":{"ha":1310,"x_min":86,"x_max":1224,"o":"m 86 972 l 453 972 l 660 338 l 865 972 l 1224 972 l 1224 0 l 946 0 l 946 617 l 768 0 l 554 0 l 364 619 l 364 0 l 86 0 l 86 972 z "},"Н":{"ha":1021,"x_min":86,"x_max":935,"o":"m 86 972 l 375 972 l 375 603 l 646 603 l 646 972 l 935 972 l 935 0 l 646 0 l 646 363 l 375 363 l 375 0 l 86 0 l 86 972 z "},"О":{"ha":1124,"x_min":25,"x_max":1097,"o":"m 561 -31 q 276 40 397 -31 q 90 228 154 110 q 25 486 25 346 q 90 744 25 626 q 276 933 154 863 q 561 1003 397 1003 q 847 933 725 1003 q 1033 744 968 863 q 1097 486 1097 626 q 1033 228 1097 346 q 847 40 968 110 q 561 -31 725 -31 m 561 228 q 734 301 672 228 q 796 482 796 374 q 735 669 796 594 q 561 744 675 744 q 388 670 450 744 q 326 486 326 596 q 388 302 326 376 q 561 228 450 228 z "},"П":{"ha":1021,"x_min":86,"x_max":935,"o":"m 375 0 l 86 0 l 86 972 l 935 972 l 935 0 l 646 0 l 646 731 l 375 731 l 375 0 z "},"Р":{"ha":926,"x_min":86,"x_max":917,"o":"m 556 972 q 741 925 658 972 q 870 795 824 878 q 917 610 917 713 q 870 424 917 507 q 741 295 824 342 q 556 249 658 249 l 375 249 l 375 0 l 86 0 l 86 972 l 556 972 m 494 472 q 587 511 550 472 q 624 610 624 550 q 587 708 624 669 q 496 747 550 747 l 375 747 l 375 472 l 494 472 z "},"С":{"ha":1107,"x_min":25,"x_max":1088,"o":"m 564 -31 q 284 35 407 -31 q 93 219 161 101 q 25 486 25 338 q 93 753 25 635 q 284 937 161 871 q 564 1003 407 1003 q 931 896 792 1003 q 1088 599 1069 789 l 782 599 q 710 706 767 667 q 565 746 653 746 q 390 676 453 746 q 326 486 326 607 q 390 296 326 365 q 565 226 453 226 q 710 266 653 226 q 782 374 767 306 l 1088 374 q 931 76 1069 183 q 564 -31 792 -31 z "},"Т":{"ha":804,"x_min":7,"x_max":797,"o":"m 257 724 l 7 724 l 7 972 l 797 972 l 797 724 l 547 724 l 547 0 l 257 0 l 257 724 z "},"У":{"ha":921,"x_min":-17,"x_max":949,"o":"m 949 972 l 467 0 l 143 0 l 310 342 l -17 972 l 324 972 l 478 625 l 626 972 l 949 972 z "},"Ў":{"ha":921,"x_min":-17,"x_max":949,"o":"m 474 1024 q 294 1080 367 1024 q 217 1224 222 1136 l 357 1224 q 395 1159 363 1181 q 474 1138 428 1138 q 552 1159 519 1138 q 590 1224 585 1181 l 731 1224 q 653 1080 725 1136 q 474 1024 581 1024 m 949 972 l 467 0 l 143 0 l 310 342 l -17 972 l 324 972 l 478 625 l 626 972 l 949 972 z "},"Ф":{"ha":1133,"x_min":10,"x_max":1124,"o":"m 1124 489 q 1074 290 1124 382 q 931 142 1025 199 q 711 86 838 86 l 711 0 l 422 0 l 422 86 q 201 142 294 86 q 58 290 107 199 q 10 489 10 382 q 58 685 10 594 q 201 831 107 776 q 422 886 294 886 l 422 972 l 711 972 l 711 886 q 931 831 838 886 q 1074 685 1025 776 q 1124 489 1124 594 m 286 489 q 323 364 286 413 q 424 315 360 315 l 450 315 l 450 657 l 424 657 q 323 610 360 657 q 286 489 286 564 m 710 315 q 810 364 774 315 q 846 489 846 413 q 809 610 846 563 q 710 657 772 657 l 682 657 l 682 315 l 710 315 z "},"Х":{"ha":972,"x_min":11,"x_max":961,"o":"m 319 486 l 11 972 l 328 972 l 486 692 l 644 972 l 961 972 l 653 486 l 961 0 l 644 0 l 486 281 l 328 0 l 11 0 l 319 486 z "},"Ч":{"ha":925,"x_min":42,"x_max":840,"o":"m 550 306 q 354 269 476 269 q 192 309 263 269 q 81 419 121 349 q 42 578 42 489 l 42 972 l 331 972 l 331 640 q 365 516 331 554 q 457 478 399 478 q 508 483 486 478 q 550 503 529 488 l 550 972 l 840 972 l 840 0 l 550 0 l 550 306 z "},"Ц":{"ha":1032,"x_min":86,"x_max":1000,"o":"m 1000 232 l 1000 -168 l 736 -168 l 736 0 l 86 0 l 86 972 l 375 972 l 375 242 l 635 242 l 635 972 l 924 972 l 924 232 l 1000 232 z "},"Ш":{"ha":1433,"x_min":86,"x_max":1347,"o":"m 86 972 l 375 972 l 375 242 l 571 242 l 571 972 l 863 972 l 863 242 l 1058 242 l 1058 972 l 1347 972 l 1347 0 l 86 0 l 86 972 z "},"Щ":{"ha":1456,"x_min":86,"x_max":1424,"o":"m 1424 232 l 1424 -168 l 1160 -168 l 1160 0 l 86 0 l 86 972 l 375 972 l 375 242 l 571 242 l 571 972 l 863 972 l 863 242 l 1058 242 l 1058 972 l 1347 972 l 1347 232 l 1424 232 z "},"Џ":{"ha":1010,"x_min":86,"x_max":924,"o":"m 924 0 l 635 0 l 635 -167 l 368 -167 l 368 0 l 86 0 l 86 972 l 375 972 l 375 242 l 635 242 l 635 972 l 924 972 l 924 0 z "},"Ь":{"ha":908,"x_min":86,"x_max":886,"o":"m 86 972 l 375 972 l 375 604 l 582 604 q 737 563 667 604 q 847 453 807 522 q 886 303 886 385 q 846 151 886 221 q 736 41 806 82 q 582 0 667 0 l 86 0 l 86 972 m 483 196 q 563 226 533 196 q 592 303 592 256 q 563 378 592 349 q 483 407 533 407 l 375 407 l 375 196 l 483 196 z "},"Ъ":{"ha":1040,"x_min":7,"x_max":1018,"o":"m 7 972 l 217 972 l 217 721 l 7 721 l 7 972 m 218 972 l 507 972 l 507 604 l 714 604 q 869 563 799 604 q 978 453 939 522 q 1018 303 1018 385 q 978 151 1018 221 q 868 41 938 82 q 714 0 799 0 l 218 0 l 218 972 m 615 196 q 694 226 665 196 q 724 303 724 256 q 694 378 724 349 q 615 407 665 407 l 507 407 l 507 196 l 615 196 z "},"Ы":{"ha":1328,"x_min":86,"x_max":1242,"o":"m 86 972 l 375 972 l 375 604 l 582 604 q 737 563 667 604 q 847 453 807 522 q 886 303 886 385 q 846 151 886 221 q 736 41 806 82 q 582 0 667 0 l 86 0 l 86 972 m 483 196 q 563 226 533 196 q 592 303 592 256 q 563 378 592 349 q 483 407 533 407 l 375 407 l 375 196 l 483 196 m 953 972 l 1242 972 l 1242 0 l 953 0 l 953 972 z "},"Љ":{"ha":1474,"x_min":24,"x_max":1450,"o":"m 1146 604 q 1301 563 1231 604 q 1410 453 1371 522 q 1450 303 1450 385 q 1410 151 1450 221 q 1300 41 1369 82 q 1146 0 1231 0 l 650 0 l 650 732 l 447 732 l 447 418 q 363 94 447 200 q 132 -12 279 -12 l 24 -12 l 24 226 l 57 226 q 133 275 107 226 q 158 410 158 324 l 158 972 l 943 972 l 943 604 l 1146 604 m 1047 196 q 1126 226 1097 196 q 1156 303 1156 256 q 1126 378 1156 349 q 1047 407 1097 407 l 943 407 l 943 196 l 1047 196 z "},"Њ":{"ha":1469,"x_min":86,"x_max":1446,"o":"m 1142 604 q 1297 563 1226 604 q 1406 453 1367 522 q 1446 303 1446 385 q 1406 151 1446 221 q 1296 41 1365 82 q 1142 0 1226 0 l 646 0 l 646 363 l 375 363 l 375 0 l 86 0 l 86 972 l 375 972 l 375 603 l 646 603 l 646 972 l 935 972 l 935 604 l 1142 604 m 1043 196 q 1122 226 1093 196 q 1151 303 1151 256 q 1122 378 1151 349 q 1043 407 1093 407 l 935 407 l 935 196 l 1043 196 z "},"Ѕ":{"ha":849,"x_min":24,"x_max":822,"o":"m 432 -31 q 133 62 242 -31 q 24 318 24 154 l 313 318 q 345 219 313 256 q 436 183 378 183 q 508 204 483 183 q 533 264 533 225 q 513 317 533 297 q 442 357 492 338 l 249 428 q 40 703 40 506 q 86 860 40 793 q 218 965 132 928 q 421 1003 304 1003 q 627 965 539 1003 q 763 858 715 928 q 811 692 811 788 l 522 692 q 495 776 522 746 q 418 806 468 806 q 354 786 378 806 q 331 732 331 767 q 354 681 331 703 q 438 638 378 660 l 615 569 q 772 458 722 528 q 822 289 822 389 q 774 119 822 192 q 638 8 726 47 q 432 -31 550 -31 z "},"Є":{"ha":1088,"x_min":25,"x_max":1068,"o":"m 550 226 q 691 265 638 226 q 757 375 744 304 l 1068 375 q 992 165 1058 257 q 816 21 926 72 q 567 -31 706 -31 q 284 34 407 -31 q 93 215 161 99 q 25 486 25 332 q 93 757 25 640 q 284 938 161 874 q 567 1003 407 1003 q 815 952 704 1003 q 992 810 925 901 q 1068 597 1058 718 l 757 597 q 688 706 743 667 q 550 746 633 746 q 409 697 467 746 q 332 564 351 649 l 624 564 l 624 408 l 332 408 q 409 275 351 324 q 550 226 467 226 z "},"Э":{"ha":1088,"x_min":19,"x_max":1063,"o":"m 521 1003 q 803 938 681 1003 q 994 757 926 874 q 1063 486 1063 640 q 994 215 1063 332 q 803 34 926 99 q 521 -31 681 -31 q 272 21 382 -31 q 95 165 161 72 q 19 375 29 257 l 331 375 q 397 265 343 304 q 538 226 450 226 q 678 275 621 226 q 756 408 736 324 l 464 408 l 464 564 l 756 564 q 678 697 736 649 q 538 746 621 746 q 399 706 454 746 q 331 597 344 667 l 19 597 q 96 810 29 718 q 273 952 163 901 q 521 1003 383 1003 z "},"І":{"ha":461,"x_min":86,"x_max":375,"o":"m 86 972 l 375 972 l 375 0 l 86 0 l 86 972 z "},"Ї":{"ha":461,"x_min":-4,"x_max":467,"o":"m 107 1017 q 28 1048 61 1017 q -4 1122 -4 1079 q 28 1199 -4 1168 q 107 1229 61 1229 q 187 1199 156 1229 q 218 1122 218 1168 q 187 1047 218 1078 q 107 1017 156 1017 m 354 1017 q 277 1047 308 1017 q 246 1122 246 1078 q 276 1199 246 1168 q 354 1229 307 1229 q 434 1199 401 1229 q 467 1122 467 1168 q 434 1047 467 1078 q 354 1017 401 1017 m 86 972 l 375 972 l 375 0 l 86 0 l 86 972 z "},"Ј":{"ha":861,"x_min":14,"x_max":801,"o":"m 407 -26 q 188 23 276 -26 q 57 158 100 72 q 14 354 14 243 l 303 354 q 329 252 303 289 q 407 215 356 215 q 485 250 460 215 q 511 344 511 285 l 511 972 l 801 972 l 801 372 q 698 72 801 171 q 407 -26 594 -26 z "},"Ћ":{"ha":1128,"x_min":7,"x_max":1056,"o":"m 743 619 q 906 580 835 619 q 1016 470 976 540 q 1056 311 1056 400 l 1056 0 l 767 0 l 767 249 q 733 373 767 335 q 640 411 699 411 q 590 406 611 411 q 547 386 568 401 l 547 0 l 257 0 l 257 724 l 7 724 l 7 972 l 797 972 l 797 724 l 547 724 l 547 583 q 743 619 621 619 z "},"Ю":{"ha":1542,"x_min":86,"x_max":1517,"o":"m 981 1003 q 1266 933 1144 1003 q 1452 744 1388 863 q 1517 486 1517 626 q 1452 228 1517 346 q 1266 40 1388 110 q 981 -31 1144 -31 q 735 20 843 -31 q 556 158 626 71 q 460 356 486 244 l 375 356 l 375 0 l 86 0 l 86 972 l 375 972 l 375 619 l 461 619 q 558 816 488 729 q 735 953 628 903 q 981 1003 843 1003 m 981 228 q 1153 301 1092 228 q 1215 482 1215 374 q 1155 669 1215 594 q 981 744 1094 744 q 808 670 869 744 q 746 486 746 596 q 808 302 746 376 q 981 228 869 228 z "},"Я":{"ha":961,"x_min":44,"x_max":875,"o":"m 875 972 l 875 0 l 586 0 l 586 249 l 506 249 l 381 0 l 49 0 l 204 306 q 87 433 129 353 q 44 610 44 513 q 91 795 44 713 q 220 925 138 878 q 406 972 303 972 l 875 972 m 586 472 l 586 747 l 465 747 q 374 708 411 747 q 338 610 338 669 q 374 511 338 550 q 467 472 411 472 l 586 472 z "},"Ђ":{"ha":1076,"x_min":7,"x_max":1056,"o":"m 733 638 q 972 550 889 638 q 1056 306 1056 463 q 968 65 1056 146 q 718 -17 881 -17 q 611 -4 653 -17 l 611 200 q 651 194 628 194 q 732 224 701 194 q 763 311 763 253 q 731 397 763 368 q 647 425 700 425 q 597 419 619 425 q 547 399 574 414 l 547 0 l 257 0 l 257 724 l 7 724 l 7 972 l 797 972 l 797 724 l 547 724 l 547 604 q 733 638 625 638 z "},"Ѣ":{"ha":1082,"x_min":7,"x_max":1058,"o":"m 754 604 q 909 563 839 604 q 1019 453 979 522 q 1058 303 1058 385 q 1018 151 1058 221 q 908 41 978 82 q 754 0 839 0 l 257 0 l 257 724 l 7 724 l 7 972 l 797 972 l 797 724 l 547 724 l 547 604 l 754 604 m 656 196 q 735 226 706 196 q 764 303 764 256 q 735 378 764 349 q 656 407 706 407 l 547 407 l 547 196 l 656 196 z "},"Ѳ":{"ha":1124,"x_min":25,"x_max":1097,"o":"m 561 1003 q 847 933 725 1003 q 1033 744 968 863 q 1097 486 1097 626 q 1033 228 1097 346 q 847 40 968 110 q 561 -31 725 -31 q 276 40 397 -31 q 90 228 154 110 q 25 486 25 346 q 90 744 25 626 q 276 933 154 863 q 561 1003 397 1003 m 561 744 q 403 687 464 744 q 331 538 343 629 l 793 538 q 719 687 779 629 q 561 744 660 744 m 561 228 q 721 286 661 228 q 793 438 781 344 l 329 438 q 403 286 343 344 q 561 228 463 228 z "},"Ѵ":{"ha":971,"x_min":-10,"x_max":969,"o":"m 326 0 l -10 972 l 299 972 l 478 311 l 614 806 q 660 912 633 875 q 731 964 688 949 q 850 979 775 979 l 969 979 l 969 742 l 940 742 q 889 724 907 742 q 853 653 871 706 l 631 0 l 326 0 z "},"Ғ":{"ha":696,"x_min":21,"x_max":689,"o":"m 375 724 l 375 551 l 550 551 l 550 431 l 375 431 l 375 0 l 86 0 l 86 431 l 21 431 l 21 551 l 86 551 l 86 972 l 689 972 l 689 724 l 375 724 z "},"Ҕ":{"ha":956,"x_min":86,"x_max":883,"o":"m 574 564 q 800 481 717 564 q 883 256 883 397 l 883 -35 q 810 -215 883 -158 q 596 -272 738 -272 q 472 -254 526 -272 l 472 -74 q 533 -78 506 -78 q 579 -65 564 -78 q 594 -18 594 -51 l 594 193 q 467 356 594 356 q 418 351 440 356 q 375 331 396 346 l 375 0 l 86 0 l 86 972 l 689 972 l 689 724 l 375 724 l 375 528 q 469 556 415 547 q 574 564 524 564 z "},"Җ":{"ha":1564,"x_min":10,"x_max":1554,"o":"m 1554 232 l 1554 -168 l 1290 -168 l 1290 0 l 1190 0 l 911 428 l 911 0 l 622 0 l 622 428 l 343 0 l 10 0 l 367 486 l 356 486 q 304 503 332 486 q 263 544 276 519 l 196 656 q 156 710 176 692 q 108 729 135 729 l 60 729 l 60 979 l 164 979 q 293 952 240 979 q 389 853 346 925 l 529 622 q 563 581 547 593 q 600 569 579 569 l 622 569 l 622 972 l 911 972 l 911 569 l 933 569 q 970 581 954 569 q 1004 622 986 593 l 1144 853 q 1240 952 1188 925 q 1369 979 1293 979 l 1474 979 l 1474 729 l 1425 729 q 1378 710 1399 729 q 1338 656 1357 692 l 1271 544 q 1229 503 1257 519 q 1178 486 1201 486 l 1167 486 l 1353 232 l 1554 232 z "},"Ҙ":{"ha":888,"x_min":28,"x_max":853,"o":"m 853 264 q 753 62 853 136 q 504 -25 654 -12 l 504 -82 q 564 -65 524 -65 q 642 -96 613 -65 q 672 -172 672 -126 q 635 -253 672 -219 q 532 -287 597 -287 q 433 -260 472 -287 q 390 -189 394 -233 l 490 -189 q 503 -208 492 -200 q 529 -215 514 -215 q 560 -203 549 -215 q 571 -168 571 -190 q 560 -137 571 -147 q 532 -126 550 -126 q 496 -144 506 -126 l 404 -144 l 404 -25 q 116 80 204 -14 q 28 324 28 174 l 331 324 q 443 199 331 199 q 519 227 494 199 q 544 299 544 256 q 515 379 544 353 q 424 406 486 406 l 313 406 l 313 603 l 422 603 q 516 629 489 603 q 543 704 543 656 q 517 771 543 747 q 447 794 492 794 q 343 681 343 794 l 39 681 q 132 907 39 815 q 444 999 225 999 q 734 932 621 999 q 847 719 847 865 q 822 619 847 665 q 758 542 797 572 q 675 501 718 511 q 801 420 750 483 q 853 264 853 357 z "},"Қ":{"ha":1054,"x_min":86,"x_max":1044,"o":"m 1044 232 l 1044 -168 l 781 -168 l 781 0 l 654 0 l 375 428 l 375 0 l 86 0 l 86 972 l 375 972 l 375 569 l 397 569 q 434 581 418 569 q 468 622 450 593 l 608 853 q 704 952 651 925 q 833 979 757 979 l 938 979 l 938 729 l 889 729 q 842 710 863 729 q 801 656 821 692 l 735 544 q 693 503 721 519 q 642 486 665 486 l 631 486 l 817 232 l 1044 232 z "},"Ҝ":{"ha":1090,"x_min":86,"x_max":1081,"o":"m 747 0 l 486 401 l 486 213 l 422 213 l 422 429 l 375 429 l 375 0 l 86 0 l 86 972 l 375 972 l 375 569 l 422 569 l 422 786 l 486 786 l 486 569 l 490 569 q 526 581 510 569 q 560 622 542 593 l 701 853 q 797 952 744 925 q 925 979 849 979 l 1039 979 l 1039 742 l 992 742 q 940 729 960 742 q 893 668 919 717 l 822 544 q 783 503 808 519 q 735 486 758 486 l 724 486 l 1081 0 l 747 0 z "},"Ҟ":{"ha":1054,"x_min":86,"x_max":1044,"o":"m 711 0 l 432 428 l 432 0 l 143 0 l 143 735 l 86 735 l 86 874 l 143 874 l 143 972 l 432 972 l 432 874 l 550 874 l 550 735 l 432 735 l 432 569 l 454 569 q 491 581 475 569 q 525 622 507 593 l 665 853 q 761 952 708 925 q 890 979 814 979 l 994 979 l 994 729 l 946 729 q 899 710 919 729 q 858 656 878 692 l 792 544 q 750 503 778 519 q 699 486 722 486 l 688 486 l 1044 0 l 711 0 z "},"Ҡ":{"ha":1129,"x_min":7,"x_max":1119,"o":"m 786 0 l 507 428 l 507 0 l 218 0 l 218 972 l 507 972 l 507 569 l 529 569 q 566 581 550 569 q 600 622 582 593 l 740 853 q 836 952 783 925 q 965 979 889 979 l 1069 979 l 1069 729 l 1021 729 q 974 710 994 729 q 933 656 953 692 l 867 544 q 825 503 853 519 q 774 486 797 486 l 763 486 l 1119 0 l 786 0 m 7 972 l 217 972 l 217 721 l 7 721 l 7 972 z "},"Ң":{"ha":1043,"x_min":86,"x_max":1011,"o":"m 1011 232 l 1011 -168 l 747 -168 l 747 0 l 646 0 l 646 363 l 375 363 l 375 0 l 86 0 l 86 972 l 375 972 l 375 603 l 646 603 l 646 972 l 935 972 l 935 232 l 1011 232 z "},"Ҥ":{"ha":1256,"x_min":86,"x_max":1249,"o":"m 1249 724 l 935 724 l 935 0 l 646 0 l 646 363 l 375 363 l 375 0 l 86 0 l 86 972 l 375 972 l 375 603 l 646 603 l 646 972 l 1249 972 l 1249 724 z "},"Ҧ":{"ha":1515,"x_min":86,"x_max":1443,"o":"m 1133 643 q 1360 559 1276 643 q 1443 335 1443 475 l 1443 -35 q 1370 -215 1443 -158 q 1156 -272 1297 -272 q 1032 -254 1086 -272 l 1032 -74 q 1093 -78 1065 -78 q 1139 -65 1124 -78 q 1154 -18 1154 -51 l 1154 272 q 1025 433 1154 433 q 976 428 997 433 q 935 410 954 424 l 935 0 l 646 0 l 646 731 l 375 731 l 375 0 l 86 0 l 86 972 l 935 972 l 935 607 q 1027 634 971 625 q 1133 643 1083 643 z "},"Ԥ":{"ha":1021,"x_min":86,"x_max":1011,"o":"m 1011 232 l 1011 -168 l 747 -168 l 747 0 l 646 0 l 646 731 l 375 731 l 375 0 l 86 0 l 86 972 l 935 972 l 935 232 l 1011 232 z "},"Ҩ":{"ha":1100,"x_min":25,"x_max":1082,"o":"m 957 169 q 1082 201 1017 174 l 1082 3 q 995 -22 1032 -14 q 908 -29 958 -29 q 806 -19 857 -29 q 714 10 754 -8 q 521 -31 632 -31 q 258 32 371 -31 q 85 206 146 94 q 25 465 25 318 q 93 754 25 633 q 290 939 161 875 q 597 1003 419 1003 q 768 985 694 1003 l 769 760 q 632 775 719 775 q 400 694 485 775 q 315 469 315 613 q 361 290 315 365 q 488 182 407 214 q 426 406 426 281 q 513 631 426 553 q 740 710 600 710 q 967 635 883 710 q 1051 425 1051 560 q 1026 287 1051 353 q 957 169 1001 221 m 740 500 q 676 470 699 500 q 653 383 653 440 q 677 285 653 328 q 744 214 701 242 q 803 289 782 244 q 824 386 824 333 q 803 470 824 440 q 740 500 782 500 z "},"Ҫ":{"ha":1107,"x_min":25,"x_max":1088,"o":"m 565 226 q 710 266 653 226 q 782 374 767 306 l 1088 374 q 947 89 1071 194 q 615 -29 822 -17 l 615 -82 q 675 -65 635 -65 q 753 -96 724 -65 q 783 -172 783 -126 q 746 -253 783 -219 q 643 -287 708 -287 q 544 -260 583 -287 q 501 -189 506 -233 l 601 -189 q 614 -208 603 -200 q 640 -215 625 -215 q 671 -203 660 -215 q 682 -168 682 -190 q 672 -137 682 -147 q 643 -126 661 -126 q 607 -144 617 -126 l 515 -144 l 515 -29 q 259 49 371 -19 q 86 231 147 118 q 25 486 25 344 q 93 753 25 635 q 284 937 161 871 q 564 1003 407 1003 q 931 896 792 1003 q 1088 599 1069 789 l 782 599 q 710 706 767 667 q 565 746 653 746 q 390 676 453 746 q 326 486 326 607 q 390 296 326 365 q 565 226 453 226 z "},"Ҭ":{"ha":804,"x_min":7,"x_max":797,"o":"m 547 724 l 547 232 l 624 232 l 624 -168 l 360 -168 l 360 0 l 257 0 l 257 724 l 7 724 l 7 972 l 797 972 l 797 724 l 547 724 z "},"Ү":{"ha":957,"x_min":-11,"x_max":969,"o":"m 335 342 l -11 972 l 314 972 l 479 614 l 643 972 l 969 972 l 624 342 l 624 0 l 335 0 l 335 342 z "},"Ұ":{"ha":957,"x_min":-11,"x_max":969,"o":"m 624 328 l 775 328 l 775 185 l 624 185 l 624 0 l 335 0 l 335 185 l 182 185 l 182 328 l 335 328 l 335 342 l -11 972 l 314 972 l 479 614 l 643 972 l 969 972 l 624 342 l 624 328 z "},"Ҳ":{"ha":1050,"x_min":11,"x_max":1018,"o":"m 1018 232 l 1018 -168 l 754 -168 l 754 0 l 644 0 l 486 281 l 328 0 l 11 0 l 319 486 l 11 972 l 328 972 l 486 692 l 644 972 l 961 972 l 653 486 l 814 232 l 1018 232 z "},"Ҵ":{"ha":1119,"x_min":7,"x_max":1088,"o":"m 1088 242 l 1088 -168 l 824 -168 l 824 0 l 174 0 l 174 724 l 7 724 l 7 972 l 626 972 l 626 724 l 464 724 l 464 242 l 722 242 l 722 972 l 1011 972 l 1011 242 l 1088 242 z "},"Ҷ":{"ha":946,"x_min":42,"x_max":914,"o":"m 914 232 l 914 -168 l 650 -168 l 650 0 l 550 0 l 550 306 q 354 269 476 269 q 192 309 263 269 q 81 419 121 349 q 42 578 42 489 l 42 972 l 331 972 l 331 640 q 365 516 331 554 q 457 478 399 478 q 508 483 486 478 q 550 503 529 488 l 550 972 l 840 972 l 840 232 l 914 232 z "},"Ҹ":{"ha":925,"x_min":42,"x_max":840,"o":"m 840 972 l 840 0 l 550 0 l 550 306 q 503 288 531 297 l 503 172 l 403 172 l 403 271 q 354 269 386 269 q 192 309 263 269 q 81 419 121 349 q 42 578 42 489 l 42 972 l 331 972 l 331 640 q 403 488 331 518 l 403 588 l 503 588 l 503 482 q 550 503 528 486 l 550 972 l 840 972 z "},"Һ":{"ha":925,"x_min":85,"x_max":883,"o":"m 375 667 q 571 703 449 703 q 733 663 663 703 q 844 553 804 624 q 883 394 883 483 l 883 0 l 594 0 l 594 332 q 560 456 594 418 q 468 494 526 494 q 417 490 439 494 q 375 469 396 485 l 375 0 l 85 0 l 85 972 l 375 972 l 375 667 z "},"Ԧ":{"ha":992,"x_min":86,"x_max":960,"o":"m 960 232 l 960 -168 l 696 -168 l 696 0 l 594 0 l 594 332 q 560 456 594 418 q 468 494 526 494 q 418 490 440 494 q 375 469 396 485 l 375 0 l 86 0 l 86 972 l 375 972 l 375 667 q 572 703 449 703 q 734 663 664 703 q 844 553 804 624 q 883 394 883 483 l 883 232 l 960 232 z "},"Ҽ":{"ha":1292,"x_min":7,"x_max":1267,"o":"m 1267 413 l 522 413 q 591 270 533 321 q 744 219 649 219 q 876 251 828 219 q 947 335 924 282 l 1254 335 q 1172 156 1238 240 q 998 20 1107 72 q 749 -32 889 -32 q 492 26 603 -32 q 314 182 381 83 q 231 404 247 281 l 192 404 q 56 457 106 404 q 7 601 7 510 l 7 671 l 178 671 l 178 604 q 190 570 178 583 q 221 557 201 557 l 229 557 q 311 784 244 683 q 490 943 378 885 q 751 1001 603 1001 q 1023 933 906 1001 q 1203 750 1140 865 q 1267 494 1267 635 l 1267 413 m 967 561 q 897 701 956 651 q 744 751 838 751 q 594 702 654 751 q 524 561 535 653 l 967 561 z "},"Ҿ":{"ha":1292,"x_min":7,"x_max":1267,"o":"m 578 1013 q 492 1047 528 1013 q 457 1128 457 1081 q 492 1211 457 1176 q 578 1246 526 1246 q 664 1212 629 1246 q 699 1128 699 1178 q 664 1047 699 1081 q 578 1013 629 1013 m 901 1013 q 817 1047 851 1013 q 783 1128 783 1081 q 817 1212 783 1178 q 901 1246 851 1246 q 988 1211 953 1246 q 1024 1128 1024 1176 q 988 1047 1024 1081 q 901 1013 953 1013 m 1267 413 l 522 413 q 591 270 533 321 q 744 219 649 219 q 876 251 828 219 q 947 335 924 282 l 1254 335 q 1172 156 1238 240 q 998 20 1107 72 q 749 -32 889 -32 q 492 26 603 -32 q 314 182 381 83 q 231 404 247 281 l 192 404 q 56 457 106 404 q 7 601 7 510 l 7 671 l 178 671 l 178 604 q 190 570 178 583 q 221 557 201 557 l 229 557 q 311 784 244 683 q 490 943 378 885 q 751 1001 603 1001 q 1023 933 906 1001 q 1203 750 1140 865 q 1267 494 1267 635 l 1267 413 m 967 561 q 897 701 956 651 q 744 751 838 751 q 594 702 654 751 q 524 561 535 653 l 967 561 z "},"Ӏ":{"ha":461,"x_min":86,"x_max":375,"o":"m 86 972 l 375 972 l 375 0 l 86 0 l 86 972 z "},"Ӂ":{"ha":1533,"x_min":10,"x_max":1524,"o":"m 771 1024 q 588 1074 661 1024 q 508 1210 514 1125 l 649 1210 q 689 1153 656 1172 q 771 1135 722 1135 q 853 1153 819 1135 q 893 1210 886 1172 l 1033 1210 q 954 1074 1028 1125 q 771 1024 881 1024 m 1190 0 l 911 428 l 911 0 l 622 0 l 622 428 l 343 0 l 10 0 l 367 486 l 356 486 q 304 503 332 486 q 263 544 276 519 l 196 656 q 156 710 176 692 q 108 729 135 729 l 60 729 l 60 979 l 164 979 q 293 952 240 979 q 389 853 346 925 l 529 622 q 563 581 547 593 q 600 569 579 569 l 622 569 l 622 972 l 911 972 l 911 569 l 933 569 q 970 581 954 569 q 1004 622 986 593 l 1144 853 q 1240 952 1188 925 q 1369 979 1293 979 l 1474 979 l 1474 729 l 1425 729 q 1378 710 1399 729 q 1338 656 1357 692 l 1271 544 q 1229 503 1257 519 q 1178 486 1201 486 l 1167 486 l 1524 0 l 1190 0 z "},"Ӄ":{"ha":989,"x_min":86,"x_max":968,"o":"m 758 596 q 915 488 861 568 q 968 286 968 408 q 881 58 968 136 q 629 -19 793 -19 q 492 -7 546 -19 l 492 204 q 564 199 515 199 q 642 222 614 199 q 671 294 671 246 q 640 372 671 344 q 558 400 608 400 l 375 400 l 375 0 l 86 0 l 86 972 l 375 972 l 375 569 l 397 569 q 434 581 418 569 q 468 622 450 593 l 608 853 q 705 952 653 925 q 833 979 757 979 l 946 979 l 946 742 l 899 742 q 847 729 867 742 q 801 668 828 717 l 758 596 z "},"Ӆ":{"ha":1054,"x_min":24,"x_max":1057,"o":"m 1057 242 l 926 -168 l 685 -168 l 739 0 l 654 0 l 654 732 l 447 732 l 447 418 q 363 94 447 200 q 132 -12 279 -12 l 24 -12 l 24 226 l 57 226 q 133 275 107 226 q 158 410 158 324 l 158 972 l 943 972 l 943 242 l 1057 242 z "},"Ӈ":{"ha":1021,"x_min":86,"x_max":935,"o":"m 935 972 l 935 -35 q 862 -215 935 -158 q 647 -272 789 -272 q 524 -254 578 -272 l 524 -74 q 585 -78 557 -78 q 631 -65 615 -78 q 646 -18 646 -51 l 646 363 l 375 363 l 375 0 l 86 0 l 86 972 l 375 972 l 375 603 l 646 603 l 646 972 l 935 972 z "},"Ӊ":{"ha":1051,"x_min":86,"x_max":1054,"o":"m 1054 242 l 924 -168 l 682 -168 l 736 0 l 646 0 l 646 363 l 375 363 l 375 0 l 86 0 l 86 972 l 375 972 l 375 603 l 646 603 l 646 972 l 935 972 l 935 242 l 1054 242 z "},"Ӌ":{"ha":925,"x_min":42,"x_max":840,"o":"m 840 0 l 683 0 l 683 -167 l 417 -167 l 417 140 l 550 140 l 550 306 q 354 269 476 269 q 192 309 263 269 q 81 419 121 349 q 42 578 42 489 l 42 972 l 331 972 l 331 640 q 365 516 331 554 q 457 478 399 478 q 508 483 486 478 q 550 503 529 488 l 550 972 l 840 972 l 840 0 z "},"Ӎ":{"ha":1340,"x_min":86,"x_max":1343,"o":"m 1343 242 l 1213 -168 l 971 -168 l 1025 0 l 946 0 l 946 617 l 768 0 l 554 0 l 364 619 l 364 0 l 86 0 l 86 972 l 453 972 l 660 338 l 865 972 l 1224 972 l 1224 242 l 1343 242 z "},"Ӑ":{"ha":989,"x_min":7,"x_max":982,"o":"m 496 1024 q 313 1074 386 1024 q 233 1210 239 1125 l 374 1210 q 414 1153 381 1172 q 496 1135 447 1135 q 578 1153 544 1135 q 618 1210 611 1172 l 758 1210 q 679 1074 753 1125 q 496 1024 606 1024 m 651 113 l 338 113 l 307 0 l 7 0 l 339 972 l 651 972 l 982 0 l 682 0 l 651 113 m 596 322 l 494 700 l 393 322 l 596 322 z "},"Ӓ":{"ha":989,"x_min":7,"x_max":982,"o":"m 333 1013 q 248 1047 283 1013 q 213 1128 213 1081 q 247 1211 213 1176 q 333 1246 282 1246 q 419 1212 385 1246 q 454 1128 454 1178 q 419 1047 454 1081 q 333 1013 385 1013 m 657 1013 q 573 1047 607 1013 q 539 1128 539 1081 q 573 1212 539 1178 q 657 1246 607 1246 q 744 1211 708 1246 q 779 1128 779 1176 q 744 1047 779 1081 q 657 1013 708 1013 m 651 113 l 338 113 l 307 0 l 7 0 l 339 972 l 651 972 l 982 0 l 682 0 l 651 113 m 596 322 l 494 700 l 393 322 l 596 322 z "},"Ӕ":{"ha":1300,"x_min":4,"x_max":1224,"o":"m 906 756 l 906 586 l 1224 586 l 1224 379 l 906 379 l 906 217 l 1224 217 l 1224 0 l 621 0 l 621 115 l 353 115 l 306 0 l 4 0 l 485 972 l 1224 972 l 1224 756 l 906 756 m 621 322 l 621 760 l 439 322 l 621 322 z "},"Ӗ":{"ha":788,"x_min":86,"x_max":711,"o":"m 411 1024 q 228 1074 301 1024 q 149 1210 154 1125 l 289 1210 q 329 1153 296 1172 q 411 1135 363 1135 q 493 1153 460 1135 q 533 1210 526 1172 l 674 1210 q 594 1074 668 1125 q 411 1024 521 1024 m 86 972 l 711 972 l 711 756 l 375 756 l 375 586 l 711 586 l 711 379 l 375 379 l 375 217 l 711 217 l 711 0 l 86 0 l 86 972 z "},"Ә":{"ha":1092,"x_min":25,"x_max":1067,"o":"m 540 -29 q 269 39 386 -29 q 88 222 151 107 q 25 478 25 338 l 25 560 l 769 560 q 701 702 758 651 q 547 753 643 753 q 416 722 464 753 q 344 638 368 690 l 38 638 q 119 816 54 732 q 294 952 185 900 q 543 1004 403 1004 q 824 934 706 1004 q 1004 747 942 864 q 1067 488 1067 629 q 1004 228 1067 346 q 822 40 942 110 q 540 -29 703 -29 m 547 221 q 697 270 638 221 q 768 411 757 319 l 325 411 q 395 271 336 321 q 547 221 454 221 z "},"Ӛ":{"ha":1092,"x_min":25,"x_max":1067,"o":"m 381 1013 q 295 1047 331 1013 q 260 1128 260 1081 q 294 1211 260 1176 q 381 1246 329 1246 q 467 1212 432 1246 q 501 1128 501 1178 q 467 1047 501 1081 q 381 1013 432 1013 m 704 1013 q 620 1047 654 1013 q 586 1128 586 1081 q 620 1212 586 1178 q 704 1246 654 1246 q 791 1211 756 1246 q 826 1128 826 1176 q 791 1047 826 1081 q 704 1013 756 1013 m 540 -29 q 269 39 386 -29 q 88 222 151 107 q 25 478 25 338 l 25 560 l 769 560 q 701 702 758 651 q 547 753 643 753 q 416 722 464 753 q 344 638 368 690 l 38 638 q 119 816 54 732 q 294 952 185 900 q 543 1004 403 1004 q 824 934 706 1004 q 1004 747 942 864 q 1067 488 1067 629 q 1004 228 1067 346 q 822 40 942 110 q 540 -29 703 -29 m 547 221 q 697 270 638 221 q 768 411 757 319 l 325 411 q 395 271 336 321 q 547 221 454 221 z "},"Ӝ":{"ha":1533,"x_min":10,"x_max":1524,"o":"m 608 1013 q 523 1047 558 1013 q 488 1128 488 1081 q 522 1211 488 1176 q 608 1246 557 1246 q 694 1212 660 1246 q 729 1128 729 1178 q 694 1047 729 1081 q 608 1013 660 1013 m 932 1013 q 848 1047 882 1013 q 814 1128 814 1081 q 848 1212 814 1178 q 932 1246 882 1246 q 1019 1211 983 1246 q 1054 1128 1054 1176 q 1019 1047 1054 1081 q 932 1013 983 1013 m 1190 0 l 911 428 l 911 0 l 622 0 l 622 428 l 343 0 l 10 0 l 367 486 l 356 486 q 304 503 332 486 q 263 544 276 519 l 196 656 q 156 710 176 692 q 108 729 135 729 l 60 729 l 60 979 l 164 979 q 293 952 240 979 q 389 853 346 925 l 529 622 q 563 581 547 593 q 600 569 579 569 l 622 569 l 622 972 l 911 972 l 911 569 l 933 569 q 970 581 954 569 q 1004 622 986 593 l 1144 853 q 1240 952 1188 925 q 1369 979 1293 979 l 1474 979 l 1474 729 l 1425 729 q 1378 710 1399 729 q 1338 656 1357 692 l 1271 544 q 1229 503 1257 519 q 1178 486 1201 486 l 1167 486 l 1524 0 l 1190 0 z "},"Ӟ":{"ha":888,"x_min":28,"x_max":853,"o":"m 279 1013 q 194 1047 229 1013 q 158 1128 158 1081 q 193 1211 158 1176 q 279 1246 228 1246 q 365 1212 331 1246 q 400 1128 400 1178 q 365 1047 400 1081 q 279 1013 331 1013 m 603 1013 q 519 1047 553 1013 q 485 1128 485 1081 q 519 1212 485 1178 q 603 1246 553 1246 q 690 1211 654 1246 q 725 1128 725 1176 q 690 1047 725 1081 q 603 1013 654 1013 m 331 324 q 443 199 331 199 q 519 227 494 199 q 544 299 544 256 q 515 379 544 353 q 424 406 486 406 l 313 406 l 313 603 l 422 603 q 516 629 489 603 q 543 704 543 656 q 517 771 543 747 q 447 794 492 794 q 343 681 343 794 l 39 681 q 132 907 39 815 q 444 999 225 999 q 734 932 621 999 q 847 719 847 865 q 822 619 847 665 q 758 542 797 572 q 675 501 718 511 q 801 420 750 483 q 853 264 853 357 q 798 105 853 171 q 652 6 743 39 q 454 -26 561 -26 q 127 69 226 -26 q 28 324 28 164 l 331 324 z "},"Ӡ":{"ha":889,"x_min":28,"x_max":851,"o":"m 454 -24 q 129 68 231 -24 q 28 317 28 160 l 331 317 q 361 233 331 265 q 449 201 392 201 q 526 236 500 201 q 553 317 553 271 q 522 408 553 378 q 421 438 490 438 l 279 438 l 460 736 l 107 736 l 107 972 l 850 972 l 621 590 q 786 497 721 572 q 851 307 851 421 q 796 126 851 201 q 650 14 740 51 q 454 -24 560 -24 z "},"Ӣ":{"ha":1022,"x_min":86,"x_max":936,"o":"m 236 1172 l 797 1172 l 797 1033 l 236 1033 l 236 1172 m 375 67 l 375 0 l 86 0 l 86 972 l 375 972 l 375 433 l 647 906 l 647 972 l 936 972 l 936 0 l 647 0 l 647 539 l 375 67 z "},"Ӥ":{"ha":1022,"x_min":86,"x_max":936,"o":"m 354 994 q 269 1028 304 994 q 233 1110 233 1063 q 268 1193 233 1158 q 354 1228 303 1228 q 440 1194 406 1228 q 475 1110 475 1160 q 440 1028 475 1063 q 354 994 406 994 m 678 994 q 594 1028 628 994 q 560 1110 560 1063 q 594 1194 560 1160 q 678 1228 628 1228 q 765 1193 729 1228 q 800 1110 800 1158 q 765 1028 800 1063 q 678 994 729 994 m 375 67 l 375 0 l 86 0 l 86 972 l 375 972 l 375 433 l 647 906 l 647 972 l 936 972 l 936 0 l 647 0 l 647 539 l 375 67 z "},"Ӧ":{"ha":1124,"x_min":25,"x_max":1097,"o":"m 399 1013 q 313 1047 349 1013 q 278 1128 278 1081 q 313 1211 278 1176 q 399 1246 347 1246 q 485 1212 450 1246 q 519 1128 519 1178 q 485 1047 519 1081 q 399 1013 450 1013 m 722 1013 q 638 1047 672 1013 q 604 1128 604 1081 q 638 1212 604 1178 q 722 1246 672 1246 q 809 1211 774 1246 q 844 1128 844 1176 q 809 1047 844 1081 q 722 1013 774 1013 m 561 -31 q 276 40 397 -31 q 90 228 154 110 q 25 486 25 346 q 90 744 25 626 q 276 933 154 863 q 561 1003 397 1003 q 847 933 725 1003 q 1033 744 968 863 q 1097 486 1097 626 q 1033 228 1097 346 q 847 40 968 110 q 561 -31 725 -31 m 561 228 q 734 301 672 228 q 796 482 796 374 q 735 669 796 594 q 561 744 675 744 q 388 670 450 744 q 326 486 326 596 q 388 302 326 376 q 561 228 450 228 z "},"Ө":{"ha":1124,"x_min":25,"x_max":1097,"o":"m 561 1003 q 847 933 725 1003 q 1033 744 968 863 q 1097 486 1097 626 q 1033 228 1097 346 q 847 40 968 110 q 561 -31 725 -31 q 276 40 397 -31 q 90 228 154 110 q 25 486 25 346 q 90 744 25 626 q 276 933 154 863 q 561 1003 397 1003 m 561 744 q 403 687 464 744 q 331 538 343 629 l 793 538 q 719 687 779 629 q 561 744 660 744 m 561 228 q 721 286 661 228 q 793 438 781 344 l 329 438 q 403 286 343 344 q 561 228 463 228 z "},"Ӫ":{"ha":1124,"x_min":25,"x_max":1097,"o":"m 399 1013 q 313 1047 349 1013 q 278 1128 278 1081 q 313 1211 278 1176 q 399 1246 347 1246 q 485 1212 450 1246 q 519 1128 519 1178 q 485 1047 519 1081 q 399 1013 450 1013 m 722 1013 q 638 1047 672 1013 q 604 1128 604 1081 q 638 1212 604 1178 q 722 1246 672 1246 q 809 1211 774 1246 q 844 1128 844 1176 q 809 1047 844 1081 q 722 1013 774 1013 m 561 1003 q 847 933 725 1003 q 1033 744 968 863 q 1097 486 1097 626 q 1033 228 1097 346 q 847 40 968 110 q 561 -31 725 -31 q 276 40 397 -31 q 90 228 154 110 q 25 486 25 346 q 90 744 25 626 q 276 933 154 863 q 561 1003 397 1003 m 561 744 q 403 687 464 744 q 331 538 343 629 l 793 538 q 719 687 779 629 q 561 744 660 744 m 561 228 q 721 286 661 228 q 793 438 781 344 l 329 438 q 403 286 343 344 q 561 228 463 228 z "},"Ӭ":{"ha":1088,"x_min":19,"x_max":1063,"o":"m 360 1013 q 274 1047 310 1013 q 239 1128 239 1081 q 274 1211 239 1176 q 360 1246 308 1246 q 446 1212 411 1246 q 481 1128 481 1178 q 446 1047 481 1081 q 360 1013 411 1013 m 683 1013 q 599 1047 633 1013 q 565 1128 565 1081 q 599 1212 565 1178 q 683 1246 633 1246 q 770 1211 735 1246 q 806 1128 806 1176 q 770 1047 806 1081 q 683 1013 735 1013 m 521 1003 q 803 938 681 1003 q 994 757 926 874 q 1063 486 1063 640 q 994 215 1063 332 q 803 34 926 99 q 521 -31 681 -31 q 272 21 382 -31 q 95 165 161 72 q 19 375 29 257 l 331 375 q 397 265 343 304 q 538 226 450 226 q 678 275 621 226 q 756 408 736 324 l 464 408 l 464 564 l 756 564 q 678 697 736 649 q 538 746 621 746 q 399 706 454 746 q 331 597 344 667 l 19 597 q 96 810 29 718 q 273 952 163 901 q 521 1003 383 1003 z "},"Ӯ":{"ha":921,"x_min":-17,"x_max":949,"o":"m 754 1051 l 193 1051 l 193 1190 l 754 1190 l 754 1051 m 949 972 l 467 0 l 143 0 l 310 342 l -17 972 l 324 972 l 478 625 l 626 972 l 949 972 z "},"Ӱ":{"ha":921,"x_min":-17,"x_max":949,"o":"m 311 1013 q 226 1047 261 1013 q 190 1128 190 1081 q 225 1211 190 1176 q 311 1246 260 1246 q 397 1212 363 1246 q 432 1128 432 1178 q 397 1047 432 1081 q 311 1013 363 1013 m 635 1013 q 551 1047 585 1013 q 517 1128 517 1081 q 551 1212 517 1178 q 635 1246 585 1246 q 722 1211 686 1246 q 757 1128 757 1176 q 722 1047 757 1081 q 635 1013 686 1013 m 949 972 l 467 0 l 143 0 l 310 342 l -17 972 l 324 972 l 478 625 l 626 972 l 949 972 z "},"Ӳ":{"ha":921,"x_min":-17,"x_max":949,"o":"m 358 1026 l 265 1064 l 463 1246 l 614 1190 l 358 1026 m 533 1064 l 729 1246 l 879 1186 l 625 1025 l 533 1064 m 949 972 l 467 0 l 143 0 l 310 342 l -17 972 l 324 972 l 478 625 l 626 972 l 949 972 z "},"Ӵ":{"ha":925,"x_min":42,"x_max":840,"o":"m 274 1013 q 188 1047 224 1013 q 153 1128 153 1081 q 188 1211 153 1176 q 274 1246 222 1246 q 360 1212 325 1246 q 394 1128 394 1178 q 360 1047 394 1081 q 274 1013 325 1013 m 597 1013 q 513 1047 547 1013 q 479 1128 479 1081 q 513 1212 479 1178 q 597 1246 547 1246 q 684 1211 649 1246 q 719 1128 719 1176 q 684 1047 719 1081 q 597 1013 649 1013 m 550 306 q 354 269 476 269 q 192 309 263 269 q 81 419 121 349 q 42 578 42 489 l 42 972 l 331 972 l 331 640 q 365 516 331 554 q 457 478 399 478 q 508 483 486 478 q 550 503 529 488 l 550 972 l 840 972 l 840 0 l 550 0 l 550 306 z "},"Ӷ":{"ha":696,"x_min":86,"x_max":689,"o":"m 375 724 l 375 232 l 451 232 l 451 -168 l 188 -168 l 188 0 l 86 0 l 86 972 l 689 972 l 689 724 l 375 724 z "},"Ӹ":{"ha":1328,"x_min":86,"x_max":1242,"o":"m 503 1013 q 417 1047 453 1013 q 382 1128 382 1081 q 417 1211 382 1176 q 503 1246 451 1246 q 589 1212 554 1246 q 624 1128 624 1178 q 589 1047 624 1081 q 503 1013 554 1013 m 826 1013 q 742 1047 776 1013 q 708 1128 708 1081 q 742 1212 708 1178 q 826 1246 776 1246 q 913 1211 878 1246 q 949 1128 949 1176 q 913 1047 949 1081 q 826 1013 878 1013 m 86 972 l 375 972 l 375 604 l 582 604 q 737 563 667 604 q 847 453 807 522 q 886 303 886 385 q 846 151 886 221 q 736 41 806 82 q 582 0 667 0 l 86 0 l 86 972 m 953 972 l 1242 972 l 1242 0 l 953 0 l 953 972 m 483 196 q 563 226 533 196 q 592 303 592 256 q 563 378 592 349 q 483 407 533 407 l 375 407 l 375 196 l 483 196 z "},"Ӽ":{"ha":954,"x_min":11,"x_max":942,"o":"m 626 -271 q 501 -251 556 -271 l 501 -71 q 557 -76 546 -76 q 608 -64 592 -76 q 624 -26 624 -51 q 610 30 624 -1 q 563 126 597 61 l 476 281 l 328 0 l 11 0 l 310 486 l 11 972 l 328 972 l 476 692 l 626 972 l 942 972 l 644 486 l 825 188 q 894 55 876 104 q 913 -46 913 6 q 842 -216 913 -161 q 626 -271 772 -271 z "},"Ԑ":{"ha":888,"x_min":35,"x_max":860,"o":"m 860 324 q 760 69 860 164 q 433 -26 661 -26 q 235 6 326 -26 q 90 105 144 39 q 35 264 35 171 q 86 420 35 357 q 213 501 138 483 q 130 542 169 511 q 65 619 90 572 q 40 719 40 665 q 153 932 40 865 q 443 999 267 999 q 756 907 663 999 q 849 681 849 815 l 544 681 q 440 794 544 794 q 370 771 396 794 q 344 704 344 747 q 372 629 344 656 q 465 603 399 603 l 575 603 l 575 406 l 464 406 q 372 379 401 406 q 343 299 343 353 q 368 227 343 256 q 444 199 393 199 q 557 324 557 199 l 860 324 z "},"Ԓ":{"ha":1029,"x_min":24,"x_max":943,"o":"m 943 972 l 943 -35 q 870 -215 943 -158 q 656 -272 797 -272 q 532 -254 586 -272 l 532 -74 q 593 -78 565 -78 q 639 -65 624 -78 q 654 -18 654 -51 l 654 732 l 447 732 l 447 418 q 363 94 447 200 q 132 -12 279 -12 l 24 -12 l 24 226 l 57 226 q 133 275 107 226 q 158 410 158 324 l 158 972 l 943 972 z "},"Ԝ":{"ha":1510,"x_min":-10,"x_max":1519,"o":"m -10 972 l 297 972 l 472 386 l 640 972 l 869 972 l 1038 386 l 1213 972 l 1519 972 l 1169 0 l 917 0 l 756 529 l 593 0 l 340 0 l -10 972 z "},"Ҍ":{"ha":908,"x_min":29,"x_max":886,"o":"m 582 604 q 737 563 667 604 q 847 453 807 522 q 886 303 886 385 q 846 151 886 221 q 736 41 806 82 q 582 0 667 0 l 86 0 l 86 735 l 29 735 l 29 856 l 86 856 l 86 972 l 375 972 l 375 856 l 558 856 l 558 735 l 375 735 l 375 604 l 582 604 m 483 196 q 563 226 533 196 q 592 303 592 256 q 563 378 592 349 q 483 407 533 407 l 375 407 l 375 196 l 483 196 z "},"Ҏ":{"ha":926,"x_min":86,"x_max":917,"o":"m 917 610 q 879 442 917 518 q 776 318 842 367 l 826 268 l 764 207 l 696 275 q 556 249 631 249 l 375 249 l 375 0 l 86 0 l 86 972 l 556 972 q 741 925 658 972 q 870 795 824 878 q 917 610 917 713 m 499 472 l 432 539 l 494 600 l 585 510 q 624 610 624 549 q 587 708 624 669 q 496 747 550 747 l 375 747 l 375 472 l 494 472 l 499 472 z "},"а":{"ha":910,"x_min":31,"x_max":832,"o":"m 343 -19 q 178 27 249 -19 q 69 156 107 74 q 31 344 31 239 q 69 533 31 450 q 180 663 108 617 q 344 710 251 710 q 478 676 422 710 q 558 588 533 643 l 558 690 l 832 690 l 832 0 l 558 0 l 558 103 q 477 15 535 49 q 343 -19 419 -19 m 440 200 q 535 241 500 200 q 571 344 571 282 q 535 449 571 408 q 440 490 500 490 q 347 449 382 490 q 313 344 313 408 q 347 240 313 281 q 440 200 382 200 z "},"б":{"ha":883,"x_min":39,"x_max":863,"o":"m 464 -25 q 235 38 331 -25 q 89 210 139 100 q 39 460 39 319 q 176 842 39 711 q 564 972 314 972 l 765 972 l 765 760 l 560 760 q 349 701 418 760 q 276 517 281 642 q 371 631 296 589 q 536 674 446 674 q 778 581 694 674 q 863 336 863 488 q 815 158 863 240 q 678 25 768 75 q 464 -25 588 -25 m 463 190 q 556 232 521 190 q 592 336 592 274 q 556 440 592 399 q 463 482 521 482 q 368 442 403 482 q 333 336 333 401 q 368 231 333 271 q 463 190 403 190 z "},"в":{"ha":829,"x_min":79,"x_max":788,"o":"m 551 690 q 685 662 635 690 q 756 592 736 633 q 776 513 776 551 q 724 401 776 443 q 588 356 671 360 q 737 308 686 351 q 788 186 788 265 q 763 103 788 146 q 681 31 739 61 q 526 0 622 0 l 79 0 l 79 690 l 551 690 m 418 410 q 475 428 454 410 q 496 478 496 447 q 476 527 496 508 q 419 546 456 546 l 350 546 l 350 410 l 418 410 m 350 146 l 419 146 q 478 165 457 146 q 500 214 500 183 q 479 265 500 246 q 421 285 458 285 l 350 285 l 350 146 z "},"г":{"ha":601,"x_min":79,"x_max":574,"o":"m 574 444 l 351 444 l 351 0 l 79 0 l 79 690 l 574 690 l 574 444 z "},"ѓ":{"ha":601,"x_min":79,"x_max":574,"o":"m 574 444 l 351 444 l 351 0 l 79 0 l 79 690 l 574 690 l 574 444 m 121 869 l 531 994 l 572 861 l 165 735 l 121 869 z "},"ґ":{"ha":601,"x_min":79,"x_max":574,"o":"m 574 817 l 574 444 l 351 444 l 351 0 l 79 0 l 79 690 l 307 690 l 307 817 l 574 817 z "},"д":{"ha":982,"x_min":18,"x_max":947,"o":"m 947 232 l 947 -168 l 683 -168 l 683 0 l 285 0 l 285 -167 l 18 -167 l 18 232 l 93 232 q 152 276 132 240 q 172 360 172 311 l 172 690 l 871 690 l 871 232 l 947 232 m 432 364 q 383 204 432 271 l 597 204 l 597 504 l 432 504 l 432 364 z "},"е":{"ha":829,"x_min":21,"x_max":808,"o":"m 808 381 q 801 279 808 329 l 293 279 q 331 194 296 225 q 425 164 367 164 q 533 215 513 164 l 797 215 q 678 41 779 106 q 425 -24 576 -24 q 128 73 236 -24 q 21 344 21 169 q 70 542 21 458 q 210 671 119 626 q 419 715 300 715 q 622 673 533 715 q 759 554 710 631 q 808 381 808 478 m 536 429 q 504 518 535 486 q 417 550 474 550 q 328 517 361 550 q 293 429 296 483 l 536 429 z "},"ё":{"ha":829,"x_min":21,"x_max":808,"o":"m 808 381 q 801 279 808 329 l 293 279 q 331 194 296 225 q 425 164 367 164 q 533 215 513 164 l 797 215 q 678 41 779 106 q 425 -24 576 -24 q 128 73 236 -24 q 21 344 21 169 q 70 542 21 458 q 210 671 119 626 q 419 715 300 715 q 622 673 533 715 q 759 554 710 631 q 808 381 808 478 m 536 429 q 504 518 535 486 q 417 550 474 550 q 328 517 361 550 q 293 429 296 483 l 536 429 m 253 751 q 158 790 197 751 q 119 882 119 828 q 158 975 119 936 q 253 1014 197 1014 q 349 975 310 1014 q 388 882 388 936 q 349 790 388 828 q 253 751 310 751 m 581 751 q 485 790 524 751 q 447 882 447 828 q 485 975 447 936 q 581 1014 524 1014 q 676 975 638 1014 q 714 882 714 936 q 676 790 714 828 q 581 751 638 751 z "},"ж":{"ha":1364,"x_min":40,"x_max":1324,"o":"m 1324 0 l 1011 0 l 818 290 l 818 0 l 546 0 l 546 290 l 353 0 l 40 0 l 292 353 l 281 353 q 237 362 254 353 q 204 393 219 371 l 167 447 q 137 478 151 469 q 101 486 122 486 l 85 486 l 85 697 l 153 697 q 250 690 214 697 q 310 663 286 682 q 360 604 335 643 l 456 454 q 487 417 472 428 q 525 406 501 406 l 546 406 l 546 690 l 818 690 l 818 406 l 839 406 q 877 417 863 406 q 908 454 892 428 l 1004 604 q 1053 663 1029 643 q 1114 690 1078 682 q 1211 697 1150 697 l 1279 697 l 1279 486 l 1263 486 q 1227 478 1242 486 q 1197 447 1213 469 l 1160 393 q 1127 362 1144 371 q 1083 353 1110 353 l 1072 353 l 1324 0 z "},"з":{"ha":796,"x_min":38,"x_max":754,"o":"m 310 225 q 403 150 310 150 q 458 167 439 150 q 478 217 478 185 q 388 285 478 285 l 299 285 l 299 424 l 382 424 q 449 442 425 424 q 474 492 474 460 q 454 535 474 519 q 403 551 435 551 q 319 483 319 551 l 49 483 q 133 644 49 578 q 410 710 218 710 q 654 660 561 710 q 747 511 747 611 q 701 400 747 438 q 583 356 654 363 q 707 309 660 350 q 754 189 754 268 q 705 73 754 121 q 576 1 656 25 q 406 -24 496 -24 q 124 44 210 -24 q 38 225 38 113 l 310 225 z "},"и":{"ha":903,"x_min":79,"x_max":825,"o":"m 351 47 l 351 0 l 79 0 l 79 690 l 351 690 l 351 310 l 551 632 l 551 690 l 825 690 l 825 0 l 551 0 l 551 368 l 351 47 z "},"й":{"ha":903,"x_min":79,"x_max":825,"o":"m 446 726 q 254 779 322 726 q 182 928 186 832 l 365 928 q 446 856 369 856 q 525 928 521 856 l 710 928 q 633 780 704 833 q 446 726 563 726 m 351 47 l 351 0 l 79 0 l 79 690 l 351 690 l 351 310 l 551 632 l 551 690 l 825 690 l 825 0 l 551 0 l 551 368 l 351 47 z "},"ҋ":{"ha":935,"x_min":79,"x_max":900,"o":"m 446 726 q 254 779 322 726 q 182 928 186 832 l 365 928 q 446 856 369 856 q 525 928 521 856 l 710 928 q 633 780 704 833 q 446 726 563 726 m 900 232 l 900 -168 l 636 -168 l 636 0 l 551 0 l 551 368 l 351 47 l 351 0 l 79 0 l 79 690 l 351 690 l 351 310 l 551 632 l 551 690 l 825 690 l 825 232 l 900 232 z "},"к":{"ha":897,"x_min":79,"x_max":857,"o":"m 857 0 l 544 0 l 351 290 l 351 0 l 79 0 l 79 690 l 351 690 l 351 406 l 372 406 q 410 417 396 406 q 442 454 425 428 l 538 604 q 587 663 563 643 q 647 690 611 682 q 744 697 683 697 l 813 697 l 813 486 l 796 486 q 760 478 775 486 q 731 447 746 469 l 693 393 q 660 362 678 371 q 617 353 643 353 l 606 353 l 857 0 z "},"ќ":{"ha":897,"x_min":79,"x_max":857,"o":"m 857 0 l 544 0 l 351 290 l 351 0 l 79 0 l 79 690 l 351 690 l 351 406 l 372 406 q 410 417 396 406 q 442 454 425 428 l 538 604 q 587 663 563 643 q 647 690 611 682 q 744 697 683 697 l 813 697 l 813 486 l 796 486 q 760 478 775 486 q 731 447 746 469 l 693 393 q 660 362 678 371 q 617 353 643 353 l 606 353 l 857 0 m 264 869 l 674 994 l 715 861 l 308 735 l 264 869 z "},"л":{"ha":897,"x_min":32,"x_max":818,"o":"m 58 210 q 125 322 125 210 l 125 690 l 818 690 l 818 0 l 546 0 l 546 472 l 399 472 l 399 328 q 326 78 399 167 q 106 -11 253 -11 l 32 -11 l 32 210 l 58 210 z "},"м":{"ha":1242,"x_min":79,"x_max":1163,"o":"m 79 690 l 486 690 l 624 278 l 761 690 l 1163 690 l 1163 0 l 901 0 l 901 486 l 732 0 l 518 0 l 340 486 l 340 0 l 79 0 l 79 690 z "},"н":{"ha":906,"x_min":79,"x_max":828,"o":"m 79 690 l 351 690 l 351 454 l 554 454 l 554 690 l 828 690 l 828 0 l 554 0 l 554 240 l 351 240 l 351 0 l 79 0 l 79 690 z "},"о":{"ha":846,"x_min":21,"x_max":825,"o":"m 422 -24 q 210 23 301 -24 q 70 153 119 69 q 21 346 21 238 q 70 538 21 454 q 210 669 119 622 q 422 715 301 715 q 635 669 543 715 q 776 538 726 622 q 825 346 825 454 q 776 153 825 238 q 635 23 726 69 q 422 -24 543 -24 m 422 200 q 517 240 482 200 q 551 346 551 281 q 517 451 551 411 q 422 492 482 492 q 328 451 364 492 q 293 346 293 410 q 328 241 293 282 q 422 200 364 200 z "},"п":{"ha":901,"x_min":79,"x_max":822,"o":"m 550 0 l 550 476 l 351 476 l 351 0 l 79 0 l 79 690 l 822 690 l 822 0 l 550 0 z "},"р":{"ha":910,"x_min":79,"x_max":881,"o":"m 572 710 q 732 665 663 710 q 841 536 801 619 q 881 344 881 453 q 841 155 881 238 q 730 26 801 72 q 568 -19 658 -19 q 433 16 490 -19 q 351 103 375 51 l 351 -264 l 79 -264 l 79 690 l 351 690 l 351 588 q 434 675 375 640 q 572 710 493 710 m 469 197 q 563 239 526 197 q 599 344 599 281 q 563 450 599 410 q 469 490 526 490 q 376 450 413 490 q 340 344 340 410 q 376 238 340 279 q 469 197 413 197 z "},"с":{"ha":822,"x_min":21,"x_max":801,"o":"m 417 -24 q 208 22 297 -24 q 69 152 118 68 q 21 346 21 236 q 69 540 21 456 q 208 669 118 624 q 417 715 297 715 q 609 678 525 715 q 743 574 693 642 q 801 415 793 506 l 529 415 q 417 490 511 490 q 326 452 358 490 q 293 346 293 414 q 326 240 293 278 q 417 201 358 201 q 529 275 510 201 l 801 275 q 684 57 788 138 q 417 -24 581 -24 z "},"т":{"ha":721,"x_min":38,"x_max":683,"o":"m 683 463 l 496 463 l 496 0 l 224 0 l 224 463 l 38 463 l 38 690 l 683 690 l 683 463 z "},"у":{"ha":894,"x_min":72,"x_max":815,"o":"m 815 690 l 815 46 q 787 -104 815 -39 q 711 -210 758 -169 q 597 -269 660 -251 q 439 -287 535 -287 q 275 -271 340 -287 q 164 -217 210 -254 q 98 -134 124 -183 q 72 -33 72 -85 l 344 -33 q 370 -85 347 -67 q 439 -104 393 -104 q 543 7 543 -104 l 543 133 q 460 47 515 78 q 328 15 404 15 q 72 310 72 15 l 72 690 l 344 690 l 344 342 q 367 251 344 282 q 439 221 389 221 q 543 364 543 221 l 543 690 l 815 690 z "},"ў":{"ha":894,"x_min":72,"x_max":815,"o":"m 438 740 q 246 793 314 740 q 174 942 178 846 l 357 942 q 438 869 361 869 q 517 942 513 869 l 701 942 q 625 794 696 847 q 438 740 554 740 m 815 690 l 815 46 q 787 -104 815 -39 q 711 -210 758 -169 q 597 -269 660 -251 q 439 -287 535 -287 q 275 -271 340 -287 q 164 -217 210 -254 q 98 -134 124 -183 q 72 -33 72 -85 l 344 -33 q 370 -85 347 -67 q 439 -104 393 -104 q 543 7 543 -104 l 543 133 q 460 47 515 78 q 328 15 404 15 q 72 310 72 15 l 72 690 l 344 690 l 344 342 q 367 251 344 282 q 439 221 389 221 q 543 364 543 221 l 543 690 l 815 690 z "},"ф":{"ha":1013,"x_min":21,"x_max":992,"o":"m 992 344 q 951 176 992 254 q 831 46 910 97 q 643 -15 751 -6 l 643 -264 l 369 -264 l 369 -15 q 183 46 263 -6 q 63 176 104 97 q 21 344 21 254 q 62 515 21 436 q 182 646 103 594 q 369 707 261 697 l 369 972 l 643 972 l 643 707 q 829 646 750 697 q 950 515 908 594 q 992 344 992 435 m 285 344 q 319 243 285 285 q 410 201 353 201 l 411 201 l 411 488 l 410 488 q 319 447 353 488 q 285 344 285 406 m 601 201 q 692 242 658 201 q 726 344 726 283 q 693 447 726 406 q 601 488 660 488 l 600 488 l 600 201 l 601 201 z "},"х":{"ha":861,"x_min":10,"x_max":851,"o":"m 257 349 l 14 690 l 333 690 l 431 514 l 528 690 l 847 690 l 604 349 l 851 0 l 532 0 l 431 185 l 329 0 l 10 0 l 257 349 z "},"ч":{"ha":839,"x_min":42,"x_max":761,"o":"m 488 213 q 329 182 413 182 q 116 243 190 182 q 42 422 42 304 l 42 690 l 319 690 l 319 464 q 407 364 319 364 q 454 369 436 364 q 488 388 472 374 l 488 690 l 761 690 l 761 0 l 488 0 l 488 213 z "},"ц":{"ha":931,"x_min":79,"x_max":896,"o":"m 896 232 l 896 -168 l 632 -168 l 632 0 l 79 0 l 79 690 l 351 690 l 351 214 l 547 214 l 547 690 l 821 690 l 821 232 l 896 232 z "},"ш":{"ha":1272,"x_min":79,"x_max":1194,"o":"m 921 214 l 921 690 l 1194 690 l 1194 0 l 79 0 l 79 690 l 351 690 l 351 214 l 500 214 l 500 690 l 772 690 l 772 214 l 921 214 z "},"щ":{"ha":1304,"x_min":79,"x_max":1269,"o":"m 1269 232 l 1269 -168 l 1006 -168 l 1006 0 l 79 0 l 79 690 l 351 690 l 351 214 l 500 214 l 500 690 l 772 690 l 772 214 l 921 214 l 921 690 l 1194 690 l 1194 232 l 1269 232 z "},"џ":{"ha":899,"x_min":79,"x_max":821,"o":"m 821 0 l 583 0 l 583 -126 l 319 -126 l 319 0 l 79 0 l 79 690 l 351 690 l 351 214 l 547 214 l 547 690 l 821 690 l 821 0 z "},"ь":{"ha":801,"x_min":79,"x_max":781,"o":"m 351 690 l 351 479 l 479 479 q 708 410 635 479 q 781 240 781 340 q 750 128 781 183 q 651 37 719 74 q 479 0 583 0 l 79 0 l 79 690 l 351 690 m 351 157 l 422 157 q 482 179 460 157 q 504 236 504 201 q 483 293 504 271 q 422 315 461 315 l 351 315 l 351 157 z "},"ъ":{"ha":896,"x_min":28,"x_max":875,"o":"m 574 479 q 802 410 729 479 q 875 240 875 340 q 844 128 875 183 q 746 37 814 74 q 574 0 678 0 l 174 0 l 174 478 l 28 478 l 28 690 l 446 690 l 446 479 l 574 479 m 517 157 q 576 179 554 157 q 599 236 599 201 q 577 293 599 271 q 517 315 556 315 l 446 315 l 446 157 l 517 157 z "},"ы":{"ha":1183,"x_min":79,"x_max":1104,"o":"m 351 690 l 351 479 l 479 479 q 708 410 635 479 q 781 240 781 340 q 750 128 781 183 q 651 37 719 74 q 479 0 583 0 l 79 0 l 79 690 l 351 690 m 351 157 l 422 157 q 482 179 460 157 q 504 236 504 201 q 483 293 504 271 q 422 315 461 315 l 351 315 l 351 157 m 832 690 l 1104 690 l 1104 0 l 832 0 l 832 690 z "},"љ":{"ha":1268,"x_min":32,"x_max":1249,"o":"m 947 479 q 1176 410 1103 479 q 1249 240 1249 340 q 1218 128 1249 183 q 1119 37 1188 74 q 947 0 1051 0 l 546 0 l 546 472 l 399 472 l 399 328 q 326 78 399 167 q 106 -11 253 -11 l 32 -11 l 32 210 l 58 210 q 125 322 125 210 l 125 690 l 819 690 l 819 479 l 947 479 m 890 157 q 950 179 928 157 q 972 236 972 201 q 951 293 972 271 q 890 315 929 315 l 819 315 l 819 157 l 890 157 z "},"њ":{"ha":1276,"x_min":79,"x_max":1256,"o":"m 954 479 q 1183 410 1110 479 q 1256 240 1256 340 q 1225 128 1256 183 q 1126 37 1194 74 q 954 0 1058 0 l 554 0 l 554 240 l 351 240 l 351 0 l 79 0 l 79 690 l 351 690 l 351 454 l 554 454 l 554 690 l 828 690 l 828 479 l 954 479 m 897 157 q 957 179 935 157 q 979 236 979 201 q 958 293 979 271 q 897 315 936 315 l 828 315 l 828 157 l 897 157 z "},"ѕ":{"ha":751,"x_min":31,"x_max":719,"o":"m 386 -24 q 195 5 275 -24 q 73 85 115 33 q 31 206 31 138 l 301 206 q 325 158 301 176 q 388 140 349 140 q 433 153 415 140 q 450 189 450 167 q 403 235 450 224 l 239 272 q 94 347 144 293 q 43 481 43 400 q 130 652 43 589 q 367 715 217 715 q 621 659 533 715 q 708 499 708 603 l 440 499 q 421 543 440 528 q 367 558 401 558 q 324 547 340 558 q 307 517 307 536 q 365 464 307 479 l 528 422 q 671 351 622 399 q 719 224 719 303 q 629 43 719 110 q 386 -24 539 -24 z "},"є":{"ha":832,"x_min":21,"x_max":811,"o":"m 539 413 q 410 513 521 513 q 322 482 353 513 q 288 399 290 451 l 474 399 l 474 288 l 288 288 q 322 206 290 235 q 411 178 354 178 q 499 201 468 178 q 538 271 529 224 l 811 271 q 754 117 803 183 q 620 13 706 50 q 419 -24 535 -24 q 199 26 289 -24 q 65 159 110 75 q 21 344 21 243 q 65 531 21 447 q 199 665 110 615 q 419 715 289 715 q 619 677 533 715 q 753 570 704 639 q 811 413 803 501 l 539 413 z "},"э":{"ha":832,"x_min":21,"x_max":811,"o":"m 21 413 q 78 570 29 501 q 213 677 128 639 q 413 715 299 715 q 633 665 543 715 q 767 531 722 615 q 811 344 811 447 q 767 159 811 243 q 633 26 722 75 q 413 -24 543 -24 q 212 13 297 -24 q 78 117 126 50 q 21 271 29 183 l 294 271 q 333 201 303 224 q 421 178 364 178 q 510 206 478 178 q 544 288 542 235 l 358 288 l 358 399 l 544 399 q 510 482 542 451 q 422 513 479 513 q 293 413 311 513 l 21 413 z "},"і":{"ha":431,"x_min":64,"x_max":367,"o":"m 79 690 l 351 690 l 351 0 l 79 0 l 79 690 m 215 714 q 107 758 150 714 q 64 863 64 801 q 107 968 64 925 q 215 1011 150 1011 q 323 968 279 1011 q 367 863 367 925 q 323 758 367 801 q 215 714 279 714 z "}}}
